Matemasie.glyphspackage
{
color = 10;
glyphname = exclam;
kernLeft = KO_exclam;
kernRight = KO_exclam;
layers = (
{
associatedMasterId = "49F060A0-2273-4F54-8B81-08E0B15B03EC";
layerId = "C0DC5FFE-29C6-4D1F-B7C6-54AF291C1B88";
name = "11 Jan 24 at 09:52";
shapes = (
{
closed = 1;
nodes = (
(184,-1,o),
(212,25,o),
(212,61,cs),
(212,98,o),
(184,125,o),
(145,125,cs),
(106,125,o),
(78,98,o),
(78,61,cs),
(78,25,o),
(106,-1,o),
(145,-1,cs)
);
},
{
closed = 1;
nodes = (
(182,188,o),
(201,214,o),
(215,260,cs),
(240,346,o),
(270,488,o),
(270,627,cs),
(270,729,o),
(213,786,o),
(145,786,cs),
(78,786,o),
(20,729,o),
(20,627,cs),
(20,488,o),
(50,346,o),
(76,260,cs),
(90,214,o),
(109,188,o),
(145,188,cs)
);
}
);
width = 290;
},
{
layerId = "49F060A0-2273-4F54-8B81-08E0B15B03EC";
name = Regular;
shapes = (
{
closed = 1;
nodes = (
(182,227,o),
(201,252,o),
(215,296,cs),
(240,378,o),
(270,514,o),
(270,648,cs),
(270,745,o),
(213,800,o),
(145,800,cs),
(78,800,o),
(20,745,o),
(20,648,cs),
(20,514,o),
(50,378,o),
(76,296,cs),
(90,252,o),
(109,227,o),
(145,227,cs)
);
},
{
closed = 1;
nodes = (
(205,-14,o),
(247,28,o),
(247,82,cs),
(247,137,o),
(205,179,o),
(145,179,cs),
(86,179,o),
(43,137,o),
(43,82,cs),
(43,28,o),
(86,-14,o),
(145,-14,cs)
);
}
);
width = 290;
}
);
unicode = 33;
userData = {
KernOnName = exclam;
KernOnSpecialSpacing = {
L = "spaced-off";
};
};
}
{
color = 10;
glyphname = quotedbl;
kernLeft = KO_quotedbl;
kernRight = KO_quotedbl;
layers = (
{
anchors = (
{
name = _top;
pos = (158,800);
}
);
layerId = "49F060A0-2273-4F54-8B81-08E0B15B03EC";
shapes = (
{
closed = 1;
nodes = (
(261,524,o),
(274,543,o),
(289,600,cs),
(295,624,o),
(306,669,o),
(306,723,cs),
(306,785,o),
(278,812,o),
(239,812,cs),
(200,812,o),
(172,785,o),
(172,723,cs),
(172,669,o),
(183,624,o),
(189,600,cs),
(204,543,o),
(217,524,o),
(239,524,cs)
);
},
{
closed = 1;
nodes = (
(99,524,o),
(112,543,o),
(127,600,cs),
(133,624,o),
(144,669,o),
(144,723,cs),
(144,785,o),
(116,812,o),
(77,812,cs),
(38,812,o),
(10,785,o),
(10,723,cs),
(10,669,o),
(21,624,o),
(27,600,cs),
(42,543,o),
(55,524,o),
(77,524,cs)
);
}
);
width = 316;
}
);
unicode = 34;
userData = {
KernOnName = quotedbl;
KernOnSpecialSpacing = {
L = quotes;
R = quotes;
};
};
}
{
color = 10;
glyphname = numbersign;
kernLeft = KO_numbersign;
kernRight = KO_numbersign;
layers = (
{
layerId = "49F060A0-2273-4F54-8B81-08E0B15B03EC";
shapes = (
{
closed = 1;
nodes = (
(152,-14,o),
(165,-14,cs),
(178,-14,o),
(189,-4,o),
(207,23,cs),
(228,55,o),
(265,120,o),
(292,165,cs),
(296,171,o),
(300,174,o),
(307,175,cs),
(336,178,o),
(289,174,o),
(425,184,cs),
(431,185,o),
(435,183,o),
(435,177,cs),
(435,175,o),
(435,173,o),
(434,171,cs),
(419,130,o),
(404,88,o),
(392,53,cs),
(387,38,o),
(384,26,o),
(384,17,cs),
(384,-6,o),
(404,-14,o),
(417,-14,cs),
(430,-14,o),
(443,-4,o),
(459,22,cs),
(504,94,o),
(523,129,o),
(559,190,cs),
(562,195,o),
(568,198,o),
(573,198,cs),
(634,198,o),
(694,210,o),
(765,218,cs),
(801,222,o),
(816,233,o),
(816,257,cs),
(816,278,o),
(804,287,o),
(765,291,cs),
(640,305,ls),
(634,306,o),
(631,308,o),
(631,312,cs),
(631,314,o),
(632,316,o),
(633,318,cs),
(634,319,o),
(649,346,o),
(707,452,cs),
(710,457,o),
(712,458,o),
(723,459,cs),
(774,463,o),
(803,468,o),
(883,477,cs),
(917,481,o),
(933,492,o),
(933,516,cs),
(933,543,o),
(913,546,o),
(882,550,cs),
(827,557,o),
(795,560,o),
(776,562,cs),
(772,562,o),
(768,563,o),
(768,567,cs),
(768,568,o),
(768,569,o),
(769,571,cs),
(781,594,ls),
(800,631,o),
(808,661,o),
(808,685,cs),
(808,721,o),
(789,744,o),
(761,757,cs),
(749,763,o),
(737,766,o),
(726,766,cs),
(691,766,o),
(655,739,o),
(623,667,cs),
(614,646,o),
(593,601,o),
(590,592,cs),
(587,584,o),
(586,581,o),
(576,581,cs),
(566,581,o),
(540,583,o),
(532,584,cs),
(525,585,o),
(529,591,o),
(530,593,cs),
(548,630,o),
(556,660,o),
(556,684,cs),
(556,743,o),
(506,766,o),
(474,766,cs),
(439,766,o),
(403,739,o),
(370,668,cs),
(362,650,o),
(352,627,o),
(343,604,cs),
(341,599,o),
(338,598,o),
(327,598,cs),
(308,598,o),
(279,600,o),
(262,600,cs),
(160,600,o),
(127,565,o),
(127,514,cs),
(127,462,o),
(162,426,o),
(260,426,cs),
(263,426,o),
(268,425,o),
(268,419,cs),
(268,418,o),
(268,416,o),
(267,414,cs),
(262,401,o),
(252,370,o),
(244,346,cs),
(242,339,o),
(237,338,o),
(233,338,cs),
(204,338,o),
(171,341,o),
(142,341,cs),
(43,341,o),
(10,305,o),
(10,255,cs),
(10,203,o),
(45,167,o),
(143,167,cs),
(151,167,o),
(160,167,o),
(169,167,cs),
(173,167,o),
(177,166,o),
(177,161,cs),
(177,160,o),
(177,159,o),
(176,157,cs),
(140,53,ls),
(135,38,o),
(132,26,o),
(132,17,cs),
(132,-5,o)
);
},
{
closed = 1;
nodes = (
(393,327,ls),
(388,327,o),
(387,330,o),
(390,335,cs),
(405,361,o),
(429,403,o),
(442,428,cs),
(444,431,o),
(446,436,o),
(452,436,cs),
(477,436,o),
(515,441,o),
(524,441,cs),
(530,441,o),
(532,440,o),
(529,433,cs),
(518,403,o),
(507,375,o),
(490,327,cs),
(488,322,o),
(485,320,o),
(480,320,c)
);
}
);
width = 943;
},
{
associatedMasterId = "49F060A0-2273-4F54-8B81-08E0B15B03EC";
layerId = "42CC2EF1-FF79-44BD-A4B8-2DAC83FE3980";
name = "6 Dec 23 at 02:31";
shapes = (
{
closed = 1;
nodes = (
(433,-24,o),
(448,-15,o),
(471,19,cs),
(509,81,o),
(544,139,o),
(576,195,cs),
(582,205,o),
(589,210,o),
(600,211,cs),
(644,217,o),
(690,223,o),
(737,230,cs),
(775,236,o),
(787,247,o),
(787,268,cs),
(786,290,o),
(772,302,o),
(669,310,cs),
(625,313,o),
(620,324,o),
(628,338,cs),
(695,458,ls),
(701,468,o),
(708,473,o),
(719,474,cs),
(761,480,o),
(806,486,o),
(852,493,cs),
(890,499,o),
(902,510,o),
(901,531,cs),
(901,553,o),
(887,562,o),
(848,568,cs),
(808,571,o),
(770,574,o),
(733,576,cs),
(718,577,o),
(712,587,o),
(718,602,cs),
(745,668,o),
(763,726,o),
(696,757,cs),
(649,779,o),
(599,763,o),
(556,666,cs),
(548,647,o),
(539,628,o),
(530,606,cs),
(525,594,o),
(517,589,o),
(505,590,cs),
(484,592,o),
(469,594,o),
(478,617,cs),
(509,696,o),
(490,738,o),
(447,758,cs),
(400,780,o),
(346,766,o),
(305,668,cs),
(282,613,ls),
(277,602,o),
(269,597,o),
(257,597,cs),
(225,597,ls),
(126,597,o),
(94,557,o),
(96,505,cs),
(99,430,o),
(157,424,o),
(231,423,cs),
(247,423,o),
(254,413,o),
(248,399,cs),
(242,383,o),
(236,366,o),
(229,350,cs),
(225,338,o),
(217,333,o),
(205,333,cs),
(169,334,o),
(137,334,o),
(110,334,cs),
(11,333,o),
(-21,294,o),
(-19,242,cs),
(-17,190,o),
(18,153,o),
(166,161,cs),
(182,162,o),
(189,153,o),
(184,138,cs),
(174,110,o),
(164,81,o),
(154,51,cs),
(141,12,o),
(145,-4,o),
(164,-13,cs),
(184,-23,o),
(199,-14,o),
(222,20,cs),
(252,69,o),
(280,116,o),
(307,161,cs),
(313,171,o),
(320,176,o),
(331,177,cs),
(360,180,o),
(392,184,o),
(425,188,cs),
(441,190,o),
(449,181,o),
(444,166,cs),
(403,50,ls),
(389,11,o),
(394,-5,o),
(413,-14,cs)
);
},
{
closed = 1;
nodes = (
(401,378,o),
(415,403,o),
(420,411,cs),
(433,435,o),
(440,440,o),
(469,443,cs),
(505,447,o),
(513,438,o),
(503,411,cs),
(475,339,ls),
(470,327,o),
(456,322,o),
(444,323,cs),
(426,324,o),
(416,325,o),
(400,326,cs),
(384,327,o),
(378,337,o),
(386,351,cs)
);
}
);
width = 882;
},
{
associatedMasterId = "49F060A0-2273-4F54-8B81-08E0B15B03EC";
layerId = "16880302-FAA4-4137-854D-F70AC4AB0811";
name = "6 Dec 23 at 04:22";
shapes = (
{
closed = 1;
nodes = (
(152,-23,o),
(167,-14,o),
(190,20,cs),
(222,73,o),
(282,173,o),
(288,185,cs),
(292,191,o),
(299,195,o),
(309,196,cs),
(338,201,o),
(369,205,o),
(401,210,cs),
(417,212,o),
(425,203,o),
(419,187,cs),
(404,143,o),
(388,97,o),
(371,50,cs),
(358,11,o),
(362,-5,o),
(381,-14,cs),
(401,-24,o),
(416,-15,o),
(439,19,cs),
(484,93,o),
(534,173,o),
(572,238,cs),
(578,248,o),
(585,253,o),
(595,255,cs),
(652,264,o),
(711,273,o),
(771,284,cs),
(812,291,o),
(824,303,o),
(822,324,cs),
(821,346,o),
(806,355,o),
(765,358,cs),
(726,360,o),
(689,361,o),
(653,362,cs),
(636,363,o),
(630,373,o),
(639,388,cs),
(655,415,o),
(669,439,o),
(682,464,cs),
(687,474,o),
(694,479,o),
(705,480,cs),
(754,488,o),
(805,497,o),
(858,506,cs),
(899,514,o),
(911,525,o),
(910,546,cs),
(909,568,o),
(893,577,o),
(853,581,c),
(809,582,o),
(766,584,o),
(725,585,c),
(726,588,o),
(728,590,o),
(729,593,cs),
(776,687,o),
(757,735,o),
(710,757,cs),
(663,779,o),
(613,763,o),
(570,666,cs),
(560,644,o),
(549,620,o),
(538,592,cs),
(533,580,o),
(525,576,o),
(503,576,cs),
(490,576,o),
(472,573,o),
(486,602,cs),
(530,688,o),
(508,736,o),
(461,758,cs),
(414,780,o),
(364,764,o),
(319,668,cs),
(307,641,o),
(294,609,o),
(280,573,cs),
(275,562,o),
(268,557,o),
(256,556,cs),
(236,556,o),
(218,556,o),
(203,554,cs),
(98,550,o),
(65,510,o),
(68,458,cs),
(72,406,o),
(110,370,o),
(216,380,cs),
(219,380,o),
(222,380,o),
(225,381,c),
(220,366,o),
(214,352,o),
(209,337,c),
(206,336,l),
(172,335,o),
(141,335,o),
(115,334,cs),
(11,327,o),
(-22,287,o),
(-19,236,cs),
(-15,184,o),
(23,155,o),
(129,155,cs),
(148,155,o),
(155,148,o),
(150,132,cs),
(122,51,ls),
(109,12,o),
(113,-4,o),
(132,-13,cs)
);
},
{
closed = 1;
nodes = (
(401,407,ls),
(406,417,o),
(414,421,o),
(425,423,cs),
(438,425,o),
(452,427,o),
(466,428,cs),
(483,431,o),
(490,421,o),
(484,406,cs),
(470,369,ls),
(466,357,o),
(458,352,o),
(446,352,cs),
(430,352,o),
(414,352,o),
(399,351,cs),
(382,350,o),
(376,360,o),
(384,375,cs)
);
}
);
width = 891;
}
);
unicode = 35;
}
{
color = 10;
glyphname = dollar;
kernLeft = KO_dollar;
layers = (
{
associatedMasterId = "49F060A0-2273-4F54-8B81-08E0B15B03EC";
layerId = "38BEDBB5-FB7B-48DC-9BC5-5EA311523D16";
name = "4 Dec 23 at 23:27";
shapes = (
{
closed = 1;
nodes = (
(301,-36,o),
(313,-45,o),
(329,-45,cs),
(344,-45,o),
(355,-37,o),
(362,-21,cs),
(365,-14,o),
(367,-11,o),
(370,-11,cs),
(497,-11,o),
(558,51,o),
(558,140,cs),
(558,236,o),
(486,284,o),
(345,284,cs),
(296,284,o),
(272,306,o),
(272,337,cs),
(272,367,o),
(295,390,o),
(346,390,cs),
(405,390,o),
(451,360,o),
(506,360,cs),
(583,360,o),
(627,417,o),
(627,489,cs),
(627,590,o),
(546,673,o),
(414,673,cs),
(410,673,o),
(406,677,o),
(406,682,cs),
(406,733,o),
(381,782,o),
(331,782,c),
(290,782,o),
(255,747,o),
(255,684,cs),
(255,674,o),
(259,663,o),
(246,659,cs),
(156,633,o),
(33,539,o),
(33,392,cs),
(33,272,o),
(115,165,o),
(340,165,c),
(385,165,o),
(404,147,o),
(404,124,cs),
(404,101,o),
(385,83,o),
(316,80,cs),
(266,78,o),
(207,85,o),
(161,109,cs),
(122,129,o),
(99,106,o),
(91,84,cs),
(82,58,o),
(97,32,o),
(144,10,cs),
(172,-3,o),
(208,-13,o),
(288,-13,cs),
(291,-13,o),
(292,-14,o),
(295,-21,cs)
);
}
);
width = 660;
},
{
associatedMasterId = "49F060A0-2273-4F54-8B81-08E0B15B03EC";
layerId = "5A95D9BC-D7EB-4823-BBE4-F0FF1AD86F06";
name = "3 Mar 24 at 05:53";
shapes = (
{
closed = 1;
nodes = (
(289,-79,o),
(292,-45,o),
(294,-32,cs),
(297,-14,o),
(301,-14,o),
(315,-11,cs),
(390,3,o),
(464,43,o),
(464,123,cs),
(464,201,o),
(392,224,o),
(273,224,cs),
(227,224,o),
(207,246,o),
(207,270,cs),
(207,300,o),
(237,313,o),
(282,313,cs),
(336,313,o),
(377,294,o),
(424,294,cs),
(493,294,o),
(529,333,o),
(529,406,cs),
(529,500,o),
(468,571,o),
(366,592,cs),
(351,595,o),
(344,601,o),
(343,614,cs),
(335,689,o),
(302,713,o),
(260,713,cs),
(214,713,o),
(176,685,o),
(176,601,cs),
(176,589,o),
(172,581,o),
(160,576,cs),
(66,538,o),
(13,456,o),
(13,354,cs),
(13,208,o),
(122,146,o),
(287,146,cs),
(342,146,o),
(349,126,o),
(349,113,cs),
(349,81,o),
(305,62,o),
(243,62,cs),
(179,62,o),
(138,81,o),
(108,94,cs),
(98,98,o),
(90,101,o),
(82,101,cs),
(59,101,o),
(42,84,o),
(42,63,cs),
(42,13,o),
(134,-8,o),
(205,-15,cs),
(217,-16,o),
(223,-22,o),
(225,-35,cs),
(229,-57,o),
(237,-79,o),
(260,-79,cs)
);
}
);
width = 547;
},
{
layerId = "49F060A0-2273-4F54-8B81-08E0B15B03EC";
name = Regular;
shapes = (
{
closed = 1;
nodes = (
(365,-51,o),
(377,-80,o),
(398,-80,cs),
(425,-80,o),
(435,-39,o),
(439,-24,cs),
(441,-19,ls),
(442,-15,o),
(446,-12,o),
(455,-11,cs),
(583,12,o),
(655,85,o),
(654,162,cs),
(653,285,o),
(533,346,o),
(404,346,cs),
(326,346,o),
(302,362,o),
(302,398,cs),
(302,429,o),
(321,454,o),
(366,454,cs),
(411,454,o),
(510,429,o),
(574,429,cs),
(664,429,o),
(711,477,o),
(711,568,cs),
(711,700,o),
(625,751,o),
(505,784,cs),
(496,786,o),
(492,791,o),
(492,801,cs),
(487,886,o),
(442,913,o),
(395,913,cs),
(345,913,o),
(302,883,o),
(298,795,cs),
(298,786,o),
(294,780,o),
(285,778,cs),
(110,740,o),
(20,618,o),
(20,467,cs),
(20,275,o),
(167,196,o),
(399,196,cs),
(485,196,o),
(494,171,o),
(494,154,cs),
(494,112,o),
(435,86,o),
(353,86,cs),
(264,86,o),
(200,116,o),
(169,129,cs),
(155,135,o),
(143,139,o),
(131,139,cs),
(103,139,o),
(80,116,o),
(80,88,cs),
(80,15,o),
(240,-12,o),
(339,-14,cs),
(348,-14,o),
(353,-18,o),
(356,-26,cs)
);
}
);
width = 721;
},
{
associatedMasterId = "49F060A0-2273-4F54-8B81-08E0B15B03EC";
layerId = "30D678E6-DC02-4BE1-B185-57D1450A424A";
name = "26 Mar 24 at 13:21";
shapes = (
{
closed = 1;
nodes = (
(352,-41,o),
(363,-80,o),
(388,-80,cs),
(417,-80,o),
(427,-31,o),
(431,-19,cs),
(432,-16,o),
(434,-13,o),
(449,-10,cs),
(576,13,o),
(644,83,o),
(644,168,cs),
(644,281,o),
(523,346,o),
(394,346,cs),
(316,346,o),
(292,362,o),
(292,398,cs),
(292,429,o),
(311,454,o),
(356,454,cs),
(401,454,o),
(500,429,o),
(564,429,cs),
(655,429,o),
(701,477,o),
(701,570,cs),
(701,699,o),
(613,752,o),
(498,783,cs),
(487,786,o),
(482,790,o),
(482,801,cs),
(482,886,o),
(432,913,o),
(385,913,cs),
(335,913,o),
(288,883,o),
(288,795,cs),
(288,786,o),
(284,780,o),
(275,778,cs),
(100,740,o),
(10,618,o),
(10,467,cs),
(10,275,o),
(157,196,o),
(389,196,cs),
(475,196,o),
(484,171,o),
(484,154,cs),
(484,112,o),
(430,86,o),
(339,86,cs),
(210,86,o),
(167,139,o),
(122,139,cs),
(93,139,o),
(70,116,o),
(70,88,cs),
(70,15,o),
(230,-14,o),
(329,-14,cs),
(339,-14,o),
(343,-19,o),
(346,-26,cs)
);
}
);
width = 711;
}
);
metricLeft = S;
metricRight = S;
unicode = 36;
userData = {
KernOnSpecialSpacing = {
L = symbols;
R = symbols;
};
};
}
{
color = 10;
glyphname = percent;
kernLeft = KO_percent;
layers = (
{
associatedMasterId = "49F060A0-2273-4F54-8B81-08E0B15B03EC";
backgroundImage = {
imagePath = "/Volumes/ADAM-DOC/DOCUMENTS/Google-project_african languages/20octobre/23 October2023/28 October2023/From-Lisa/new_correction_2023:12:19/Screenshot 2023-12-22 at 18.20.01.png";
locked = 1;
pos = (-19,-206);
scale = (10.774,10.774);
};
layerId = "D64326FE-7C3C-440C-B205-AFC8CF3BECBF";
name = "11 Jan 24 at 09:28";
shapes = (
{
closed = 1;
nodes = (
(173,-4,o),
(169,13,o),
(182,54,c),
(283,346,o),
(369,573,o),
(424,701,cs),
(471,801,o),
(522,818,o),
(571,795,cs),
(620,772,o),
(640,722,o),
(593,622,cs),
(530,497,o),
(412,286,o),
(253,21,c),
(229,-15,o),
(214,-24,o),
(193,-14,cs)
);
},
{
closed = 1;
nodes = (
(8,444,o),
(71,384,o),
(161,384,cs),
(254,384,o),
(314,445,o),
(314,587,cs),
(314,735,o),
(275,785,o),
(161,785,cs),
(46,785,o),
(8,735,o),
(8,587,c)
);
},
{
closed = 1;
nodes = (
(203,453,o),
(188,439,o),
(160,439,cs),
(132,439,o),
(118,453,o),
(118,523,cs),
(118,593,o),
(131,608,o),
(161,608,cs),
(191,608,o),
(203,592,o),
(203,523,cs)
);
},
{
closed = 1;
nodes = (
(451,31,o),
(484,-1,o),
(533,-1,cs),
(582,-1,o),
(614,32,o),
(614,107,cs),
(614,187,o),
(594,213,o),
(533,213,cs),
(471,213,o),
(451,187,o),
(451,107,c)
);
},
{
closed = 1;
nodes = (
(555,36,o),
(547,28,o),
(532,28,cs),
(517,28,o),
(510,36,o),
(510,73,cs),
(510,111,o),
(517,119,o),
(532,119,cs),
(549,119,o),
(555,110,o),
(555,73,cs)
);
}
);
width = 675;
},
{
layerId = "49F060A0-2273-4F54-8B81-08E0B15B03EC";
name = Regular;
shapes = (
{
closed = 1;
nodes = (
(198,-12,o),
(203,-14,o),
(208,-14,cs),
(222,-14,o),
(236,-3,o),
(253,25,cs),
(412,290,o),
(530,501,o),
(593,626,cs),
(612,665,o),
(620,697,o),
(620,723,cs),
(620,761,o),
(601,785,o),
(571,799,cs),
(559,805,o),
(546,808,o),
(534,808,cs),
(496,808,o),
(459,780,o),
(424,705,cs),
(369,577,o),
(283,350,o),
(182,58,cs),
(177,42,o),
(174,30,o),
(174,20,cs),
(174,5,o),
(181,-4,o),
(193,-10,cs)
);
},
{
closed = 1;
nodes = (
(518,41,o),
(504,51,o),
(504,100,cs),
(504,149,o),
(517,160,o),
(547,160,cs),
(577,160,o),
(589,149,o),
(589,100,cs),
(589,51,o),
(574,41,o),
(546,41,cs)
);
},
{
closed = 1;
nodes = (
(620,-14,o),
(668,30,o),
(668,132,cs),
(668,239,o),
(637,275,o),
(546,275,cs),
(455,275,o),
(424,239,o),
(424,132,cs),
(424,30,o),
(475,-14,o),
(546,-14,cs)
);
},
{
closed = 1;
nodes = (
(132,439,o),
(118,453,o),
(118,523,cs),
(118,593,o),
(131,608,o),
(161,608,cs),
(191,608,o),
(203,592,o),
(203,523,cs),
(203,453,o),
(188,439,o),
(160,439,cs)
);
},
{
closed = 1;
nodes = (
(254,384,o),
(314,445,o),
(314,587,cs),
(314,735,o),
(275,785,o),
(161,785,cs),
(46,785,o),
(8,735,o),
(8,587,cs),
(8,444,o),
(71,384,o),
(161,384,cs)
);
}
);
width = 675;
}
);
unicode = 37;
userData = {
KernOnSpecialSpacing = {
L = "spaced-off";
};
};
}
{
color = 10;
glyphname = ampersand;
kernLeft = KO_ampersand;
kernRight = KO_ampersand;
layers = (
{
associatedMasterId = "49F060A0-2273-4F54-8B81-08E0B15B03EC";
backgroundImage = {
imagePath = "/Volumes/ADAM-DOC/DOCUMENTS/Google-project_african languages/20octobre/23 October2023/28 October2023/From-Lisa/new_correction_2023:12:19/Screenshot 2023-12-22 at 18.20.09.png";
locked = 1;
pos = (-59,-183);
scale = (10.6889,10.6889);
};
layerId = "B1F546D8-1FB7-4166-95D6-F46F1EB7FDF1";
name = "9 Feb 24 at 02:36";
shapes = (
{
closed = 1;
nodes = (
(368,-15,o),
(423,3,o),
(442,13,cs),
(448,16,o),
(454,20,o),
(458,20,cs),
(463,20,o),
(465,15,o),
(469,8,cs),
(491,-29,o),
(544,-21,o),
(544,16,cs),
(544,42,o),
(520,57,o),
(520,75,cs),
(520,93,o),
(544,164,o),
(549,199,cs),
(555,238,o),
(549,305,o),
(495,305,cs),
(464,305,o),
(450,288,o),
(450,257,cs),
(450,229,o),
(462,214,o),
(458,165,cs),
(454,119,o),
(438,68,o),
(326,68,cs),
(267,68,o),
(235,91,o),
(235,132,cs),
(235,142,o),
(237,178,o),
(306,178,cs),
(342,178,o),
(361,197,o),
(361,221,cs),
(361,246,o),
(342,265,o),
(306,265,cs),
(238,265,o),
(226,304,o),
(226,325,cs),
(226,351,o),
(244,371,o),
(280,371,cs),
(305,371,o),
(376,361,o),
(424,361,cs),
(445,361,o),
(467,363,o),
(484,371,cs),
(515,386,o),
(530,426,o),
(530,474,cs),
(530,604,o),
(398,672,o),
(280,672,c),
(135,672,o),
(30,568,o),
(30,424,cs),
(30,377,o),
(25,263,o),
(112,236,cs),
(128,231,o),
(152,234,o),
(152,215,cs),
(152,208,o),
(152,196,o),
(135,195,cs),
(100,193,o),
(72,158,o),
(72,107,cs),
(72,25,o),
(156,-15,o),
(284,-15,cs)
);
}
);
width = 597;
},
{
layerId = "49F060A0-2273-4F54-8B81-08E0B15B03EC";
name = Regular;
shapes = (
{
closed = 1;
nodes = (
(363,-14,o),
(418,3,o),
(437,13,cs),
(443,16,o),
(449,20,o),
(453,20,cs),
(458,20,o),
(460,15,o),
(464,8,cs),
(474,-9,o),
(490,-14,o),
(505,-14,cs),
(523,-14,o),
(539,-4,o),
(539,16,cs),
(539,42,o),
(515,57,o),
(515,75,cs),
(515,115,o),
(546,184,o),
(546,224,cs),
(546,261,o),
(534,305,o),
(490,305,cs),
(459,305,o),
(445,288,o),
(445,257,cs),
(445,233,o),
(454,219,o),
(454,184,cs),
(454,101,o),
(414,68,o),
(321,68,cs),
(262,68,o),
(230,91,o),
(230,132,cs),
(230,142,o),
(232,178,o),
(301,178,cs),
(337,178,o),
(356,197,o),
(356,221,cs),
(356,246,o),
(337,265,o),
(301,265,cs),
(233,265,o),
(221,304,o),
(221,325,cs),
(221,351,o),
(239,371,o),
(275,371,cs),
(300,371,o),
(371,361,o),
(419,361,cs),
(440,361,o),
(462,363,o),
(479,371,cs),
(510,386,o),
(525,426,o),
(525,474,cs),
(525,604,o),
(393,672,o),
(275,672,cs),
(130,672,o),
(25,568,o),
(25,424,cs),
(25,377,o),
(20,263,o),
(107,236,cs),
(123,231,o),
(147,234,o),
(147,215,cs),
(147,208,o),
(147,196,o),
(130,195,cs),
(95,193,o),
(67,158,o),
(67,107,cs),
(67,25,o),
(151,-14,o),
(279,-14,cs)
);
}
);
width = 571;
}
);
unicode = 38;
userData = {
KernOnSpecialSpacing = {
L = symbols;
R = symbols;
};
};
}
{
color = 10;
glyphname = quotesingle;
kernLeft = KO_quotedbl;
kernRight = KO_quotedbl;
layers = (
{
layerId = "49F060A0-2273-4F54-8B81-08E0B15B03EC";
shapes = (
{
closed = 1;
nodes = (
(99,524,o),
(112,543,o),
(127,600,cs),
(133,624,o),
(144,669,o),
(144,723,cs),
(144,785,o),
(116,812,o),
(77,812,cs),
(38,812,o),
(10,785,o),
(10,723,cs),
(10,669,o),
(21,624,o),
(27,600,cs),
(42,543,o),
(55,524,o),
(77,524,cs)
);
}
);
width = 154;
}
);
unicode = 39;
userData = {
KernOnSpecialSpacing = {
L = quotes;
R = quotes;
};
};
}
{
color = 10;
glyphname = parenleft;
kernLeft = KO_parenleft;
kernRight = KO_parenleft;
layers = (
{
layerId = "49F060A0-2273-4F54-8B81-08E0B15B03EC";
shapes = (
{
closed = 1;
nodes = (
(190,267,o),
(213,371,o),
(286,508,c),
(312,563,o),
(353,629,o),
(353,676,cs),
(353,756,o),
(296,800,o),
(231,800,cs),
(69,800,o),
(25,489,o),
(25,351,cs),
(25,205,o),
(68,84,o),
(142,-25,cs),
(178,-77,o),
(208,-100,o),
(232,-100,cs),
(263,-100,o),
(278,-77,o),
(278,-57,cs),
(278,-41,o),
(268,-19,o),
(248,21,cs),
(227,68,o),
(188,142,o),
(190,223,cs)
);
}
);
width = 383;
}
);
unicode = 40;
userData = {
KernOnName = parenleft;
KernOnSpecialSpacing = {
R = parenthesis;
};
};
}
{
color = 10;
glyphname = parenright;
kernLeft = KO_parenright;
kernRight = KO_parenright;
layers = (
{
associatedMasterId = "49F060A0-2273-4F54-8B81-08E0B15B03EC";
layerId = "4DE0B08D-851F-4743-AC53-FE3FB92EDE09";
name = "26 Mar 24 at 11:52";
shapes = (
{
closed = 1;
nodes = (
(195,142,o),
(156,68,o),
(135,21,cs),
(115,-19,o),
(105,-41,o),
(105,-57,cs),
(105,-69,o),
(109,-83,o),
(127,-94,cs),
(137,-100,o),
(144,-100,o),
(151,-100,cs),
(175,-100,o),
(205,-77,o),
(241,-25,cs),
(315,84,o),
(358,205,o),
(358,351,cs),
(358,418,o),
(350,490,o),
(331,567,cs),
(294,725,o),
(239,800,o),
(152,800,cs),
(87,800,o),
(30,756,o),
(30,676,cs),
(30,629,o),
(71,563,o),
(97,508,c),
(170,371,o),
(193,267,o),
(193,223,cs)
);
}
);
width = 383;
},
{
layerId = "49F060A0-2273-4F54-8B81-08E0B15B03EC";
name = Regular;
shapes = (
{
pos = (383,0);
ref = parenleft;
scale = (-1,1);
}
);
width = 383;
}
);
unicode = 41;
userData = {
KernOnName = parenright;
KernOnSpecialSpacing = {
L = parenthesis;
};
};
}
{
color = 10;
glyphname = asterisk;
kernLeft = KO_asterisk;
kernRight = KO_asterisk;
layers = (
{
layerId = "49F060A0-2273-4F54-8B81-08E0B15B03EC";
shapes = (
{
closed = 1;
nodes = (
(366,518,cs),
(366,523,o),
(369,527,o),
(375,529,cs),
(439,557,o),
(460,583,o),
(460,608,cs),
(460,633,o),
(439,670,o),
(403,670,cs),
(388,670,o),
(369,664,o),
(346,650,cs),
(338,645,o),
(337,653,o),
(337,657,cs),
(337,673,ls),
(337,754,o),
(291,800,o),
(236,800,cs),
(183,800,o),
(136,754,o),
(136,673,cs),
(136,655,ls),
(136,648,o),
(133,646,o),
(128,648,cs),
(104,659,o),
(84,664,o),
(68,664,cs),
(29,664,o),
(12,631,o),
(12,607,cs),
(12,580,o),
(34,555,o),
(93,530,cs),
(99,527,o),
(102,523,o),
(102,519,cs),
(102,515,o),
(100,510,o),
(95,506,cs),
(67,481,o),
(36,458,o),
(36,435,cs),
(36,423,o),
(46,406,o),
(64,406,cs),
(73,406,o),
(86,410,o),
(104,419,cs),
(116,425,o),
(128,432,o),
(142,440,cs),
(145,442,o),
(148,443,o),
(152,443,cs),
(158,443,o),
(163,439,o),
(166,430,cs),
(192,341,o),
(208,321,o),
(236,321,cs),
(265,321,o),
(281,341,o),
(305,428,cs),
(308,437,o),
(312,441,o),
(318,441,cs),
(321,441,o),
(324,440,o),
(328,438,cs),
(339,432,o),
(351,425,o),
(363,419,cs),
(381,410,o),
(394,406,o),
(403,406,cs),
(421,406,o),
(431,422,o),
(431,435,cs),
(431,456,o),
(404,477,o),
(373,506,cs),
(368,510,o),
(366,515,o)
);
}
);
width = 472;
},
{
associatedMasterId = "49F060A0-2273-4F54-8B81-08E0B15B03EC";
layerId = "ACE89B23-118D-4317-BBF6-28CD4444DCEF";
name = "6 Dec 23 at 04:48";
shapes = (
{
closed = 1;
nodes = (
(360,467,o),
(380,460,o),
(405,452,cs),
(431,444,o),
(443,447,o),
(448,460,cs),
(454,474,o),
(449,482,o),
(424,497,cs),
(408,506,o),
(392,516,o),
(377,525,cs),
(362,535,o),
(367,548,o),
(379,554,cs),
(420,574,o),
(466,600,o),
(444,650,cs),
(432,679,o),
(392,702,o),
(359,682,cs),
(328,663,o),
(336,679,o),
(336,694,cs),
(336,761,o),
(285,800,o),
(236,800,cs),
(183,800,o),
(136,754,o),
(136,656,cs),
(136,641,o),
(127,635,o),
(111,639,cs),
(60,655,o),
(25,640,o),
(13,611,cs),
(-1,578,o),
(10,544,o),
(95,508,cs),
(111,501,o),
(112,487,o),
(96,479,cs),
(82,472,o),
(67,464,o),
(52,455,cs),
(27,440,o),
(22,432,o),
(28,418,cs),
(33,405,o),
(45,402,o),
(71,410,cs),
(97,418,o),
(121,425,o),
(144,433,cs),
(158,437,o),
(167,431,o),
(170,418,cs),
(178,385,o),
(188,321,o),
(236,321,cs),
(265,321,o),
(281,341,o),
(292,378,cs),
(297,394,o),
(306,431,o),
(313,459,cs),
(316,472,o),
(325,478,o),
(339,474,cs)
);
}
);
width = 472;
}
);
unicode = 42;
userData = {
KernOnSpecialSpacing = {
L = quotes;
R = quotes;
};
};
}
{
color = 10;
glyphname = plus;
kernLeft = KO_plus;
kernRight = KO_plus;
layers = (
{
associatedMasterId = "49F060A0-2273-4F54-8B81-08E0B15B03EC";
layerId = "46EADEC6-DEAC-48CA-AB69-7ED66646A45D";
name = "9 Mar 24 at 11:31";
shapes = (
{
closed = 1;
nodes = (
(298,-3,o),
(317,20,o),
(331,51,cs),
(351,97,o),
(359,162,o),
(365,194,cs),
(368,207,o),
(371,207,o),
(389,210,cs),
(422,216,o),
(458,222,o),
(484,232,cs),
(506,241,o),
(521,254,o),
(521,273,cs),
(521,293,o),
(505,305,o),
(482,313,cs),
(458,322,o),
(427,327,o),
(397,335,cs),
(392,336,o),
(383,338,o),
(383,354,cs),
(383,359,o),
(384,379,o),
(384,392,cs),
(384,486,o),
(332,537,o),
(271,537,cs),
(211,537,o),
(158,487,o),
(158,392,cs),
(158,379,o),
(159,376,o),
(159,360,cs),
(159,355,o),
(156,352,o),
(151,352,cs),
(126,352,o),
(100,348,o),
(82,343,cs),
(43,332,o),
(20,307,o),
(20,272,cs),
(20,236,o),
(45,216,o),
(86,204,cs),
(106,198,o),
(131,194,o),
(168,194,cs),
(173,194,o),
(175,192,o),
(176,187,cs),
(184,150,o),
(192,91,o),
(210,49,cs),
(223,19,o),
(242,-3,o),
(269,-3,cs)
);
}
);
width = 541;
},
{
layerId = "49F060A0-2273-4F54-8B81-08E0B15B03EC";
name = Regular;
shapes = (
{
closed = 1;
nodes = (
(369,195,o),
(370,204,o),
(386,208,cs),
(414,215,o),
(403,212,o),
(426,217,cs),
(513,236,o),
(540,250,o),
(540,278,cs),
(540,307,o),
(510,319,o),
(420,337,cs),
(400,341,ls),
(395,342,o),
(382,348,o),
(382,362,cs),
(382,368,o),
(382,373,o),
(382,378,cs),
(382,526,o),
(332,567,o),
(269,567,cs),
(206,567,o),
(156,527,o),
(156,392,cs),
(156,382,o),
(156,377,o),
(156,373,cs),
(156,360,o),
(146,354,o),
(136,353,cs),
(56,345,o),
(16,318,o),
(16,272,cs),
(16,220,o),
(63,194,o),
(156,194,cs),
(163,194,o),
(172,191,o),
(175,179,cs),
(176,175,o),
(184,140,o),
(188,123,cs),
(208,38,o),
(235,0,o),
(276,0,cs),
(314,0,o),
(339,40,o),
(357,131,cs),
(359,141,o),
(363,162,o),
(368,191,c)
);
}
);
width = 556;
}
);
unicode = 43;
userData = {
KernOnSpecialSpacing = {
L = math;
R = math;
};
};
}
{
color = 10;
glyphname = comma;
kernLeft = KO_comma;
layers = (
{
anchors = (
{
name = _top;
pos = (93,112);
}
);
associatedMasterId = "49F060A0-2273-4F54-8B81-08E0B15B03EC";
layerId = "6C37E79E-72A4-431C-ABC1-1C4D966A980F";
name = "11 Jan 24 at 09:45";
shapes = (
{
closed = 1;
nodes = (
(9,18,o),
(17,-11,o),
(40,-20,cs),
(57,-27,o),
(60,-43,o),
(46,-58,cs),
(27,-79,o),
(21,-103,o),
(32,-119,cs),
(43,-135,o),
(67,-139,o),
(98,-119,cs),
(143,-89,o),
(163,-30,o),
(163,22,cs),
(163,86,o),
(138,118,o),
(89,118,cs),
(36,118,o),
(9,91,o),
(9,39,cs)
);
}
);
width = 172;
},
{
anchors = (
{
name = _top;
pos = (129,0);
}
);
layerId = "49F060A0-2273-4F54-8B81-08E0B15B03EC";
name = Regular;
shapes = (
{
closed = 1;
nodes = (
(180,-200,o),
(245,-56,o),
(245,43,cs),
(245,123,o),
(212,191,o),
(135,191,cs),
(49,191,o),
(16,130,o),
(16,72,cs),
(16,28,o),
(35,-13,o),
(64,-25,cs),
(76,-33,o),
(82,-44,o),
(82,-56,cs),
(82,-66,o),
(78,-77,o),
(70,-87,cs),
(52,-108,o),
(43,-131,o),
(43,-152,cs),
(43,-179,o),
(63,-200,o),
(89,-200,cs)
);
}
);
width = 246;
}
);
unicode = 44;
userData = {
KernOnName = comma;
KernOnSpecialSpacing = {
L = period;
R = period;
};
};
}
{
color = 10;
glyphname = hyphen;
kernLeft = KO_hyphen;
kernRight = KO_hyphen;
layers = (
{
layerId = "49F060A0-2273-4F54-8B81-08E0B15B03EC";
shapes = (
{
closed = 1;
nodes = (
(266,234,o),
(330,247,o),
(357,254,cs),
(414,269,o),
(437,287,o),
(437,310,cs),
(437,334,o),
(416,347,o),
(353,363,cs),
(336,366,o),
(273,379,o),
(193,379,cs),
(98,379,o),
(72,347,o),
(72,306,cs),
(72,263,o),
(100,234,o),
(197,234,cs)
);
}
);
width = 509;
}
);
unicode = 45;
userData = {
KernOnName = hyphen;
KernOnSpecialSpacing = {
L = hyphen;
R = hyphen;
};
};
}
{
color = 10;
glyphname = period;
kernLeft = KO_period;
kernRight = KO_period;
layers = (
{
guides = (
{
pos = (374,670);
}
);
layerId = "49F060A0-2273-4F54-8B81-08E0B15B03EC";
shapes = (
{
closed = 1;
nodes = (
(212,-14,o),
(254,28,o),
(254,82,cs),
(254,137,o),
(212,179,o),
(152,179,cs),
(93,179,o),
(50,137,o),
(50,82,cs),
(50,28,o),
(93,-14,o),
(152,-14,cs)
);
}
);
width = 304;
}
);
unicode = 46;
userData = {
KernOnName = period;
KernOnSpecialSpacing = {
L = period;
R = period;
};
};
}
{
color = 10;
glyphname = slash;
kernLeft = KO_slash;
kernRight = KO_slash;
layers = (
{
layerId = "49F060A0-2273-4F54-8B81-08E0B15B03EC";
shapes = (
{
closed = 1;
nodes = (
(35,-32,o),
(44,-32,cs),
(58,-32,o),
(72,-21,o),
(89,7,cs),
(248,272,o),
(366,483,o),
(429,608,cs),
(448,647,o),
(456,679,o),
(456,705,cs),
(456,760,o),
(410,790,o),
(370,790,cs),
(332,790,o),
(295,762,o),
(260,687,cs),
(205,559,o),
(119,332,o),
(18,40,cs),
(13,24,o),
(10,12,o),
(10,2,cs),
(10,-26,o)
);
}
);
width = 466;
}
);
unicode = 47;
userData = {
KernOnSpecialSpacing = {
L = slash;
R = slash;
};
};
}
{
color = 10;
glyphname = zero;
kernLeft = KO_zero;
kernRight = KO_zero;
layers = (
{
layerId = "49F060A0-2273-4F54-8B81-08E0B15B03EC";
shapes = (
{
closed = 1;
nodes = (
(501,-14,o),
(619,108,o),
(619,391,cs),
(619,687,o),
(543,786,o),
(315,786,cs),
(86,786,o),
(10,687,o),
(10,391,c),
(10,107,o),
(135,-14,o),
(315,-14,cs)
);
},
{
closed = 1;
nodes = (
(257,96,o),
(230,125,o),
(230,263,cs),
(230,403,o),
(256,434,o),
(314,434,cs),
(375,434,o),
(398,402,o),
(398,264,cs),
(398,125,o),
(368,96,o),
(313,96,cs)
);
}
);
width = 629;
}
);
unicode = 48;
}
{
color = 10;
glyphname = one;
kernLeft = KO_one;
kernRight = KO_one;
layers = (
{
associatedMasterId = "49F060A0-2273-4F54-8B81-08E0B15B03EC";
backgroundImage = {
imagePath = "/Volumes/ADAM-DOC/DOCUMENTS/Google-project_african languages/20octobre/23 October2023/28 October2023/From-Lisa/new_correction_2023:12:19/Screenshot 2023-12-23 at 09.28.44.png";
pos = (-141,-304);
scale = (7.5794,7.5794);
};
layerId = "266BDDC2-9474-49AD-A8C4-933202EEEEE2";
name = "11 Jan 24 at 12:38";
shapes = (
{
closed = 1;
nodes = (
(513,785,o),
(569,714,o),
(569,550,cs),
(569,409,o),
(528,175,o),
(498,79,cs),
(480,21,o),
(457,-15,o),
(416,-15,cs),
(365,-15,o),
(341,39,o),
(333,106,cs),
(325,169,o),
(324,299,o),
(321,369,cs),
(320,391,o),
(319,401,o),
(312,401,cs),
(309,401,o),
(300,397,o),
(284,386,cs),
(240,356,o),
(192,308,o),
(141,308,cs),
(105,308,o),
(69,332,o),
(38,388,cs),
(18,424,o),
(7,460,o),
(7,495,cs),
(7,581,o),
(73,678,o),
(183,734,cs),
(241,764,o),
(317,785,o),
(386,785,cs)
);
}
);
width = 590;
},
{
associatedMasterId = "49F060A0-2273-4F54-8B81-08E0B15B03EC";
backgroundImage = {
imagePath = "/Volumes/ADAM-DOC/DOCUMENTS/Google-project_african languages/20octobre/23 October2023/28 October2023/From-Lisa/new_correction_2023:12:19/Screenshot 2023-12-23 at 09.28.44.png";
pos = (-141,-304);
scale = (7.5794,7.5794);
};
layerId = "617D72D4-73B8-498F-8A83-E5DC90AB8AF3";
name = "6 Feb 24 at 16:26";
shapes = (
{
closed = 1;
nodes = (
(457,-15,o),
(480,21,o),
(498,79,cs),
(528,175,o),
(569,410,o),
(569,549,cs),
(569,711,o),
(513,785,o),
(392,785,cs),
(317,785,o),
(238,757,o),
(183,723,cs),
(94,668,o),
(53,587,o),
(53,516,cs),
(53,436,o),
(105,366,o),
(190,366,cs),
(223,366,o),
(257,377,o),
(277,386,cs),
(284,389,o),
(293,394,o),
(304,394,cs),
(317,394,o),
(320,384,o),
(321,369,cs),
(323,338,o),
(324,177,o),
(333,106,cs),
(341,39,o),
(365,-15,o),
(416,-15,cs)
);
}
);
width = 590;
},
{
layerId = "49F060A0-2273-4F54-8B81-08E0B15B03EC";
name = Regular;
shapes = (
{
closed = 1;
nodes = (
(457,-14,o),
(480,22,o),
(498,80,cs),
(528,176,o),
(569,411,o),
(569,550,cs),
(569,712,o),
(513,786,o),
(392,786,cs),
(317,786,o),
(238,758,o),
(183,724,cs),
(94,669,o),
(53,588,o),
(53,517,cs),
(53,437,o),
(105,367,o),
(190,367,cs),
(223,367,o),
(257,378,o),
(277,387,cs),
(284,390,o),
(293,395,o),
(304,395,cs),
(317,395,o),
(320,385,o),
(321,370,cs),
(323,339,o),
(324,178,o),
(333,107,cs),
(341,40,o),
(365,-14,o),
(416,-14,cs)
);
}
);
width = 590;
}
);
unicode = 49;
}
{
color = 10;
glyphname = two;
kernLeft = KO_two;
kernRight = KO_two;
layers = (
{
associatedMasterId = "49F060A0-2273-4F54-8B81-08E0B15B03EC";
layerId = "075C1757-9EEE-4335-94FA-8B0EDF26B006";
name = "22 Nov 23 at 19:58";
shapes = (
{
closed = 1;
nodes = (
(375,165,o),
(486,226,o),
(555,336,cs),
(600,408,o),
(611,475,o),
(611,533,cs),
(611,682,o),
(539,790,o),
(322,790,cs),
(117,790,o),
(16,694,o),
(16,559,cs),
(16,493,o),
(40,456,o),
(70,437,cs),
(136,395,o),
(221,439,o),
(275,446,cs),
(349,455,o),
(373,408,o),
(327,353,cs),
(262,275,o),
(147,181,o),
(125,157,cs),
(100,130,o),
(50,105,o),
(73,24,cs),
(80,0,o),
(88,-9,o),
(144,-12,cs),
(223,-15,o),
(430,-7,o),
(474,-7,cs),
(511,-7,o),
(539,12,o),
(539,46,cs),
(539,77,o),
(516,98,o),
(468,98,cs),
(443,98,o),
(415,92,o),
(384,88,cs),
(353,84,o),
(285,75,o),
(267,82,cs),
(254,87,o),
(249,105,o),
(272,118,c)
);
}
);
width = 627;
},
{
associatedMasterId = "49F060A0-2273-4F54-8B81-08E0B15B03EC";
layerId = "DFBFCB1F-3FB8-4D63-8086-75014F059575";
name = "23 Nov 23 at 01:42";
shapes = (
{
closed = 1;
nodes = (
(254,-16,o),
(359,-15,o),
(430,-15,cs),
(472,-15,o),
(495,9,o),
(495,38,cs),
(495,68,o),
(472,91,o),
(430,91,cs),
(391,91,o),
(373,85,o),
(341,81,cs),
(314,78,o),
(287,75,o),
(267,82,cs),
(254,87,o),
(250,103,o),
(272,118,cs),
(371,182,o),
(393,187,o),
(506,282,cs),
(599,360,o),
(631,455,o),
(631,543,cs),
(631,701,o),
(506,788,o),
(315,788,cs),
(117,788,o),
(16,694,o),
(16,555,cs),
(16,495,o),
(35,454,o),
(70,437,cs),
(90,427,o),
(117,425,o),
(141,425,cs),
(199,425,o),
(268,437,o),
(316,437,cs),
(357,437,o),
(391,430,o),
(391,389,cs),
(391,368,o),
(382,353,o),
(359,334,cs),
(309,291,o),
(267,262,o),
(229,229,cs),
(188,195,o),
(141,151,o),
(122,131,cs),
(94,101,o),
(87,76,o),
(92,41,cs),
(97,6,o),
(125,-16,o),
(183,-16,cs)
);
}
);
width = 647;
},
{
associatedMasterId = "49F060A0-2273-4F54-8B81-08E0B15B03EC";
backgroundImage = {
imagePath = "/Volumes/ADAM-DOC/DOCUMENTS/Google-project_african languages/20octobre/23 October2023/28 October2023/From-Lisa/new_correction_2023:12:19/Screenshot 2023-12-22 at 18.18.08.png";
locked = 1;
pos = (-96,-197);
scale = (15.7105,15.7105);
};
layerId = "C4BAA991-E772-49F8-8D89-F9144A9230D2";
name = "11 Jan 24 at 12:37";
shapes = (
{
closed = 1;
nodes = (
(374,221,o),
(438,245,o),
(529,317,cs),
(626,394,o),
(626,491,o),
(626,549,cs),
(626,673,o),
(539,789,o),
(322,789,cs),
(117,789,o),
(16,693,o),
(16,558,cs),
(16,473,o),
(59,418,o),
(137,418,cs),
(193,418,o),
(248,446,o),
(293,446,cs),
(330,446,o),
(350,429,o),
(350,404,cs),
(350,389,o),
(343,371,o),
(327,352,cs),
(262,274,o),
(139,203,o),
(117,179,cs),
(92,152,o),
(71,109,o),
(71,51,cs),
(71,27,o),
(75,-13,o),
(117,-13,cs),
(203,-13,o),
(434,-8,o),
(474,-8,cs),
(511,-8,o),
(539,14,o),
(539,48,cs),
(539,79,o),
(516,100,o),
(468,100,cs),
(443,100,o),
(299,85,o),
(268,84,cs),
(249,84,o),
(240,96,o),
(240,107,cs),
(240,124,o),
(255,137,o),
(271,146,c)
);
}
);
width = 642;
},
{
associatedMasterId = "49F060A0-2273-4F54-8B81-08E0B15B03EC";
backgroundImage = {
imagePath = "/Volumes/ADAM-DOC/DOCUMENTS/Google-project_african languages/20octobre/23 October2023/28 October2023/From-Lisa/new_correction_2023:12:19/Screenshot 2023-12-22 at 18.18.08.png";
pos = (-96,-197);
scale = (15.7105,15.7105);
};
layerId = "D354AA31-A44B-4701-B0D9-FB6047211C6F";
name = "6 Feb 24 at 16:27";
shapes = (
{
closed = 1;
nodes = (
(228,-12,o),
(434,-9,o),
(474,-9,cs),
(511,-9,o),
(539,6,o),
(539,39,cs),
(539,71,o),
(514,92,o),
(473,92,cs),
(437,92,o),
(301,76,o),
(268,76,cs),
(248,76,o),
(242,82,o),
(242,95,cs),
(242,109,o),
(250,112,o),
(265,123,cs),
(354,188,o),
(444,219,o),
(511,275,cs),
(618,364,o),
(626,483,o),
(626,529,cs),
(626,681,o),
(539,788,o),
(322,788,cs),
(117,788,o),
(16,692,o),
(16,557,cs),
(16,472,o),
(59,417,o),
(137,417,cs),
(193,417,o),
(247,445,o),
(294,445,cs),
(330,445,o),
(350,428,o),
(350,402,cs),
(350,336,o),
(195,243,o),
(142,190,cs),
(116,164,o),
(91,124,o),
(91,59,cs),
(91,33,o),
(95,-12,o),
(142,-12,cs)
);
}
);
width = 642;
},
{
layerId = "49F060A0-2273-4F54-8B81-08E0B15B03EC";
name = Regular;
shapes = (
{
closed = 1;
nodes = (
(228,-14,o),
(434,-14,o),
(474,-14,cs),
(511,-14,o),
(539,4,o),
(539,37,cs),
(539,69,o),
(514,90,o),
(473,90,cs),
(437,90,o),
(301,74,o),
(268,74,cs),
(248,74,o),
(242,80,o),
(242,93,cs),
(242,107,o),
(250,110,o),
(265,121,cs),
(354,186,o),
(444,217,o),
(511,273,cs),
(618,362,o),
(626,481,o),
(626,527,cs),
(626,679,o),
(539,786,o),
(322,786,cs),
(117,786,o),
(16,690,o),
(16,555,cs),
(16,470,o),
(59,415,o),
(137,415,cs),
(193,415,o),
(247,443,o),
(294,443,cs),
(330,443,o),
(350,426,o),
(350,400,cs),
(350,334,o),
(195,241,o),
(142,188,cs),
(116,162,o),
(91,122,o),
(91,57,cs),
(91,31,o),
(95,-14,o),
(142,-14,cs)
);
}
);
width = 636;
}
);
unicode = 50;
}
{
color = 10;
glyphname = three;
kernLeft = KO_three;
kernRight = KO_three;
layers = (
{
associatedMasterId = "49F060A0-2273-4F54-8B81-08E0B15B03EC";
layerId = "DE0E36C3-08AC-47B4-B5A6-A36B85E7B7DE";
name = "23 Nov 23 at 01:41";
shapes = (
{
closed = 1;
nodes = (
(129,787,o),
(28,693,o),
(28,554,cs),
(28,494,o),
(47,453,o),
(82,436,cs),
(102,426,o),
(129,424,o),
(153,424,cs),
(211,424,o),
(280,436,o),
(328,436,cs),
(369,436,o),
(403,427,o),
(403,382,cs),
(403,359,o),
(394,345,o),
(372,333,cs),
(335,313,o),
(316,286,o),
(316,253,cs),
(316,213,o),
(342,195,o),
(369,174,cs),
(383,163,o),
(392,150,o),
(392,135,cs),
(392,88,o),
(352,74,o),
(303,76,cs),
(267,77,o),
(226,86,o),
(194,96,cs),
(155,108,o),
(130,78,o),
(130,51,cs),
(130,-15,o),
(274,-17,o),
(301,-17,cs),
(471,-17,o),
(566,56,o),
(566,163,cs),
(566,233,o),
(518,267,o),
(481,281,cs),
(466,287,o),
(468,312,o),
(481,317,cs),
(596,359,o),
(626,454,o),
(626,542,cs),
(626,700,o),
(518,787,o),
(327,787,cs)
);
}
);
width = 656;
},
{
associatedMasterId = "49F060A0-2273-4F54-8B81-08E0B15B03EC";
layerId = "265E06A0-E116-4450-AE09-26964BCBF7EB";
name = "24 Nov 23 at 02:03";
shapes = (
{
closed = 1;
nodes = (
(129,787,o),
(28,693,o),
(28,554,cs),
(28,494,o),
(47,453,o),
(82,436,cs),
(102,426,o),
(129,424,o),
(153,424,cs),
(211,424,o),
(280,436,o),
(328,436,cs),
(369,436,o),
(403,427,o),
(403,382,cs),
(403,359,o),
(394,345,o),
(372,333,cs),
(335,313,o),
(316,286,o),
(316,253,cs),
(316,213,o),
(342,195,o),
(369,174,cs),
(383,163,o),
(392,150,o),
(392,135,cs),
(392,88,o),
(352,74,o),
(303,76,cs),
(267,77,o),
(226,86,o),
(194,96,cs),
(155,108,o),
(130,78,o),
(130,51,cs),
(130,-15,o),
(274,-17,o),
(301,-17,cs),
(471,-17,o),
(566,60,o),
(566,185,cs),
(566,226,o),
(556,255,o),
(534,281,cs),
(523,294,o),
(524,308,o),
(534,317,cs),
(592,372,o),
(626,454,o),
(626,542,cs),
(626,700,o),
(518,787,o),
(327,787,cs)
);
}
);
visible = 1;
width = 656;
},
{
associatedMasterId = "49F060A0-2273-4F54-8B81-08E0B15B03EC";
layerId = "C8072E75-0E18-4BEB-AACC-E09BFC6B3E69";
name = "23 Dec 23 at 09:21";
shapes = (
{
closed = 1;
nodes = (
(561,208,o),
(564,146,o),
(561,107,cs),
(555,29,o),
(451,-16,o),
(318,-16,cs),
(274,-16,o),
(130,-14,o),
(130,52,cs),
(130,79,o),
(155,109,o),
(194,97,cs),
(226,87,o),
(267,77,o),
(303,77,cs),
(352,77,o),
(392,89,o),
(392,124,cs),
(392,132,o),
(386,148,o),
(363,152,cs),
(323,160,o),
(190,147,o),
(190,261,cs),
(190,357,o),
(327,359,o),
(367,365,cs),
(384,368,o),
(396,381,o),
(396,406,cs),
(396,439,o),
(369,440,o),
(328,440,cs),
(280,440,o),
(211,428,o),
(153,428,cs),
(63,428,o),
(28,468,o),
(28,558,cs),
(28,697,o),
(129,788,o),
(327,788,cs),
(518,788,o),
(626,701,o),
(626,543,cs),
(626,455,o),
(600,302,o),
(490,302,cs),
(461,302,o),
(431,299,o),
(409,297,cs),
(398,295,o),
(367,289,o),
(367,259,cs),
(367,230,o),
(397,222,o),
(408,221,cs),
(430,219,o),
(457,216,o),
(487,213,c)
);
}
);
visible = 1;
width = 656;
},
{
associatedMasterId = "49F060A0-2273-4F54-8B81-08E0B15B03EC";
backgroundImage = {
imagePath = "/Volumes/ADAM-DOC/DOCUMENTS/Google-project_african languages/20octobre/23 October2023/28 October2023/From-Lisa/new_correction_2023:12:19/Screenshot 2023-12-22 at 18.18.13.png";
locked = 1;
pos = (-14,-117);
scale = (15.776,15.776);
};
layerId = "64124F0B-2B07-40C5-9A79-FA7EC7EB60F9";
name = "1 Feb 24 at 10:40";
shapes = (
{
closed = 1;
nodes = (
(450,-16,o),
(549,23,o),
(561,107,cs),
(566,142,o),
(559,208,o),
(488,213,cs),
(455,215,o),
(453,216,o),
(408,221,cs),
(390,223,o),
(367,234,o),
(367,259,cs),
(367,287,o),
(395,295,o),
(410,297,cs),
(418,298,o),
(459,302,o),
(490,302,cs),
(600,302,o),
(626,457,o),
(626,538,cs),
(626,704,o),
(517,788,o),
(326,788,cs),
(130,788,o),
(28,699,o),
(28,553,cs),
(28,468,o),
(63,428,o),
(155,428,cs),
(209,428,o),
(279,442,o),
(306,442,cs),
(327,442,o),
(348,434,o),
(348,409,cs),
(348,391,o),
(338,378,o),
(319,365,cs),
(272,333,o),
(194,317,o),
(194,252,cs),
(194,165,o),
(333,158,o),
(363,152,cs),
(388,147,o),
(392,134,o),
(392,124,cs),
(392,93,o),
(353,79,o),
(306,79,cs),
(266,79,o),
(226,89,o),
(194,99,cs),
(155,111,o),
(130,81,o),
(130,54,cs),
(130,-11,o),
(272,-16,o),
(311,-16,cs)
);
}
);
width = 656;
},
{
layerId = "49F060A0-2273-4F54-8B81-08E0B15B03EC";
name = Regular;
shapes = (
{
closed = 1;
nodes = (
(459,-14,o),
(562,30,o),
(562,127,cs),
(562,163,o),
(548,211,o),
(488,215,cs),
(455,217,o),
(453,218,o),
(408,223,cs),
(390,225,o),
(367,236,o),
(367,261,cs),
(367,289,o),
(395,297,o),
(410,299,cs),
(418,300,o),
(459,304,o),
(490,304,cs),
(600,304,o),
(626,459,o),
(626,540,cs),
(626,706,o),
(517,790,o),
(326,790,cs),
(130,790,o),
(28,701,o),
(28,555,cs),
(28,470,o),
(63,430,o),
(155,430,cs),
(209,430,o),
(279,444,o),
(306,444,cs),
(327,444,o),
(348,436,o),
(348,411,cs),
(348,369,o),
(285,350,o),
(250,330,cs),
(220,312,o),
(194,291,o),
(194,254,cs),
(194,219,o),
(217,196,o),
(246,182,cs),
(289,161,o),
(345,158,o),
(363,154,cs),
(388,149,o),
(392,136,o),
(392,126,cs),
(392,95,o),
(353,81,o),
(306,81,cs),
(257,81,o),
(202,103,o),
(181,103,cs),
(156,103,o),
(130,82,o),
(130,56,cs),
(130,-9,o),
(272,-14,o),
(311,-14,cs)
);
}
);
width = 656;
}
);
unicode = 51;
}
{
color = 10;
glyphname = four;
kernLeft = KO_four;
kernRight = KO_four;
layers = (
{
associatedMasterId = "49F060A0-2273-4F54-8B81-08E0B15B03EC";
layerId = "F8407491-EA15-4CB5-A4A3-AFDDB4050F70";
name = "23 Dec 23 at 09:47";
shapes = (
{
closed = 1;
nodes = (
(312,269,o),
(300,274,o),
(296,283,cs),
(290,294,o),
(297,310,o),
(304,322,cs),
(320,352,o),
(338,377,o),
(370,377,cs),
(389,377,o),
(402,368,o),
(402,323,cs),
(402,269,o),
(384,269,o),
(365,269,cs),
(329,269,ls)
);
},
{
closed = 0;
nodes = (
(621,266,l)
);
},
{
closed = 1;
nodes = (
(632,345,o),
(648,436,o),
(648,518,cs),
(648,664,o),
(598,786,o),
(445,786,cs),
(257,786,o),
(159,604,o),
(89,473,cs),
(50,400,o),
(32,340,o),
(32,292,cs),
(32,245,o),
(49,211,o),
(95,189,cs),
(150,163,o),
(246,153,o),
(402,153,cs),
(419,153,o),
(418,151,o),
(422,132,cs),
(441,37,o),
(472,-14,o),
(510,-14,cs),
(549,-14,o),
(575,41,o),
(597,141,cs),
(599,150,o),
(601,154,o),
(606,154,cs),
(665,154,o),
(673,189,o),
(673,214,cs),
(673,233,o),
(670,266,o),
(621,266,cs),
(613,266,o),
(616,275,o),
(617,280,cs)
);
}
);
width = 714;
},
{
layerId = "49F060A0-2273-4F54-8B81-08E0B15B03EC";
name = Regular;
shapes = (
{
closed = 1;
nodes = (
(549,-14,o),
(575,41,o),
(597,141,cs),
(599,150,o),
(601,154,o),
(606,154,cs),
(665,154,o),
(673,189,o),
(673,214,cs),
(673,233,o),
(670,266,o),
(621,266,cs),
(613,266,o),
(616,275,o),
(617,280,cs),
(632,345,o),
(648,436,o),
(648,518,cs),
(648,664,o),
(598,786,o),
(445,786,cs),
(257,786,o),
(159,604,o),
(89,473,cs),
(50,400,o),
(32,340,o),
(32,292,cs),
(32,245,o),
(49,211,o),
(95,189,cs),
(150,163,o),
(246,153,o),
(402,153,cs),
(419,153,o),
(418,151,o),
(422,132,cs),
(441,37,o),
(472,-14,o),
(510,-14,cs)
);
},
{
closed = 1;
nodes = (
(277,277,o),
(257,285,o),
(251,300,cs),
(241,318,o),
(253,344,o),
(264,364,cs),
(290,413,o),
(320,454,o),
(373,454,cs),
(404,454,o),
(425,440,o),
(425,366,cs),
(425,277,o),
(395,277,o),
(364,277,cs),
(305,277,ls)
);
},
{
closed = 0;
nodes = (
(621,266,l)
);
}
);
width = 714;
}
);
unicode = 52;
}
{
color = 10;
glyphname = five;
kernLeft = KO_five;
kernRight = KO_five;
layers = (
{
associatedMasterId = "49F060A0-2273-4F54-8B81-08E0B15B03EC";
layerId = "4A2EEA02-5D18-49CD-A5DF-1CCCE91BB598";
name = "24 Nov 23 at 00:50";
shapes = (
{
closed = 1;
nodes = (
(318,-10,o),
(315,-10,o),
(164,-12,cs),
(132,-13,o),
(112,11,o),
(112,39,cs),
(112,69,o),
(132,94,o),
(169,92,cs),
(337,81,ls),
(370,79,o),
(380,103,o),
(380,134,cs),
(380,160,o),
(373,186,o),
(242,186,cs),
(216,186,o),
(143,186,o),
(111,207,cs),
(77,230,o),
(42,295,o),
(42,439,cs),
(42,700,o),
(123,787,o),
(306,787,cs),
(501,786,o),
(600,692,o),
(600,561,cs),
(600,498,o),
(583,459,o),
(548,440,cs),
(528,431,o),
(505,428,o),
(476,428,cs),
(420,428,o),
(353,440,o),
(303,440,cs),
(262,440,o),
(230,425,o),
(232,377,cs),
(233,347,o),
(239,326,o),
(293,319,cs),
(384,307,o),
(511,290,o),
(511,162,cs),
(512,71,o),
(458,-4,o),
(321,-10,cs)
);
}
);
width = 624;
},
{
associatedMasterId = "49F060A0-2273-4F54-8B81-08E0B15B03EC";
backgroundImage = {
imagePath = "/Volumes/ADAM-DOC/DOCUMENTS/Google-project_african languages/20octobre/23 October2023/28 October2023/From-Lisa/new_correction_2023:12:19/Screenshot 2023-12-22 at 18.19.13.png";
locked = 1;
pos = (-50,-162);
scale = (15.2158,15.2158);
};
layerId = "286CB56D-76A1-4B83-9E9D-61C0B492B709";
name = "1 Feb 24 at 10:39";
shapes = (
{
closed = 1;
nodes = (
(516,-13,o),
(564,69,o),
(564,172,cs),
(564,301,o),
(482,334,o),
(414,334,cs),
(387,334,o),
(284,314,o),
(273,314,cs),
(245,314,o),
(231,333,o),
(231,373,cs),
(231,424,o),
(270,443,o),
(320,443,cs),
(378,443,o),
(432,425,o),
(476,425,cs),
(534,425,o),
(600,449,o),
(600,558,cs),
(600,710,o),
(546,784,o),
(306,784,cs),
(162,784,o),
(42,697,o),
(42,436,cs),
(42,316,o),
(86,258,o),
(95,246,cs),
(121,213,o),
(160,205,o),
(196,205,cs),
(227,205,o),
(266,210,o),
(303,210,cs),
(359,210,o),
(408,204,o),
(408,147,cs),
(408,94,o),
(370,81,o),
(304,83,c),
(234,85,o),
(193,95,o),
(161,105,cs),
(136,112,o),
(97,104,o),
(97,63,cs),
(97,4,o),
(263,-13,o),
(332,-13,cs)
);
}
);
width = 624;
},
{
associatedMasterId = "49F060A0-2273-4F54-8B81-08E0B15B03EC";
layerId = "1E7B9B4C-6A8C-4764-88D2-98AC42B625C3";
name = "17 Feb 24 at 00:36";
shapes = (
{
closed = 1;
nodes = (
(516,-13,o),
(564,69,o),
(564,172,cs),
(564,301,o),
(482,334,o),
(414,334,cs),
(387,334,o),
(284,314,o),
(273,314,cs),
(245,314,o),
(231,333,o),
(231,373,cs),
(231,424,o),
(270,443,o),
(320,443,cs),
(378,443,o),
(432,425,o),
(476,425,cs),
(534,425,o),
(600,449,o),
(600,558,cs),
(600,710,o),
(546,784,o),
(306,784,cs),
(162,784,o),
(42,697,o),
(42,436,cs),
(42,316,o),
(86,258,o),
(95,246,cs),
(143,186,o),
(226,210,o),
(303,210,cs),
(359,210,o),
(408,204,o),
(408,147,cs),
(408,94,o),
(370,81,o),
(304,83,cs),
(234,85,o),
(193,95,o),
(161,105,cs),
(138,112,o),
(97,105,o),
(97,63,cs),
(97,4,o),
(263,-13,o),
(332,-13,cs)
);
}
);
width = 624;
},
{
layerId = "49F060A0-2273-4F54-8B81-08E0B15B03EC";
name = Regular;
shapes = (
{
closed = 1;
nodes = (
(516,-14,o),
(564,69,o),
(564,173,cs),
(564,303,o),
(482,336,o),
(414,336,cs),
(387,336,o),
(284,316,o),
(273,316,cs),
(245,316,o),
(231,335,o),
(231,375,cs),
(231,427,o),
(270,446,o),
(320,446,cs),
(378,446,o),
(432,428,o),
(476,428,cs),
(534,428,o),
(600,452,o),
(600,562,cs),
(600,787,o),
(527,790,o),
(306,790,cs),
(162,790,o),
(42,702,o),
(42,439,cs),
(42,318,o),
(86,259,o),
(95,247,cs),
(121,214,o),
(160,206,o),
(196,206,cs),
(227,206,o),
(266,211,o),
(303,211,cs),
(359,211,o),
(408,205,o),
(408,147,cs),
(408,94,o),
(370,81,o),
(304,83,cs),
(234,85,o),
(193,95,o),
(161,105,cs),
(156,106,o),
(150,107,o),
(144,107,cs),
(121,107,o),
(97,95,o),
(97,63,cs),
(97,3,o),
(263,-14,o),
(332,-14,cs)
);
}
);
width = 624;
}
);
unicode = 53;
}
{
color = 10;
glyphname = six;
kernLeft = KO_six;
kernRight = KO_six;
layers = (
{
associatedMasterId = "49F060A0-2273-4F54-8B81-08E0B15B03EC";
layerId = "015CBB98-3EA6-44A8-9116-E6880F68E823";
name = "24 Nov 23 at 00:47";
shapes = (
{
closed = 1;
nodes = (
(299,70,o),
(266,93,o),
(266,131,cs),
(266,158,o),
(268,195,o),
(341,184,c),
(387,176,o),
(417,167,o),
(416,131,cs),
(415,86,o),
(393,70,o),
(346,70,cs)
);
},
{
closed = 1;
nodes = (
(20,357,o),
(70,-16,o),
(344,-14,cs),
(471,-13,o),
(528,64,o),
(528,158,cs),
(528,288,o),
(399,305,o),
(307,317,cs),
(252,324,o),
(246,345,o),
(245,376,cs),
(243,424,o),
(275,440,o),
(317,440,cs),
(368,440,o),
(435,428,o),
(492,428,cs),
(521,428,o),
(545,431,o),
(565,440,cs),
(600,459,o),
(618,498,o),
(618,562,cs),
(618,695,o),
(517,791,o),
(320,791,cs),
(170,791,o),
(20,703,o),
(20,416,cs)
);
}
);
width = 646;
},
{
layerId = "49F060A0-2273-4F54-8B81-08E0B15B03EC";
name = Regular;
shapes = (
{
closed = 1;
nodes = (
(471,-13,o),
(528,64,o),
(528,158,cs),
(528,288,o),
(399,305,o),
(307,317,cs),
(252,324,o),
(246,345,o),
(245,376,cs),
(243,424,o),
(275,440,o),
(317,440,cs),
(368,440,o),
(435,428,o),
(492,428,cs),
(521,428,o),
(545,431,o),
(565,440,cs),
(600,459,o),
(618,498,o),
(618,562,cs),
(618,695,o),
(518,791,o),
(340,791,cs),
(195,791,o),
(20,703,o),
(20,416,cs),
(20,357,o),
(70,-16,o),
(344,-14,cs)
);
},
{
closed = 1;
nodes = (
(293,77,o),
(272,96,o),
(267,138,cs),
(261,186,o),
(285,208,o),
(323,208,cs),
(378,208,o),
(405,162,o),
(409,131,cs),
(412,98,o),
(387,77,o),
(340,77,cs)
);
}
);
width = 646;
}
);
unicode = 54;
}
{
color = 10;
glyphname = seven;
kernLeft = KO_seven;
kernRight = KO_seven;
layers = (
{
associatedMasterId = "49F060A0-2273-4F54-8B81-08E0B15B03EC";
layerId = "27332CA4-922C-4C84-BB28-3CBFB737FAD7";
name = "24 Nov 23 at 00:42";
shapes = (
{
closed = 1;
nodes = (
(561,352,o),
(543,324,o),
(521,296,cs),
(474,237,o),
(310,60,o),
(277,25,c),
(239,-17,o),
(213,-32,o),
(188,-16,cs),
(163,0,o),
(155,32,o),
(176,67,cs),
(267,216,o),
(342,316,o),
(374,364,cs),
(379,371,o),
(386,382,o),
(386,391,cs),
(386,432,o),
(356,436,o),
(319,436,cs),
(255,436,o),
(198,424,o),
(137,424,cs),
(106,424,o),
(82,427,o),
(64,436,cs),
(29,453,o),
(10,495,o),
(10,554,cs),
(10,693,o),
(116,788,o),
(293,788,cs),
(600,788,o),
(626,508,o),
(573,379,cs)
);
}
);
width = 625;
},
{
layerId = "49F060A0-2273-4F54-8B81-08E0B15B03EC";
name = Regular;
shapes = (
{
closed = 1;
nodes = (
(231,-14,o),
(248,3,o),
(277,33,cs),
(310,68,o),
(474,245,o),
(521,304,cs),
(597,398,o),
(603,460,o),
(603,547,cs),
(603,620,o),
(593,710,o),
(557,745,cs),
(512,788,o),
(434,794,o),
(291,794,cs),
(242,794,o),
(105,788,o),
(64,757,cs),
(28,730,o),
(28,659,o),
(28,606,cs),
(28,495,o),
(31,430,o),
(143,430,cs),
(191,430,o),
(258,442,o),
(305,442,cs),
(344,442,o),
(356,428,o),
(356,411,cs),
(356,395,o),
(346,376,o),
(339,363,cs),
(291,276,o),
(305,300,o),
(176,75,cs),
(167,60,o),
(164,46,o),
(164,35,cs),
(164,10,o),
(185,-14,o),
(208,-14,cs)
);
}
);
width = 633;
}
);
unicode = 55;
}
{
color = 10;
glyphname = eight;
kernLeft = KO_eight;
kernRight = KO_eight;
layers = (
{
associatedMasterId = "49F060A0-2273-4F54-8B81-08E0B15B03EC";
layerId = "ACF05894-60D9-46C4-94FF-4073135B0669";
name = "24 Nov 23 at 00:36";
shapes = (
{
closed = 1;
nodes = (
(599,375,o),
(633,453,o),
(633,548,cs),
(633,702,o),
(525,790,o),
(333,790,cs),
(143,790,o),
(35,703,o),
(35,550,cs),
(35,455,o),
(69,377,o),
(128,322,cs),
(138,312,o),
(138,299,o),
(129,288,cs),
(107,263,o),
(96,232,o),
(96,195,cs),
(96,71,o),
(205,-10,o),
(337,-10,cs),
(466,-10,o),
(573,71,o),
(573,194,cs),
(573,231,o),
(561,261,o),
(539,286,cs),
(531,297,o),
(531,310,o),
(540,320,cs)
);
},
{
closed = 1;
nodes = (
(276,324,o),
(250,345,o),
(250,388,cs),
(250,429,o),
(276,451,o),
(336,451,cs),
(391,451,o),
(419,429,o),
(419,388,cs),
(419,345,o),
(391,324,o),
(336,324,cs)
);
},
{
closed = 1;
nodes = (
(290,88,o),
(270,104,o),
(270,136,cs),
(270,165,o),
(290,182,o),
(336,182,cs),
(378,182,o),
(399,165,o),
(399,136,cs),
(399,104,o),
(378,88,o),
(336,88,cs)
);
}
);
width = 668;
},
{
associatedMasterId = "49F060A0-2273-4F54-8B81-08E0B15B03EC";
layerId = "D8B56309-6AB9-4BDA-B3E2-FB03E24A5A47";
name = "5 Dec 23 at 02:09";
shapes = (
{
closed = 1;
nodes = (
(466,-10,o),
(573,71,o),
(573,194,cs),
(573,231,o),
(561,261,o),
(539,286,cs),
(531,297,o),
(531,310,o),
(540,320,cs),
(599,375,o),
(633,453,o),
(633,548,cs),
(633,702,o),
(525,790,o),
(333,790,cs),
(143,790,o),
(35,703,o),
(35,550,cs),
(35,455,o),
(69,377,o),
(128,322,cs),
(138,312,o),
(138,299,o),
(129,288,cs),
(107,263,o),
(96,232,o),
(96,195,cs),
(96,71,o),
(205,-10,o),
(337,-10,cs)
);
},
{
closed = 1;
nodes = (
(383,181,o),
(398,166,o),
(396,143,cs),
(394,121,o),
(377,88,o),
(336,88,cs),
(294,88,o),
(277,121,o),
(275,143,cs),
(273,166,o),
(288,181,o),
(336,181,cs)
);
},
{
closed = 1;
nodes = (
(268,327,o),
(247,348,o),
(250,381,cs),
(253,412,o),
(276,458,o),
(335,458,cs),
(393,458,o),
(416,412,o),
(419,381,cs),
(422,348,o),
(401,327,o),
(335,327,cs)
);
}
);
width = 668;
},
{
associatedMasterId = "49F060A0-2273-4F54-8B81-08E0B15B03EC";
layerId = "C7586E70-9A3F-4964-A12D-78FB6704338F";
name = "11 Jan 24 at 12:39";
shapes = (
{
closed = 1;
nodes = (
(446,-13,o),
(529,50,o),
(529,146,cs),
(529,198,o),
(499,230,o),
(499,260,cs),
(499,271,o),
(503,282,o),
(516,294,cs),
(590,364,o),
(633,450,o),
(633,545,cs),
(633,699,o),
(525,787,o),
(333,787,cs),
(141,787,o),
(33,699,o),
(33,545,cs),
(33,450,o),
(71,359,o),
(150,294,cs),
(163,283,o),
(165,268,o),
(165,255,cs),
(165,221,o),
(137,187,o),
(137,146,cs),
(137,50,o),
(220,-13,o),
(333,-13,cs)
);
},
{
closed = 1;
nodes = (
(296,74,o),
(277,88,o),
(277,115,cs),
(277,140,o),
(296,154,o),
(333,154,cs),
(370,154,o),
(389,140,o),
(389,115,cs),
(389,88,o),
(370,74,o),
(333,74,cs)
);
},
{
closed = 1;
nodes = (
(275,313,o),
(247,334,o),
(247,377,cs),
(247,418,o),
(275,440,o),
(333,440,cs),
(391,440,o),
(419,418,o),
(419,377,cs),
(419,334,o),
(391,313,o),
(333,313,cs)
);
}
);
width = 668;
},
{
layerId = "49F060A0-2273-4F54-8B81-08E0B15B03EC";
name = Regular;
shapes = (
{
closed = 1;
nodes = (
(466,-14,o),
(573,67,o),
(573,190,cs),
(573,227,o),
(561,257,o),
(539,282,cs),
(531,293,o),
(531,306,o),
(540,316,cs),
(599,371,o),
(633,449,o),
(633,544,cs),
(633,698,o),
(525,786,o),
(333,786,cs),
(143,786,o),
(35,699,o),
(35,546,cs),
(35,451,o),
(69,373,o),
(128,318,cs),
(138,308,o),
(138,295,o),
(129,284,cs),
(107,259,o),
(96,228,o),
(96,191,cs),
(96,67,o),
(205,-14,o),
(337,-14,cs)
);
},
{
closed = 1;
nodes = (
(296,70,o),
(277,84,o),
(277,111,cs),
(277,136,o),
(296,150,o),
(333,150,cs),
(370,150,o),
(389,136,o),
(389,111,cs),
(389,84,o),
(370,70,o),
(333,70,cs)
);
},
{
closed = 1;
nodes = (
(275,309,o),
(247,330,o),
(247,373,cs),
(247,414,o),
(275,436,o),
(333,436,cs),
(391,436,o),
(419,414,o),
(419,373,cs),
(419,330,o),
(391,309,o),
(333,309,cs)
);
}
);
width = 668;
}
);
unicode = 56;
}
{
color = 10;
glyphname = nine;
kernLeft = KO_nine;
kernRight = KO_nine;
layers = (
{
associatedMasterId = "49F060A0-2273-4F54-8B81-08E0B15B03EC";
layerId = "6123F4CA-DE24-4D3C-A948-CCEEB628CFF4";
name = "24 Nov 23 at 00:36";
shapes = (
{
closed = 1;
nodes = (
(166,774,o),
(28,672,o),
(28,501,cs),
(28,350,o),
(144,172,o),
(289,172,cs),
(353,172,o),
(390,207,o),
(407,230,cs),
(413,238,o),
(416,245,o),
(427,245,cs),
(436,245,o),
(444,238,o),
(447,226,cs),
(457,186,o),
(416,77,o),
(366,84,cs),
(354,86,o),
(300,99,o),
(262,99,cs),
(206,99,o),
(200,71,o),
(200,54,cs),
(200,28,o),
(213,16,o),
(247,5,cs),
(332,-23,o),
(437,-8,o),
(499,33,cs),
(600,100,o),
(657,286,o),
(657,446,cs),
(657,655,o),
(559,774,o),
(356,774,cs)
);
},
{
closed = 1;
nodes = (
(345,311,o),
(322,357,o),
(319,388,cs),
(316,421,o),
(337,442,o),
(377,442,cs),
(416,442,o),
(434,423,o),
(438,381,cs),
(443,333,o),
(423,311,o),
(391,311,cs)
);
}
);
width = 677;
},
{
associatedMasterId = "49F060A0-2273-4F54-8B81-08E0B15B03EC";
layerId = "C9036A4B-D71A-4834-AE10-CD72C7BB2121";
name = "5 Dec 23 at 02:20";
shapes = (
{
closed = 1;
nodes = (
(166,774,o),
(28,672,o),
(28,501,cs),
(28,350,o),
(144,172,o),
(289,172,cs),
(353,172,o),
(390,207,o),
(407,230,cs),
(413,238,o),
(416,245,o),
(427,245,cs),
(436,245,o),
(444,238,o),
(447,226,cs),
(457,186,o),
(416,77,o),
(366,84,cs),
(354,86,o),
(300,99,o),
(262,99,cs),
(206,99,o),
(200,71,o),
(200,54,cs),
(200,28,o),
(213,16,o),
(247,5,cs),
(332,-23,o),
(437,-8,o),
(499,33,cs),
(600,100,o),
(657,286,o),
(657,446,cs),
(657,655,o),
(559,774,o),
(356,774,cs)
);
},
{
closed = 1;
nodes = (
(327,324,o),
(300,370,o),
(296,401,cs),
(293,434,o),
(318,455,o),
(365,455,cs),
(412,455,o),
(433,436,o),
(438,394,cs),
(444,346,o),
(420,324,o),
(382,324,cs)
);
}
);
width = 677;
},
{
layerId = "49F060A0-2273-4F54-8B81-08E0B15B03EC";
name = Regular;
shapes = (
{
closed = 1;
nodes = (
(436,-14,o),
(466,5,o),
(499,27,cs),
(600,94,o),
(657,280,o),
(657,440,cs),
(657,649,o),
(559,768,o),
(356,768,cs),
(166,768,o),
(28,666,o),
(28,495,cs),
(28,344,o),
(144,166,o),
(289,166,cs),
(353,166,o),
(390,201,o),
(407,224,cs),
(413,232,o),
(416,239,o),
(427,239,cs),
(445,239,o),
(449,218,o),
(449,200,cs),
(449,151,o),
(415,80,o),
(363,78,cs),
(325,77,o),
(291,90,o),
(268,98,cs),
(240,107,o),
(201,92,o),
(201,53,cs),
(201,-3,o),
(305,-14,o),
(372,-14,cs)
);
},
{
closed = 1;
nodes = (
(324,313,o),
(296,364,o),
(296,395,cs),
(296,425,o),
(321,444,o),
(365,444,cs),
(417,444,o),
(439,421,o),
(439,369,cs),
(439,331,o),
(416,313,o),
(382,313,cs)
);
}
);
width = 677;
}
);
unicode = 57;
}
{
color = 10;
glyphname = colon;
kernLeft = KO_colon;
kernRight = KO_colon;
layers = (
{
associatedMasterId = "49F060A0-2273-4F54-8B81-08E0B15B03EC";
layerId = "3B40EF8C-A4A5-4CBE-BBB8-2FEED87D1BCD";
name = "11 Jan 24 at 09:52";
shapes = (
{
closed = 1;
nodes = (
(10,234,o),
(60,196,o),
(139,196,cs),
(221,196,o),
(271,234,o),
(271,303,cs),
(271,372,o),
(221,408,o),
(139,408,cs),
(60,408,o),
(10,372,o),
(10,303,cs)
);
},
{
closed = 1;
nodes = (
(181,0,o),
(209,26,o),
(209,62,cs),
(209,99,o),
(181,126,o),
(142,126,cs),
(103,126,o),
(75,99,o),
(75,62,cs),
(75,26,o),
(103,0,o),
(142,0,cs)
);
}
);
width = 281;
},
{
layerId = "49F060A0-2273-4F54-8B81-08E0B15B03EC";
name = Regular;
shapes = (
{
closed = 1;
nodes = (
(221,219,o),
(271,257,o),
(271,326,cs),
(271,395,o),
(221,431,o),
(139,431,cs),
(60,431,o),
(10,395,o),
(10,326,cs),
(10,257,o),
(60,219,o),
(139,219,cs)
);
},
{
closed = 1;
nodes = (
(201,-14,o),
(243,28,o),
(243,82,cs),
(243,137,o),
(201,179,o),
(141,179,cs),
(82,179,o),
(39,137,o),
(39,82,cs),
(39,28,o),
(82,-14,o),
(141,-14,cs)
);
}
);
width = 281;
}
);
unicode = 58;
userData = {
KernOnName = colon;
KernOnSpecialSpacing = {
L = "spaced-off";
R = "spaced-off";
};
};
}
{
color = 10;
glyphname = semicolon;
kernLeft = KO_semicolon;
kernRight = KO_colon;
layers = (
{
associatedMasterId = "49F060A0-2273-4F54-8B81-08E0B15B03EC";
layerId = "AE503162-F895-4503-8DE6-860248D547CD";
name = "11 Jan 24 at 09:37";
shapes = (
{
closed = 1;
nodes = (
(62,18,o),
(70,-11,o),
(93,-20,cs),
(110,-27,o),
(113,-43,o),
(99,-58,cs),
(80,-79,o),
(74,-103,o),
(85,-119,cs),
(96,-135,o),
(120,-139,o),
(151,-119,cs),
(196,-89,o),
(216,-30,o),
(216,22,cs),
(216,86,o),
(191,118,o),
(142,118,cs),
(89,118,o),
(62,91,o),
(62,39,cs)
);
},
{
closed = 1;
nodes = (
(10,237,o),
(60,199,o),
(139,199,cs),
(221,199,o),
(271,237,o),
(271,306,cs),
(271,375,o),
(221,411,o),
(139,411,cs),
(60,411,o),
(10,375,o),
(10,306,cs)
);
}
);
width = 281;
},
{
layerId = "49F060A0-2273-4F54-8B81-08E0B15B03EC";
name = Regular;
shapes = (
{
closed = 1;
nodes = (
(179,-202,o),
(235,-92,o),
(235,-1,cs),
(235,65,o),
(208,121,o),
(145,121,cs),
(74,121,o),
(46,70,o),
(46,23,cs),
(46,-13,o),
(62,-48,o),
(86,-57,cs),
(96,-64,o),
(101,-73,o),
(101,-83,cs),
(101,-92,o),
(98,-101,o),
(91,-109,cs),
(76,-126,o),
(68,-145,o),
(68,-163,cs),
(68,-185,o),
(85,-202,o),
(107,-202,cs)
);
},
{
closed = 1;
nodes = (
(221,218,o),
(271,256,o),
(271,325,cs),
(271,394,o),
(221,430,o),
(139,430,cs),
(60,430,o),
(10,394,o),
(10,325,cs),
(10,256,o),
(60,218,o),
(139,218,cs)
);
}
);
width = 281;
}
);
metricLeft = colon;
metricRight = colon;
unicode = 59;
userData = {
KernOnSpecialSpacing = {
L = "spaced-off";
R = "spaced-off";
};
};
}
{
color = 10;
glyphname = equal;
kernLeft = KO_equal;
kernRight = KO_equal;
layers = (
{
layerId = "49F060A0-2273-4F54-8B81-08E0B15B03EC";
shapes = (
{
closed = 1;
nodes = (
(296,309,o),
(388,324,o),
(426,332,cs),
(508,348,o),
(540,368,o),
(540,394,cs),
(540,420,o),
(511,435,o),
(420,452,cs),
(396,456,o),
(306,470,o),
(192,470,cs),
(55,470,o),
(17,434,o),
(17,389,cs),
(17,342,o),
(57,309,o),
(196,309,cs)
);
},
{
closed = 1;
nodes = (
(296,105,o),
(388,120,o),
(426,128,cs),
(508,144,o),
(540,164,o),
(540,190,cs),
(540,216,o),
(511,231,o),
(420,248,cs),
(396,252,o),
(306,266,o),
(192,266,cs),
(55,266,o),
(17,230,o),
(17,185,cs),
(17,138,o),
(57,105,o),
(196,105,cs)
);
}
);
width = 557;
}
);
unicode = 61;
userData = {
KernOnSpecialSpacing = {
L = math;
R = math;
};
};
}
{
color = 10;
glyphname = greater;
kernLeft = KO_greater;
kernRight = KO_greater;
layers = (
{
associatedMasterId = "49F060A0-2273-4F54-8B81-08E0B15B03EC";
layerId = "8EE4AC87-92EA-40AB-BC6A-9296222E433B";
name = "3 Mar 24 at 10:38";
shapes = (
{
closed = 1;
nodes = (
(70,-10,o),
(79,-14,o),
(89,-14,cs),
(103,-14,o),
(121,-7,o),
(145,12,cs),
(223,72,o),
(299,149,o),
(356,242,cs),
(367,260,o),
(372,273,o),
(372,284,cs),
(372,302,o),
(358,314,o),
(337,336,cs),
(189,494,o),
(120,558,o),
(107,571,cs),
(93,584,o),
(78,589,o),
(62,589,cs),
(45,589,o),
(29,583,o),
(15,572,cs),
(3,563,o),
(-9,541,o),
(-9,518,cs),
(-9,506,o),
(-5,493,o),
(4,481,cs),
(25,455,o),
(150,349,o),
(189,310,cs),
(208,291,o),
(222,279,o),
(222,265,cs),
(222,260,o),
(220,255,o),
(217,249,cs),
(184,192,o),
(109,99,o),
(84,72,cs),
(71,57,o),
(54,36,o),
(54,18,cs),
(54,10,o),
(57,2,o),
(64,-4,cs)
);
}
);
width = 382;
},
{
associatedMasterId = "49F060A0-2273-4F54-8B81-08E0B15B03EC";
layerId = "7DBFE49C-C2A4-4ED7-905A-7E7915E17F63";
name = "9 Mar 24 at 11:29";
shapes = (
{
closed = 1;
nodes = (
(150,627,o),
(127,630,o),
(112,630,cs),
(83,630,o),
(62,619,o),
(47,604,cs),
(27,584,o),
(20,556,o),
(20,540,cs),
(20,527,o),
(24,513,o),
(34,501,cs),
(58,472,o),
(180,369,o),
(218,331,cs),
(237,312,o),
(251,300,o),
(251,286,cs),
(251,281,o),
(249,276,o),
(246,270,cs),
(226,232,o),
(146,130,o),
(115,95,cs),
(107,86,o),
(83,59,o),
(83,40,cs),
(83,23,o),
(101,0,o),
(129,0,cs),
(147,0,o),
(167,9,o),
(191,26,cs),
(263,77,o),
(367,196,o),
(405,259,cs),
(419,282,o),
(424,297,o),
(424,308,cs),
(424,323,o),
(415,331,o),
(385,363,cs),
(271,484,o),
(175,600,o),
(164,612,cs)
);
}
);
width = 444;
},
{
layerId = "49F060A0-2273-4F54-8B81-08E0B15B03EC";
name = Regular;
shapes = (
{
closed = 1;
nodes = (
(100,441,o),
(231,375,o),
(276,343,cs),
(294,330,o),
(316,320,o),
(316,303,cs),
(316,288,o),
(305,278,o),
(300,272,cs),
(239,207,o),
(118,115,o),
(89,57,cs),
(86,50,o),
(84,44,o),
(84,38,cs),
(84,17,o),
(102,0,o),
(124,0,cs),
(194,0,o),
(537,237,o),
(537,307,cs),
(537,329,o),
(529,336,o),
(486,371,cs),
(337,492,o),
(188,593,o),
(173,604,cs),
(156,616,o),
(129,631,o),
(99,631,cs),
(57,631,o),
(20,596,o),
(20,553,cs),
(20,523,o),
(36,493,o),
(60,474,cs)
);
}
);
width = 557;
}
);
unicode = 62;
userData = {
KernOnSpecialSpacing = {
L = math;
R = math;
};
};
}
{
color = 10;
glyphname = question;
kernLeft = KO_question;
kernRight = KO_question;
layers = (
{
associatedMasterId = "49F060A0-2273-4F54-8B81-08E0B15B03EC";
layerId = "EF8915AB-A55E-4316-B0B4-CAB8A12205EC";
name = "2 Dec 23 at 16:05";
shapes = (
{
closed = 1;
nodes = (
(325,357,o),
(353,417,o),
(353,446,cs),
(353,462,o),
(337,462,o),
(278,462,cs),
(244,462,o),
(165,458,o),
(136,458,cs),
(60,458,o),
(22,506,o),
(22,585,cs),
(22,705,o),
(108,784,o),
(272,784,cs),
(433,784,o),
(526,699,o),
(526,565,cs),
(526,425,o),
(451,309,o),
(353,211,cs),
(325,183,o),
(283,185,o),
(265,205,cs),
(246,226,o),
(258,260,o),
(281,293,cs)
);
},
{
closed = 1;
nodes = (
(345,0,o),
(373,26,o),
(373,62,cs),
(373,99,o),
(345,126,o),
(306,126,cs),
(267,126,o),
(239,99,o),
(239,62,cs),
(239,26,o),
(267,0,o),
(306,0,cs)
);
}
);
width = 580;
},
{
associatedMasterId = "49F060A0-2273-4F54-8B81-08E0B15B03EC";
layerId = "AD048E33-EC65-4102-9A98-66A78DAB6C7E";
name = "11 Jan 24 at 09:44";
shapes = (
{
closed = 1;
nodes = (
(385,404,o),
(363,484,o),
(307,484,cs),
(260,484,o),
(219,426,o),
(148,426,cs),
(64,426,o),
(26,509,o),
(43,593,cs),
(61,682,o),
(143,777,o),
(295,777,cs),
(426,777,o),
(526,707,o),
(526,550,cs),
(526,382,o),
(412,253,o),
(353,211,cs),
(316,185,o),
(284,181,o),
(265,205,cs),
(246,229,o),
(253,263,o),
(281,293,cs)
);
},
{
closed = 1;
nodes = (
(345,0,o),
(373,26,o),
(373,62,cs),
(373,99,o),
(345,126,o),
(306,126,cs),
(267,126,o),
(239,99,o),
(239,62,cs),
(239,26,o),
(267,0,o),
(306,0,cs)
);
}
);
width = 580;
},
{
layerId = "49F060A0-2273-4F54-8B81-08E0B15B03EC";
name = Regular;
shapes = (
{
closed = 1;
nodes = (
(284,216,o),
(316,220,o),
(353,246,cs),
(412,288,o),
(526,417,o),
(526,585,cs),
(526,742,o),
(426,812,o),
(295,812,cs),
(143,812,o),
(61,717,o),
(43,628,cs),
(26,544,o),
(64,461,o),
(148,461,cs),
(219,461,o),
(260,519,o),
(307,519,cs),
(363,519,o),
(385,439,o),
(281,328,cs),
(253,298,o),
(246,264,o),
(265,240,cs)
);
},
{
closed = 1;
nodes = (
(374,-14,o),
(416,28,o),
(416,82,cs),
(416,137,o),
(374,179,o),
(314,179,cs),
(255,179,o),
(212,137,o),
(212,82,cs),
(212,28,o),
(255,-14,o),
(314,-14,cs)
);
}
);
width = 580;
}
);
unicode = 63;
userData = {
KernOnName = question;
KernOnSpecialSpacing = {
L = "spaced-off";
};
};
}
{
color = 10;
glyphname = at;
kernLeft = KO_at;
kernRight = KO_at;
layers = (
{
layerId = "49F060A0-2273-4F54-8B81-08E0B15B03EC";
shapes = (
{
closed = 1;
nodes = (
(459,-139,o),
(505,-142,o),
(532,-129,cs),
(546,-123,o),
(555,-113,o),
(555,-97,cs),
(555,-80,o),
(537,-71,o),
(516,-71,cs),
(479,-71,o),
(493,-70,o),
(467,-70,cs),
(409,-70,o),
(349,-53,o),
(299,-13,cs),
(161,96,o),
(116,432,o),
(384,432,cs),
(485,432,o),
(526,398,o),
(526,331,cs),
(526,313,o),
(523,310,o),
(515,310,cs),
(506,310,o),
(503,314,o),
(499,319,cs),
(479,342,o),
(448,358,o),
(408,358,cs),
(331,358,o),
(283,299,o),
(283,212,cs),
(283,154,o),
(304,90,o),
(342,44,cs),
(371,9,o),
(408,-15,o),
(446,-15,cs),
(477,-15,o),
(505,-2,o),
(523,22,cs),
(527,27,o),
(531,30,o),
(538,30,cs),
(544,30,o),
(549,28,o),
(551,22,cs),
(559,-2,o),
(571,-16,o),
(592,-16,cs),
(625,-16,o),
(653,16,o),
(669,62,cs),
(703,161,o),
(719,266,o),
(719,358,cs),
(719,564,o),
(625,673,o),
(393,671,cs),
(47,668,o),
(0,423,o),
(19,225,cs),
(38,27,o),
(173,-139,o),
(437,-139,cs)
);
},
{
closed = 1;
nodes = (
(472,94,o),
(454,123,o),
(454,143,cs),
(454,165,o),
(465,176,o),
(491,176,cs),
(514,176,o),
(524,166,o),
(528,138,cs),
(532,109,o),
(518,94,o),
(495,94,cs)
);
}
);
width = 734;
},
{
associatedMasterId = "49F060A0-2273-4F54-8B81-08E0B15B03EC";
layerId = "44BFDCCE-7BAE-45FE-A20D-E75E1E2258A8";
name = "5 Dec 23 at 01:36";
shapes = (
{
closed = 1;
nodes = (
(353,-55,o),
(196,17,o),
(196,238,cs),
(196,330,o),
(220,452,o),
(388,452,cs),
(483,452,o),
(526,413,o),
(526,346,cs),
(526,328,o),
(523,325,o),
(515,325,cs),
(506,325,o),
(503,329,o),
(499,334,cs),
(481,356,o),
(448,373,o),
(407,373,cs),
(331,373,o),
(283,314,o),
(283,229,cs),
(283,126,o),
(353,0,o),
(447,0,cs),
(477,0,o),
(505,13,o),
(523,37,cs),
(527,42,o),
(531,45,o),
(538,45,cs),
(544,45,o),
(549,43,o),
(551,37,cs),
(559,13,o),
(571,-1,o),
(592,-1,cs),
(677,-1,o),
(701,206,o),
(710,282,cs),
(737,508,o),
(655,686,o),
(382,686,cs),
(70,686,o),
(-11,455,o),
(19,240,cs),
(48,34,o),
(173,-124,o),
(437,-124,cs),
(462,-124,o),
(504,-127,o),
(532,-114,cs),
(547,-107,o),
(555,-97,o),
(555,-84,cs),
(555,-61,o),
(531,-56,o),
(516,-56,cs),
(479,-56,o),
(493,-55,o),
(467,-55,cs)
);
},
{
closed = 1;
nodes = (
(470,94,o),
(454,123,o),
(454,145,cs),
(454,164,o),
(465,176,o),
(490,176,cs),
(514,176,o),
(526,164,o),
(528,138,cs),
(531,105,o),
(515,94,o),
(498,94,cs)
);
}
);
width = 729;
}
);
unicode = 64;
userData = {
KernOnSpecialSpacing = {
L = symbols;
R = symbols;
};
};
}
{
color = 10;
glyphname = A;
kernLeft = KO_A;
kernRight = KO_A;
layers = (
{
anchors = (
{
name = bottom;
pos = (414,0);
},
{
name = ogonek;
pos = (768,10);
},
{
name = top;
pos = (414,800);
}
);
associatedMasterId = "49F060A0-2273-4F54-8B81-08E0B15B03EC";
layerId = "429529E9-CF14-4CA2-9828-83EC560851CA";
name = "2 Dec 23 at 23:15";
shapes = (
{
closed = 1;
nodes = (
(480,290,ls),
(520,290,o),
(535,303,o),
(535,330,cs),
(535,355,o),
(533,456,o),
(425,456,cs),
(317,456,o),
(315,355,o),
(315,330,cs),
(315,294,o),
(345,290,o),
(373,290,cs),
(379,290,o),
(399,290,o),
(426,290,cs)
);
},
{
closed = 1;
nodes = (
(301,-11,o),
(294,-13,o),
(286,-13,cs),
(268,-13,o),
(251,-1,o),
(233,15,cs),
(159,81,o),
(25,255,o),
(25,462,cs),
(25,660,o),
(200,804,o),
(424,804,cs),
(650,804,o),
(825,660,o),
(825,462,cs),
(825,255,o),
(691,81,o),
(617,15,cs),
(599,-1,o),
(582,-13,o),
(564,-13,cs),
(556,-13,o),
(549,-11,o),
(541,-7,cs),
(522,4,o),
(513,22,o),
(513,42,cs),
(513,50,o),
(515,58,o),
(517,67,cs),
(521,81,o),
(533,123,o),
(533,143,cs),
(533,171,o),
(502,182,o),
(474,182,cs),
(466,182,o),
(438,182,o),
(373,182,cs),
(332,182,o),
(317,161,o),
(317,143,cs),
(317,123,o),
(329,81,o),
(333,67,cs),
(335,58,o),
(337,50,o),
(337,42,cs),
(337,22,o),
(328,4,o),
(309,-7,cs)
);
}
);
width = 850;
},
{
anchors = (
{
name = bottom;
pos = (567,0);
},
{
name = ogonek;
pos = (775,0);
},
{
name = top;
pos = (433,800);
}
);
layerId = "49F060A0-2273-4F54-8B81-08E0B15B03EC";
name = Regular;
shapes = (
{
closed = 1;
nodes = (
(317,-14,o),
(343,9,o),
(343,43,cs),
(343,70,o),
(323,115,o),
(323,145,cs),
(323,174,o),
(339,185,o),
(431,185,cs),
(515,185,o),
(541,177,o),
(541,145,cs),
(541,115,o),
(521,70,o),
(521,43,cs),
(521,9,o),
(547,-14,o),
(572,-14,cs),
(591,-14,o),
(608,0,o),
(626,16,cs),
(701,83,o),
(836,258,o),
(836,468,cs),
(836,668,o),
(659,814,o),
(431,814,cs),
(205,814,o),
(28,668,o),
(28,468,cs),
(28,258,o),
(163,83,o),
(238,16,cs),
(256,0,o),
(273,-14,o),
(292,-14,cs)
);
},
{
closed = 1;
nodes = (
(350,287,o),
(323,288,o),
(323,329,cs),
(323,355,o),
(325,457,o),
(432,457,cs),
(541,457,o),
(543,355,o),
(543,329,cs),
(543,288,o),
(516,287,o),
(433,289,c)
);
}
);
width = 864;
}
);
metricRight = "=|";
unicode = 65;
userData = {
KernOnName = A;
};
}
{
color = 10;
glyphname = B;
kernLeft = KO_B;
kernRight = KO_B;
layers = (
{
anchors = (
{
name = bottom;
pos = (408,0);
},
{
name = top;
pos = (415,800);
}
);
layerId = "49F060A0-2273-4F54-8B81-08E0B15B03EC";
shapes = (
{
closed = 1;
nodes = (
(581,-14,o),
(696,67,o),
(696,168,cs),
(696,228,o),
(658,269,o),
(592,272,cs),
(585,272,o),
(569,273,o),
(569,286,cs),
(569,294,o),
(574,299,o),
(583,300,cs),
(590,301,o),
(804,324,o),
(804,518,cs),
(804,687,o),
(641,814,o),
(434,814,cs),
(189,814,o),
(20,637,o),
(20,405,cs),
(20,165,o),
(205,-14,o),
(430,-14,cs)
);
},
{
closed = 1;
nodes = (
(376,89,o),
(343,111,o),
(343,138,cs),
(343,165,o),
(376,185,o),
(416,185,cs),
(456,185,o),
(488,165,o),
(488,138,cs),
(488,111,o),
(456,89,o),
(416,89,cs)
);
},
{
closed = 1;
nodes = (
(391,286,o),
(322,286,cs),
(278,286,o),
(245,305,o),
(245,347,cs),
(245,416,o),
(362,473,o),
(432,473,cs),
(476,473,o),
(512,455,o),
(512,414,cs),
(512,345,o)
);
}
);
width = 821;
}
);
unicode = 66;
userData = {
KernOnName = B;
};
}
{
color = 10;
glyphname = C;
kernLeft = KO_C;
kernRight = KO_C;
layers = (
{
anchors = (
{
name = bottom;
pos = (448,-14);
},
{
name = top;
pos = (440,800);
}
);
layerId = "49F060A0-2273-4F54-8B81-08E0B15B03EC";
shapes = (
{
closed = 1;
nodes = (
(507,-14,o),
(569,-3,o),
(607,14,cs),
(656,37,o),
(675,65,o),
(675,91,cs),
(675,147,o),
(611,163,o),
(572,136,cs),
(531,107,o),
(505,90,o),
(448,90,cs),
(363,90,o),
(293,132,o),
(293,260,cs),
(293,340,o),
(357,426,o),
(445,426,cs),
(505,426,o),
(547,396,o),
(603,396,cs),
(699,396,o),
(762,474,o),
(762,585,cs),
(762,744,o),
(631,814,o),
(480,814,cs),
(260,814,o),
(30,685,o),
(30,399,cs),
(30,157,o),
(229,-14,o),
(448,-14,cs)
);
}
);
width = 776;
}
);
metricLeft = O;
unicode = 67;
}
{
color = 10;
glyphname = D;
kernLeft = KO_D;
kernRight = KO_D;
layers = (
{
anchors = (
{
name = bottom;
pos = (303,0);
},
{
name = top;
pos = (307,800);
}
);
layerId = "49F060A0-2273-4F54-8B81-08E0B15B03EC";
shapes = (
{
closed = 1;
nodes = (
(599,-14,o),
(766,205,o),
(766,438,cs),
(766,689,o),
(573,814,o),
(307,814,cs),
(89,814,o),
(26,731,o),
(26,439,cs),
(26,112,o),
(105,-14,o),
(317,-14,cs)
);
},
{
closed = 1;
nodes = (
(201,89,o),
(183,179,o),
(183,286,cs),
(183,397,o),
(202,457,o),
(303,457,cs),
(404,457,o),
(457,400,o),
(457,294,cs),
(457,174,o),
(387,89,o),
(295,89,c)
);
}
);
width = 793;
}
);
unicode = 68;
userData = {
KernOnName = D;
};
}
{
color = 10;
glyphname = E;
kernLeft = KO_E;
kernRight = KO_E;
layers = (
{
anchors = (
{
name = bottom;
pos = (381,0);
},
{
name = ogonek;
pos = (675,0);
},
{
name = top;
pos = (381,800);
},
{
name = topleft;
pos = (34,800);
}
);
layerId = "49F060A0-2273-4F54-8B81-08E0B15B03EC";
shapes = (
{
closed = 1;
nodes = (
(507,-14,o),
(569,-4,o),
(607,13,cs),
(656,36,o),
(675,64,o),
(675,90,cs),
(675,146,o),
(611,162,o),
(572,135,cs),
(531,106,o),
(505,90,o),
(459,90,cs),
(385,90,o),
(303,131,o),
(303,208,cs),
(303,231,o),
(338,232,o),
(358,232,cs),
(390,232,o),
(419,225,o),
(447,225,cs),
(492,225,o),
(525,237,o),
(525,280,cs),
(525,323,o),
(492,335,o),
(447,335,cs),
(422,335,o),
(396,332,o),
(368,332,cs),
(344,332,o),
(303,330,o),
(303,356,cs),
(303,431,o),
(380,475,o),
(445,475,cs),
(505,475,o),
(547,445,o),
(603,445,cs),
(699,445,o),
(762,523,o),
(762,596,cs),
(762,743,o),
(631,814,o),
(480,814,cs),
(274,814,o),
(30,684,o),
(30,398,cs),
(30,156,o),
(229,-14,o),
(448,-14,cs)
);
}
);
width = 774;
}
);
metricLeft = O;
unicode = 69;
userData = {
KernOnName = E;
};
}
{
color = 10;
glyphname = F;
kernLeft = KO_F;
kernRight = KO_F;
layers = (
{
anchors = (
{
name = bottom;
pos = (369,0);
},
{
name = top;
pos = (380,800);
}
);
layerId = "49F060A0-2273-4F54-8B81-08E0B15B03EC";
shapes = (
{
closed = 1;
nodes = (
(287,-14,o),
(316,2,o),
(316,41,cs),
(316,73,o),
(292,132,o),
(292,170,cs),
(292,189,o),
(299,203,o),
(318,205,cs),
(355,209,o),
(403,201,o),
(442,201,cs),
(487,201,o),
(520,214,o),
(520,257,cs),
(520,300,o),
(487,313,o),
(442,313,cs),
(424,313,o),
(391,307,o),
(362,307,cs),
(327,307,o),
(297,315,o),
(297,349,cs),
(297,439,o),
(372,479,o),
(436,479,cs),
(495,479,o),
(536,453,o),
(592,453,cs),
(686,453,o),
(746,529,o),
(746,601,cs),
(746,744,o),
(618,814,o),
(471,814,cs),
(269,814,o),
(29,687,o),
(29,406,cs),
(29,209,o),
(150,69,o),
(212,12,cs),
(230,-3,o),
(248,-14,o),
(267,-14,cs)
);
}
);
width = 758;
},
{
associatedMasterId = "49F060A0-2273-4F54-8B81-08E0B15B03EC";
layerId = "AA9DCBA4-9BA2-4348-B17E-0CF0C5F33271";
name = "3 Dec 23 at 00:44";
shapes = (
{
closed = 1;
nodes = (
(343,245,o),
(388,233,o),
(427,233,cs),
(472,233,o),
(505,245,o),
(505,288,cs),
(505,331,o),
(472,343,o),
(427,343,cs),
(377,343,o),
(354,339,o),
(305,343,cs),
(292,344,o),
(284,349,o),
(284,361,cs),
(284,434,o),
(358,476,o),
(422,476,cs),
(480,476,o),
(521,447,o),
(576,447,cs),
(669,447,o),
(729,523,o),
(729,594,cs),
(729,736,o),
(602,803,o),
(456,803,cs),
(256,803,o),
(18,679,o),
(18,401,cs),
(18,206,o),
(138,67,o),
(200,11,cs),
(218,-4,o),
(235,-15,o),
(254,-15,cs),
(278,-15,o),
(303,4,o),
(303,39,cs),
(303,67,o),
(253,226,o),
(305,237,cs)
);
}
);
width = 739;
}
);
unicode = 70;
}
{
color = 10;
glyphname = G;
kernLeft = KO_G;
kernRight = KO_G;
layers = (
{
associatedMasterId = "49F060A0-2273-4F54-8B81-08E0B15B03EC";
hints = (
{
place = (16,592);
type = Stem;
}
);
layerId = "519D810E-9C69-4543-868D-C7114570BC18";
name = "3 Dec 23 at 04:15";
shapes = (
{
closed = 1;
locked = 1;
nodes = (
(322,436,o),
(277,344,o),
(277,239,cs),
(277,115,o),
(340,56,o),
(421,56,cs),
(482,56,o),
(519,91,o),
(519,125,cs),
(519,167,o),
(502,181,o),
(487,181,cs),
(460,181,o),
(441,181,o),
(422,181,cs),
(378,181,o),
(355,204,o),
(355,234,cs),
(355,264,o),
(378,288,o),
(421,288,cs),
(483,288,o),
(510,288,o),
(540,288,cs),
(569,288,o),
(596,288,o),
(658,288,cs),
(701,288,o),
(724,264,o),
(724,209,cs),
(724,75,o),
(585,-13,o),
(416,-13,cs),
(205,-13,o),
(18,156,o),
(18,381,cs),
(18,629,o),
(184,812,o),
(447,812,cs),
(615,812,o),
(759,735,o),
(759,571,cs),
(759,490,o),
(689,403,o),
(584,403,cs),
(528,403,o),
(485,436,o),
(431,436,cs)
);
}
);
width = 772;
},
{
associatedMasterId = "49F060A0-2273-4F54-8B81-08E0B15B03EC";
layerId = "C29891FC-0058-4263-8C6F-F317610128E4";
name = "7 Dec 23 at 04:06";
shapes = (
{
closed = 1;
locked = 1;
nodes = (
(324,436,o),
(279,344,o),
(279,239,cs),
(279,115,o),
(341,65,o),
(422,65,cs),
(483,65,o),
(536,92,o),
(536,142,cs),
(536,217,o),
(475,186,o),
(439,174,cs),
(383,155,o),
(345,191,o),
(345,228,cs),
(345,306,o),
(485,303,o),
(521,303,cs),
(584,303,o),
(710,284,o),
(710,193,cs),
(710,75,o),
(587,-13,o),
(418,-13,cs),
(207,-13,o),
(20,156,o),
(20,381,cs),
(20,629,o),
(186,812,o),
(449,812,cs),
(617,812,o),
(761,735,o),
(761,571,cs),
(761,490,o),
(691,403,o),
(586,403,cs),
(530,403,o),
(487,436,o),
(433,436,cs)
);
}
);
width = 774;
},
{
associatedMasterId = "49F060A0-2273-4F54-8B81-08E0B15B03EC";
layerId = "9F3E5ADE-4EF3-42CE-9426-D6FF461E9A46";
name = "8 Jan 24 at 01:48";
shapes = (
{
closed = 1;
nodes = (
(470,191,o),
(441,169,o),
(409,169,cs),
(370,169,o),
(345,198,o),
(345,228,cs),
(345,300,o),
(466,303,o),
(512,303,cs),
(570,303,o),
(710,289,o),
(710,193,cs),
(710,75,o),
(587,-13,o),
(418,-13,cs),
(207,-13,o),
(20,156,o),
(20,381,cs),
(20,629,o),
(186,812,o),
(449,812,cs),
(617,812,o),
(752,743,o),
(752,606,cs),
(752,525,o),
(696,443,o),
(591,443,cs),
(535,443,o),
(492,476,o),
(438,476,cs),
(329,476,o),
(284,384,o),
(284,279,cs),
(284,155,o),
(352,91,o),
(433,91,cs),
(487,91,o),
(537,102,o),
(537,145,cs),
(537,183,o),
(521,191,o),
(501,191,cs)
);
}
);
width = 765;
},
{
associatedMasterId = "49F060A0-2273-4F54-8B81-08E0B15B03EC";
backgroundImage = {
imagePath = "/Volumes/ADAM-DOC/DOCUMENTS/Google-project_african languages/20octobre/23 October2023/28 October2023/From-Lisa/new_correction_2023:12:19/7Janvier2024/Screenshot 2024-01-07 at 01.13.36.png";
locked = 1;
pos = (-784,-193);
scale = (12.8885,12.8885);
};
layerId = "73672564-3EEF-4075-8828-492CE3FB1E38";
name = "30 Jan 24 at 10:24";
shapes = (
{
closed = 1;
nodes = (
(580,-13,o),
(710,76,o),
(710,183,cs),
(710,289,o),
(583,301,o),
(518,301,cs),
(426,301,o),
(381,277,o),
(381,233,cs),
(381,207,o),
(397,177,o),
(439,177,cs),
(468,177,o),
(473,191,o),
(499,191,cs),
(521,191,o),
(537,181,o),
(537,154,cs),
(537,107,o),
(488,91,o),
(441,91,cs),
(348,91,o),
(284,155,o),
(284,279,cs),
(284,385,o),
(331,476,o),
(435,476,cs),
(497,476,o),
(530,443,o),
(594,443,cs),
(694,443,o),
(752,523,o),
(752,609,cs),
(752,740,o),
(618,812,o),
(453,812,cs),
(186,812,o),
(20,625,o),
(20,394,cs),
(20,148,o),
(207,-13,o),
(421,-13,cs)
);
}
);
width = 755;
},
{
anchors = (
{
name = bottom;
pos = (402,2);
},
{
name = top;
pos = (425,800);
}
);
layerId = "49F060A0-2273-4F54-8B81-08E0B15B03EC";
name = Regular;
shapes = (
{
closed = 1;
locked = 1;
nodes = (
(590,-14,o),
(720,76,o),
(720,183,cs),
(720,289,o),
(593,301,o),
(528,301,cs),
(436,301,o),
(391,277,o),
(391,233,cs),
(391,207,o),
(407,177,o),
(449,177,cs),
(478,177,o),
(483,191,o),
(509,191,cs),
(531,191,o),
(547,181,o),
(547,154,cs),
(547,107,o),
(498,91,o),
(451,91,cs),
(358,91,o),
(294,155,o),
(294,279,cs),
(294,385,o),
(341,476,o),
(445,476,cs),
(507,476,o),
(540,443,o),
(604,443,cs),
(704,443,o),
(762,523,o),
(762,609,cs),
(762,740,o),
(628,814,o),
(463,814,cs),
(196,814,o),
(30,625,o),
(30,394,cs),
(30,148,o),
(217,-14,o),
(431,-14,cs)
);
}
);
width = 775;
}
);
metricLeft = O;
unicode = 71;
userData = {
KernOnName = G;
};
}
{
color = 10;
glyphname = H;
kernLeft = KO_H;
kernRight = KO_H;
layers = (
{
associatedMasterId = "49F060A0-2273-4F54-8B81-08E0B15B03EC";
layerId = "995C19E3-602E-4284-B1F4-432C6036B48F";
name = "2 Dec 23 at 21:17";
width = 860;
},
{
associatedMasterId = "49F060A0-2273-4F54-8B81-08E0B15B03EC";
layerId = "6CC951F3-B2F8-4C76-8A71-13D97A0870C4";
name = "2 Dec 23 at 21:41";
shapes = (
{
closed = 1;
nodes = (
(453,512,o),
(453,630,cs),
(453,749,o),
(529,800,o),
(626,800,cs),
(741,800,o),
(840,701,o),
(840,500,cs),
(840,261,o),
(703,81,o),
(626,13,cs),
(601,-10,o),
(576,-25,o),
(548,-9,cs),
(522,6,o),
(514,35,o),
(523,67,cs),
(545,134,o),
(552,184,o),
(482,184,cs),
(469,184,o),
(386,184,o),
(376,184,cs),
(312,184,o),
(312,135,o),
(337,67,cs),
(346,34,o),
(338,5,o),
(312,-10,cs),
(284,-25,o),
(259,-11,o),
(234,12,cs),
(118,115,o),
(20,261,o),
(20,499,cs),
(20,628,o),
(73,800,o),
(234,800,cs),
(331,800,o),
(407,748,o),
(407,629,cs),
(407,512,o),
(319,457,o),
(319,340,cs),
(319,303,o),
(347,288,o),
(378,288,cs),
(394,288,o),
(430,288,o),
(482,288,cs),
(513,288,o),
(541,304,o),
(541,341,cs),
(541,454,o)
);
}
);
width = 860;
},
{
associatedMasterId = "49F060A0-2273-4F54-8B81-08E0B15B03EC";
layerId = "8619F705-B48F-4E5E-BFE2-15477CFDE70B";
name = "3 Dec 23 at 02:00";
shapes = (
{
closed = 1;
nodes = (
(384,184,o),
(378,184,cs),
(308,184,o),
(315,134,o),
(337,67,cs),
(346,35,o),
(338,6,o),
(312,-9,cs),
(284,-25,o),
(259,-10,o),
(234,13,cs),
(157,81,o),
(20,261,o),
(20,500,cs),
(20,701,o),
(119,800,o),
(234,800,cs),
(331,800,o),
(407,749,o),
(407,630,cs),
(407,512,o),
(319,454,o),
(319,341,cs),
(319,304,o),
(347,288,o),
(378,288,cs),
(398,288,o),
(464,288,o),
(484,288,cs),
(515,288,o),
(543,304,o),
(543,341,cs),
(543,454,o),
(455,512,o),
(455,630,cs),
(455,749,o),
(531,800,o),
(628,800,cs),
(743,800,o),
(842,701,o),
(842,500,cs),
(842,261,o),
(705,81,o),
(628,13,cs),
(603,-10,o),
(578,-25,o),
(550,-9,cs),
(524,6,o),
(516,35,o),
(525,67,cs),
(547,134,o),
(554,184,o),
(484,184,cs),
(478,184,o)
);
}
);
width = 862;
},
{
anchors = (
{
name = bottom;
pos = (430,0);
},
{
name = top;
pos = (446,800);
}
);
layerId = "49F060A0-2273-4F54-8B81-08E0B15B03EC";
name = Regular;
shapes = (
{
closed = 1;
nodes = (
(324,-14,o),
(352,8,o),
(352,45,cs),
(352,81,o),
(333,97,o),
(333,137,cs),
(333,166,o),
(348,184,o),
(440,184,cs),
(540,184,o),
(555,166,o),
(555,137,cs),
(555,97,o),
(536,81,o),
(536,45,cs),
(536,8,o),
(564,-14,o),
(588,-14,cs),
(607,-14,o),
(625,-1,o),
(643,15,cs),
(721,84,o),
(860,267,o),
(860,510,cs),
(860,715,o),
(760,814,o),
(643,814,cs),
(545,814,o),
(468,763,o),
(468,642,cs),
(468,522,o),
(557,460,o),
(557,344,cs),
(557,307,o),
(529,288,o),
(440,288,cs),
(359,288,o),
(331,307,o),
(331,344,cs),
(331,460,o),
(420,522,o),
(420,642,cs),
(420,763,o),
(343,814,o),
(245,814,cs),
(128,814,o),
(28,715,o),
(28,510,cs),
(28,267,o),
(167,84,o),
(245,15,cs),
(263,-1,o),
(281,-14,o),
(300,-14,cs)
);
}
);
width = 888;
}
);
metricRight = "=|";
unicode = 72;
userData = {
KernOnName = H;
};
}
{
color = 10;
glyphname = I;
kernLeft = KO_I;
kernRight = KO_I;
layers = (
{
anchors = (
{
name = bottom;
pos = (197,0);
},
{
name = ogonek;
pos = (352,0);
},
{
name = top;
pos = (197,800);
},
{
name = topleft;
pos = (23,800);
}
);
layerId = "49F060A0-2273-4F54-8B81-08E0B15B03EC";
shapes = (
{
closed = 1;
nodes = (
(246,-14,o),
(272,23,o),
(291,86,cs),
(325,205,o),
(366,401,o),
(366,591,cs),
(366,735,o),
(288,814,o),
(197,814,cs),
(106,814,o),
(28,735,o),
(28,591,cs),
(28,401,o),
(69,205,o),
(103,86,cs),
(122,23,o),
(148,-14,o),
(197,-14,cs)
);
}
);
width = 394;
}
);
metricRight = "=|";
unicode = 73;
userData = {
KernOnName = I;
};
}
{
color = 10;
glyphname = J;
kernLeft = KO_J;
kernRight = KO_J;
layers = (
{
anchors = (
{
name = bottom;
pos = (220,0);
},
{
name = top;
pos = (255,802);
}
);
layerId = "49F060A0-2273-4F54-8B81-08E0B15B03EC";
shapes = (
{
closed = 1;
nodes = (
(183,-14,o),
(236,-10,o),
(288,23,cs),
(388,87,o),
(487,271,o),
(487,483,cs),
(487,709,o),
(374,814,o),
(257,814,cs),
(154,814,o),
(84,735,o),
(98,640,cs),
(106,586,o),
(146,487,o),
(171,427,cs),
(212,329,o),
(228,262,o),
(228,211,cs),
(228,107,o),
(162,92,o),
(133,92,cs),
(107,92,o),
(83,92,o),
(70,92,cs),
(33,92,o),
(15,69,o),
(15,40,cs),
(15,-19,o),
(114,-14,o),
(171,-14,cs)
);
}
);
width = 517;
}
);
unicode = 74;
userData = {
KernOnName = J;
};
}
{
color = 10;
glyphname = K;
kernLeft = KO_K;
kernRight = KO_K;
layers = (
{
associatedMasterId = "49F060A0-2273-4F54-8B81-08E0B15B03EC";
layerId = "00AE1B4D-90BE-44C2-B809-E0523B4F52EB";
name = "3 Dec 23 at 01:22";
shapes = (
{
closed = 1;
nodes = (
(587,178,o),
(508,245,o),
(508,297,cs),
(508,347,o),
(601,383,o),
(673,427,cs),
(755,475,o),
(832,552,o),
(832,644,cs),
(832,735,o),
(756,812,o),
(662,812,cs),
(566,812,o),
(512,732,o),
(489,641,cs),
(479,600,o),
(430,408,o),
(406,375,cs),
(396,361,o),
(382,354,o),
(367,354,cs),
(346,354,o),
(319,369,o),
(319,403,cs),
(319,471,o),
(421,514,o),
(421,632,cs),
(421,738,o),
(343,813,o),
(241,813,cs),
(156,813,o),
(13,742,o),
(13,545,cs),
(13,272,o),
(187,-12,o),
(277,-12,cs),
(310,-12,o),
(328,18,o),
(328,50,cs),
(328,76,o),
(311,119,o),
(311,156,cs),
(311,218,o),
(352,225,o),
(366,225,cs),
(389,225,o),
(410,208,o),
(427,177,cs),
(455,127,o),
(529,-12,o),
(601,-12,cs),
(645,-12,o),
(674,28,o),
(674,64,cs),
(674,83,o),
(666,105,o),
(643,126,cs)
);
}
);
width = 835;
},
{
associatedMasterId = "49F060A0-2273-4F54-8B81-08E0B15B03EC";
layerId = "2D0484B9-20A7-434A-9AE9-07794F3FB103";
name = "30 Jan 24 at 10:35";
shapes = (
{
closed = 1;
nodes = (
(309,-14,o),
(329,13,o),
(329,43,cs),
(329,70,o),
(310,112,o),
(310,150,cs),
(310,170,o),
(319,196,o),
(335,207,cs),
(367,231,o),
(406,213,o),
(427,170,cs),
(450,123,o),
(509,40,o),
(523,25,cs),
(538,8,o),
(569,-13,o),
(601,-13,cs),
(640,-13,o),
(671,23,o),
(671,57,cs),
(671,76,o),
(663,96,o),
(640,117,cs),
(619,137,o),
(506,263,o),
(506,292,cs),
(506,307,o),
(515,324,o),
(531,336,cs),
(558,353,o),
(705,449,o),
(684,436,cs),
(757,483,o),
(827,553,o),
(827,643,cs),
(827,735,o),
(752,814,o),
(659,814,cs),
(564,814,o),
(511,732,o),
(488,640,cs),
(478,600,o),
(430,404,o),
(406,370,cs),
(396,356,o),
(382,349,o),
(368,349,cs),
(348,349,o),
(321,363,o),
(321,399,cs),
(321,468,o),
(421,512,o),
(421,631,cs),
(421,738,o),
(344,814,o),
(243,814,cs),
(159,814,o),
(18,742,o),
(18,543,cs),
(18,281,o),
(148,83,o),
(224,15,cs),
(242,-2,o),
(260,-14,o),
(279,-14,cs)
);
}
);
width = 835;
},
{
anchors = (
{
name = bottom;
pos = (438,3);
},
{
name = top;
pos = (438,801);
}
);
layerId = "49F060A0-2273-4F54-8B81-08E0B15B03EC";
name = Regular;
shapes = (
{
closed = 1;
nodes = (
(318,-14,o),
(339,13,o),
(339,42,cs),
(339,70,o),
(320,115,o),
(320,149,cs),
(320,187,o),
(343,218,o),
(376,218,cs),
(398,218,o),
(420,205,o),
(437,171,cs),
(460,124,o),
(506,57,o),
(534,26,cs),
(556,2,o),
(579,-14,o),
(608,-14,cs),
(652,-14,o),
(681,23,o),
(681,59,cs),
(681,87,o),
(663,104,o),
(650,118,cs),
(627,142,o),
(516,259,o),
(516,296,cs),
(516,308,o),
(527,326,o),
(543,337,cs),
(555,345,o),
(685,429,o),
(714,448,cs),
(793,499,o),
(837,572,o),
(837,642,cs),
(837,734,o),
(762,814,o),
(668,814,cs),
(559,814,o),
(517,708,o),
(498,639,cs),
(481,577,o),
(448,423,o),
(415,371,cs),
(405,355,o),
(395,349,o),
(380,349,cs),
(356,349,o),
(331,364,o),
(331,399,cs),
(331,468,o),
(431,510,o),
(431,631,cs),
(431,737,o),
(353,814,o),
(255,814,cs),
(169,814,o),
(28,754,o),
(28,520,cs),
(28,304,o),
(149,94,o),
(230,18,cs),
(251,-2,o),
(271,-14,o),
(290,-14,cs)
);
}
);
width = 837;
},
{
associatedMasterId = "49F060A0-2273-4F54-8B81-08E0B15B03EC";
layerId = "AFEF35A9-CE5A-44CC-8AE9-86CC0CC61901";
name = "25 Mar 24 at 15:26";
shapes = (
{
closed = 1;
nodes = (
(310,-14,o),
(331,13,o),
(331,42,cs),
(331,70,o),
(312,115,o),
(312,149,cs),
(312,187,o),
(335,218,o),
(368,218,cs),
(390,218,o),
(412,205,o),
(429,171,cs),
(452,124,o),
(539,-14,o),
(600,-14,cs),
(644,-14,o),
(673,23,o),
(673,59,cs),
(673,87,o),
(655,104,o),
(642,118,cs),
(619,142,o),
(508,251,o),
(508,296,cs),
(508,308,o),
(519,326,o),
(535,337,cs),
(547,345,o),
(677,429,o),
(706,448,cs),
(785,499,o),
(829,572,o),
(829,642,cs),
(829,734,o),
(754,814,o),
(660,814,cs),
(551,814,o),
(509,708,o),
(490,639,cs),
(473,577,o),
(440,423,o),
(407,371,cs),
(397,355,o),
(387,349,o),
(372,349,cs),
(348,349,o),
(323,364,o),
(323,399,cs),
(323,468,o),
(423,510,o),
(423,631,cs),
(423,737,o),
(345,814,o),
(247,814,cs),
(161,814,o),
(25,754,o),
(20,520,cs),
(15,296,o),
(186,-14,o),
(282,-14,cs)
);
}
);
width = 829;
}
);
metricLeft = H;
unicode = 75;
}
{
color = 10;
glyphname = L;
kernLeft = KO_L;
kernRight = KO_L;
layers = (
{
associatedMasterId = "49F060A0-2273-4F54-8B81-08E0B15B03EC";
layerId = "A33F79CB-A68F-4D9F-9A07-ACA488F2D0AA";
name = "22 Nov 23 at 08:28";
shapes = (
{
closed = 1;
nodes = (
(360,505,o),
(405,614,o),
(405,664,cs),
(405,759,o),
(326,811,o),
(245,811,cs),
(128,811,o),
(15,711,o),
(15,494,cs),
(15,275,o),
(115,95,o),
(230,20,cs),
(271,-6,o),
(320,-15,o),
(387,-15,cs),
(451,-15,o),
(487,-7,o),
(505,-3,cs),
(535,4,o),
(555,19,o),
(555,47,cs),
(555,74,o),
(534,97,o),
(499,97,cs),
(447,97,o),
(336,88,o),
(300,129,cs),
(267,167,o),
(251,247,o),
(329,432,cs)
);
}
);
visible = 1;
width = 565;
},
{
associatedMasterId = "49F060A0-2273-4F54-8B81-08E0B15B03EC";
backgroundImage = {
imagePath = "/Volumes/ADAM-DOC/DOCUMENTS/Google-project_african languages/20octobre/23 October2023/28 October2023/maremasie2/correction2023-11-20/Screenshot 2023-11-22 at 08.11.17.png";
pos = (-385,-2372);
scale = (13.1772,13.1772);
};
layerId = "FF1DE1CB-7997-4267-AC6F-8973EE21F95A";
name = "3 Dec 23 at 02:35";
shapes = (
{
closed = 1;
nodes = (
(449,-15,o),
(574,13,o),
(574,131,cs),
(574,178,o),
(554,223,o),
(528,223,cs),
(507,223,o),
(491,192,o),
(469,161,cs),
(447,130,o),
(427,110,o),
(405,99,cs),
(355,74,o),
(281,83,o),
(247,123,cs),
(205,172,o),
(249,234,o),
(335,432,cs),
(388,555,o),
(411,624,o),
(411,669,cs),
(411,735,o),
(360,811,o),
(240,811,cs),
(157,811,o),
(18,749,o),
(18,398,cs),
(18,118,o),
(92,-15,o),
(335,-15,cs)
);
}
);
width = 584;
},
{
anchors = (
{
name = bottom;
pos = (308,0);
},
{
name = top;
pos = (278,799);
}
);
background = {
shapes = (
{
closed = 1;
nodes = (
(402,-14,o),
(461,-5,o),
(502,13,cs),
(561,39,o),
(580,82,o),
(565,113,cs),
(557,129,o),
(526,171,o),
(466,134,cs),
(440,118,o),
(411,89,o),
(347,89,cs),
(310,89,o),
(272,99,o),
(254,124,cs),
(188,216,o),
(419,513,o),
(419,663,cs),
(419,735,o),
(366,814,o),
(257,814,cs),
(165,814,o),
(26,757,o),
(26,391,cs),
(26,124,o),
(100,-14,o),
(338,-14,c)
);
}
);
};
layerId = "49F060A0-2273-4F54-8B81-08E0B15B03EC";
name = Regular;
shapes = (
{
closed = 1;
nodes = (
(402,-14,o),
(461,-5,o),
(502,13,cs),
(561,39,o),
(580,82,o),
(565,113,cs),
(557,129,o),
(526,171,o),
(466,134,cs),
(440,118,o),
(411,89,o),
(347,89,cs),
(310,89,o),
(272,99,o),
(254,124,cs),
(188,216,o),
(429,513,o),
(429,663,cs),
(429,735,o),
(376,814,o),
(257,814,cs),
(165,814,o),
(26,757,o),
(26,391,cs),
(26,124,o),
(100,-14,o),
(338,-14,c)
);
}
);
width = 547;
}
);
metricLeft = D;
unicode = 76;
userData = {
KernOnName = L;
};
}
{
color = 10;
glyphname = M;
kernLeft = KO_M;
kernRight = KO_M;
layers = (
{
associatedMasterId = "49F060A0-2273-4F54-8B81-08E0B15B03EC";
layerId = "DB092CDE-D404-4469-ACDE-CA452963F63A";
name = "3 Dec 23 at 03:07";
shapes = (
{
closed = 0;
nodes = (
(852,904,l)
);
},
{
closed = 1;
nodes = (
(492,237,o),
(497,265,o),
(497,307,cs),
(497,322,o),
(497,339,o),
(496,357,cs),
(496,419,o),
(497,451,o),
(503,552,cs),
(516,751,o),
(600,804,o),
(691,804,cs),
(815,804,o),
(911,704,o),
(911,503,cs),
(911,264,o),
(774,84,o),
(697,16,cs),
(678,-1,o),
(661,-13,o),
(642,-13,cs),
(634,-13,o),
(626,-11,o),
(618,-6,cs),
(600,5,o),
(591,22,o),
(591,44,cs),
(591,52,o),
(592,61,o),
(595,71,cs),
(615,142,o),
(640,234,o),
(640,303,cs),
(640,329,o),
(637,343,o),
(633,356,cs),
(626,379,o),
(618,389,o),
(600,389,cs),
(591,389,o),
(574,383,o),
(570,351,cs),
(567,328,o),
(567,307,o),
(567,288,cs),
(567,141,o),
(536,90,o),
(467,90,cs),
(398,90,o),
(367,141,o),
(367,288,cs),
(367,307,o),
(367,328,o),
(364,351,cs),
(360,383,o),
(343,389,o),
(334,389,cs),
(316,389,o),
(308,379,o),
(301,356,cs),
(297,343,o),
(294,329,o),
(294,303,cs),
(294,234,o),
(319,142,o),
(339,71,cs),
(342,61,o),
(343,52,o),
(343,44,cs),
(343,22,o),
(334,5,o),
(316,-6,cs),
(308,-11,o),
(300,-13,o),
(292,-13,cs),
(273,-13,o),
(256,-1,o),
(237,16,cs),
(160,84,o),
(23,264,o),
(23,503,cs),
(23,704,o),
(119,804,o),
(243,804,cs),
(334,804,o),
(418,751,o),
(431,552,cs),
(437,451,o),
(438,419,o),
(438,357,cs),
(437,339,o),
(437,322,o),
(437,307,cs),
(437,265,o),
(442,237,o),
(467,237,c)
);
},
{
closed = 0;
nodes = (
(944,904,l)
);
}
);
width = 931;
},
{
associatedMasterId = "49F060A0-2273-4F54-8B81-08E0B15B03EC";
layerId = "8CDA7CF6-C1E1-462E-A5BE-A5B1674C8582";
name = "3 Dec 23 at 03:08";
shapes = (
{
closed = 1;
nodes = (
(351,185,o),
(366,321,o),
(359,360,cs),
(356,377,o),
(345,389,o),
(331,389,cs),
(313,389,o),
(305,379,o),
(298,356,cs),
(294,343,o),
(291,329,o),
(291,303,cs),
(291,234,o),
(316,142,o),
(336,71,cs),
(347,32,o),
(334,7,o),
(313,-6,cs),
(283,-24,o),
(257,-5,o),
(234,16,cs),
(156,86,o),
(20,264,o),
(20,503,cs),
(20,704,o),
(116,804,o),
(240,804,cs),
(331,804,o),
(396,751,o),
(407,629,cs),
(410,596,o),
(420,432,o),
(428,351,cs),
(429,340,o),
(436,310,o),
(466,310,cs),
(495,310,o),
(502,340,o),
(503,351,cs),
(511,432,o),
(521,596,o),
(524,629,cs),
(535,751,o),
(600,804,o),
(691,804,cs),
(815,804,o),
(911,704,o),
(911,503,cs),
(911,264,o),
(774,84,o),
(697,16,cs),
(670,-8,o),
(646,-23,o),
(618,-6,cs),
(593,9,o),
(585,37,o),
(595,71,cs),
(615,142,o),
(640,234,o),
(640,303,cs),
(640,329,o),
(637,343,o),
(633,356,cs),
(626,379,o),
(618,389,o),
(600,389,cs),
(591,389,o),
(576,383,o),
(572,360,cs),
(565,320,o),
(580,185,o),
(466,185,cs)
);
}
);
width = 931;
},
{
associatedMasterId = "49F060A0-2273-4F54-8B81-08E0B15B03EC";
layerId = "8FD37CEE-F93F-4747-8356-BDD225B69F3C";
name = "25 Mar 24 at 15:01";
shapes = (
{
closed = 1;
nodes = (
(332,-14,o),
(352,27,o),
(341,70,cs),
(335,94,o),
(295,217,o),
(295,305,cs),
(295,362,o),
(312,392,o),
(332,392,cs),
(366,392,o),
(369,310,o),
(369,289,cs),
(369,141,o),
(401,90,o),
(470,90,cs),
(539,90,o),
(571,141,o),
(571,289,cs),
(571,310,o),
(574,392,o),
(608,392,cs),
(628,392,o),
(645,362,o),
(645,305,cs),
(645,217,o),
(605,94,o),
(599,70,cs),
(588,27,o),
(608,-14,o),
(646,-14,cs),
(664,-14,o),
(681,-5,o),
(706,18,cs),
(782,88,o),
(919,266,o),
(919,507,cs),
(919,710,o),
(822,814,o),
(696,814,cs),
(604,814,o),
(518,758,o),
(506,554,cs),
(496,387,o),
(500,538,o),
(500,309,cs),
(500,266,o),
(504,238,o),
(470,238,c),
(438,238,o),
(440,266,o),
(440,309,cs),
(440,471,o),
(443,389,o),
(434,557,cs),
(423,758,o),
(336,814,o),
(244,814,cs),
(118,814,o),
(21,710,o),
(21,507,cs),
(21,266,o),
(158,88,o),
(234,18,cs),
(259,-5,o),
(276,-14,o),
(294,-14,cs)
);
}
);
width = 940;
},
{
anchors = (
{
name = bottom;
pos = (455,0);
},
{
name = top;
pos = (466,802);
}
);
layerId = "49F060A0-2273-4F54-8B81-08E0B15B03EC";
name = Regular;
shapes = (
{
closed = 1;
nodes = (
(335,-14,o),
(355,27,o),
(344,70,cs),
(338,94,o),
(298,217,o),
(298,305,cs),
(298,362,o),
(315,392,o),
(335,392,cs),
(369,392,o),
(372,310,o),
(372,289,cs),
(372,141,o),
(404,90,o),
(473,90,cs),
(542,90,o),
(574,141,o),
(574,289,cs),
(574,310,o),
(577,392,o),
(611,392,cs),
(631,392,o),
(648,362,o),
(648,305,cs),
(648,217,o),
(608,94,o),
(602,70,cs),
(591,27,o),
(611,-14,o),
(648,-14,cs),
(665,-14,o),
(684,-5,o),
(710,18,cs),
(782,82,o),
(922,268,o),
(922,509,cs),
(922,709,o),
(825,814,o),
(699,814,cs),
(607,814,o),
(521,757,o),
(509,555,cs),
(499,387,o),
(504,361,o),
(503,309,cs),
(502,266,o),
(507,238,o),
(473,238,c),
(441,238,o),
(443,266,o),
(443,309,cs),
(443,471,o),
(446,389,o),
(437,557,cs),
(426,758,o),
(339,814,o),
(247,814,cs),
(121,814,o),
(24,709,o),
(24,509,cs),
(24,268,o),
(164,82,o),
(236,18,cs),
(262,-5,o),
(281,-14,o),
(298,-14,cs)
);
}
);
width = 946;
},
{
associatedMasterId = "49F060A0-2273-4F54-8B81-08E0B15B03EC";
layerId = "DAD5F995-F26B-4218-8306-CF1EDC10963D";
name = "26 Mar 24 at 13:32";
shapes = (
{
closed = 1;
nodes = (
(332,-14,o),
(352,27,o),
(341,70,cs),
(335,94,o),
(295,217,o),
(295,305,cs),
(295,362,o),
(312,392,o),
(332,392,cs),
(366,392,o),
(369,310,o),
(369,289,cs),
(369,141,o),
(401,90,o),
(470,90,cs),
(539,90,o),
(571,141,o),
(571,289,cs),
(571,310,o),
(574,392,o),
(608,392,cs),
(628,392,o),
(645,362,o),
(645,305,cs),
(645,217,o),
(605,94,o),
(599,70,cs),
(588,27,o),
(608,-14,o),
(645,-14,cs),
(662,-14,o),
(681,-5,o),
(707,18,cs),
(779,82,o),
(919,268,o),
(919,509,cs),
(919,709,o),
(822,814,o),
(696,814,cs),
(604,814,o),
(518,757,o),
(506,555,cs),
(496,387,o),
(501,361,o),
(500,309,cs),
(499,266,o),
(504,238,o),
(470,238,c),
(438,238,o),
(440,266,o),
(440,309,cs),
(440,471,o),
(443,389,o),
(434,557,cs),
(423,758,o),
(336,814,o),
(244,814,cs),
(118,814,o),
(21,709,o),
(21,509,cs),
(21,268,o),
(161,82,o),
(233,18,cs),
(259,-5,o),
(278,-14,o),
(295,-14,cs)
);
}
);
width = 940;
}
);
metricRight = "=|";
unicode = 77;
userData = {
KernOnName = M;
};
}
{
color = 10;
glyphname = N;
kernLeft = KO_N;
kernRight = KO_N;
layers = (
{
associatedMasterId = "49F060A0-2273-4F54-8B81-08E0B15B03EC";
layerId = "864EA412-A1B0-4732-9889-1B61E932ACFA";
name = "3 Dec 23 at 02:14";
shapes = (
{
closed = 1;
nodes = (
(339,278,o),
(323,288,o),
(306,288,cs),
(285,288,o),
(267,270,o),
(267,248,cs),
(267,231,o),
(268,212,o),
(295,154,cs),
(337,64,ls),
(349,37,o),
(339,0,o),
(312,-12,cs),
(277,-28,o),
(259,-13,o),
(234,10,cs),
(157,78,o),
(20,258,o),
(20,497,cs),
(20,698,o),
(119,798,o),
(234,798,cs),
(331,798,o),
(397,746,o),
(407,616,cs),
(412,558,o),
(423,457,o),
(431,393,cs),
(444,293,o),
(466,182,o),
(487,133,cs),
(495,115,o),
(503,97,o),
(523,97,cs),
(543,97,o),
(556,113,o),
(559,146,cs),
(566,234,o),
(529,387,o),
(520,517,cs),
(505,729,o),
(592,798,o),
(689,798,cs),
(804,798,o),
(879,698,o),
(879,497,cs),
(879,258,o),
(705,-13,o),
(543,-13,cs),
(439,-13,o),
(371,178,o),
(354,230,cs)
);
}
);
width = 894;
},
{
anchors = (
{
name = bottom;
pos = (413,0);
},
{
name = top;
pos = (467,798);
}
);
layerId = "49F060A0-2273-4F54-8B81-08E0B15B03EC";
name = Regular;
shapes = (
{
closed = 1;
nodes = (
(334,-14,o),
(355,2,o),
(355,34,cs),
(355,48,o),
(351,65,o),
(309,154,cs),
(280,215,o),
(260,291,o),
(324,291,cs),
(338,291,o),
(353,286,o),
(364,236,cs),
(385,141,o),
(436,-14,o),
(555,-14,cs),
(712,-14,o),
(904,255,o),
(904,527,cs),
(904,698,o),
(828,814,o),
(709,814,cs),
(619,814,o),
(537,747,o),
(537,576,cs),
(537,453,o),
(579,268,o),
(579,169,cs),
(579,116,o),
(567,91,o),
(542,91,cs),
(524,91,o),
(514,104,o),
(504,133,cs),
(469,234,o),
(434,538,o),
(424,626,cs),
(409,758,o),
(346,814,o),
(254,814,cs),
(113,814,o),
(29,686,o),
(29,512,cs),
(29,256,o),
(210,-14,o),
(310,-14,cs)
);
}
);
width = 933;
}
);
unicode = 78;
userData = {
KernOnName = N;
};
}
{
color = 10;
glyphname = O;
kernLeft = KO_O;
kernRight = KO_O;
layers = (
{
anchors = (
{
name = bottom;
pos = (440,0);
},
{
name = center;
pos = (440,400);
},
{
name = ogonek;
pos = (785,0);
},
{
name = top;
pos = (440,800);
}
);
layerId = "49F060A0-2273-4F54-8B81-08E0B15B03EC";
shapes = (
{
closed = 1;
nodes = (
(668,-14,o),
(850,170,o),
(850,448,cs),
(850,679,o),
(700,814,o),
(439,814,cs),
(179,814,o),
(30,680,o),
(30,451,cs),
(30,171,o),
(217,-14,o),
(447,-14,cs)
);
},
{
closed = 1;
nodes = (
(344,90,o),
(297,156,o),
(297,275,cs),
(297,390,o),
(344,455,o),
(443,455,cs),
(536,455,o),
(583,390,o),
(583,275,cs),
(583,156,o),
(536,90,o),
(443,90,cs)
);
}
);
width = 880;
},
{
associatedMasterId = "49F060A0-2273-4F54-8B81-08E0B15B03EC";
layerId = "E23A4887-BB18-4509-9200-13346919C409";
name = "12 Apr 24 at 03:03";
shapes = (
{
closed = 1;
nodes = (
(659,-14,o),
(841,170,o),
(841,448,cs),
(841,679,o),
(691,814,o),
(430,814,cs),
(170,814,o),
(21,680,o),
(21,451,cs),
(21,171,o),
(208,-14,o),
(438,-14,cs)
);
},
{
closed = 1;
nodes = (
(335,90,o),
(288,156,o),
(288,275,cs),
(288,390,o),
(335,455,o),
(434,455,cs),
(527,455,o),
(574,390,o),
(574,275,cs),
(574,156,o),
(527,90,o),
(434,90,cs)
);
}
);
width = 862;
}
);
unicode = 79;
userData = {
KernOnName = O;
};
}
{
color = 10;
glyphname = P;
kernLeft = KO_P;
kernRight = KO_P;
layers = (
{
associatedMasterId = "49F060A0-2273-4F54-8B81-08E0B15B03EC";
layerId = "4E5DD427-09B5-4FF3-AF8B-7E98CD572F38";
name = "3 Dec 23 at 00:42";
shapes = (
{
closed = 1;
nodes = (
(25,300,o),
(110,73,o),
(246,-4,cs),
(269,-16,o),
(289,-18,o),
(299,-18,cs),
(317,-18,o),
(330,-4,o),
(330,18,cs),
(330,80,ls),
(330,174,o),
(383,177,o),
(426,177,cs),
(506,177,o),
(574,179,o),
(631,197,cs),
(773,243,o),
(841,349,o),
(841,467,cs),
(841,635,o),
(698,808,o),
(423,808,cs),
(181,808,o),
(25,675,o),
(25,469,cs)
);
},
{
closed = 1;
nodes = (
(354,283,o),
(300,315,o),
(300,376,cs),
(300,446,o),
(369,472,o),
(427,472,cs),
(501,472,o),
(554,429,o),
(554,370,cs),
(554,306,o),
(491,283,o),
(428,283,cs)
);
}
);
visible = 1;
width = 851;
},
{
associatedMasterId = "49F060A0-2273-4F54-8B81-08E0B15B03EC";
layerId = "47E5EBD4-6989-45E2-8F91-3C6551288858";
name = "3 Dec 23 at 00:44";
shapes = (
{
closed = 1;
nodes = (
(355,284,o),
(302,316,o),
(302,376,cs),
(302,445,o),
(370,471,o),
(427,471,cs),
(500,471,o),
(553,429,o),
(553,370,cs),
(553,307,o),
(490,284,o),
(428,284,cs)
);
},
{
closed = 1;
nodes = (
(257,-9,o),
(280,-23,o),
(307,-10,cs),
(333,3,o),
(340,34,o),
(330,64,cs),
(299,171,o),
(335,177,o),
(426,180,cs),
(660,186,o),
(836,240,o),
(836,466,cs),
(836,632,o),
(695,803,o),
(423,803,cs),
(184,803,o),
(30,672,o),
(30,468,cs),
(30,308,o),
(108,96,o),
(233,10,c)
);
}
);
width = 850;
},
{
anchors = (
{
name = bottom;
pos = (404,0);
},
{
name = top;
pos = (430,802);
}
);
layerId = "49F060A0-2273-4F54-8B81-08E0B15B03EC";
name = Regular;
shapes = (
{
closed = 1;
nodes = (
(336,-14,o),
(342,30,o),
(334,64,cs),
(331,76,o),
(323,102,o),
(323,125,cs),
(323,166,o),
(350,181,o),
(401,181,cs),
(427,181,o),
(458,178,o),
(485,178,cs),
(686,178,o),
(845,277,o),
(845,460,cs),
(845,635,o),
(699,814,o),
(427,814,cs),
(188,814,o),
(28,674,o),
(28,465,cs),
(28,268,o),
(169,-14,o),
(288,-14,cs)
);
},
{
closed = 1;
nodes = (
(359,284,o),
(306,319,o),
(306,379,cs),
(306,446,o),
(374,472,o),
(431,472,cs),
(504,472,o),
(557,431,o),
(557,373,cs),
(557,311,o),
(494,284,o),
(432,284,cs)
);
}
);
width = 867;
}
);
metricLeft = H;
unicode = 80;
userData = {
KernOnName = P;
};
}
{
color = 10;
glyphname = Q;
kernLeft = KO_O;
kernRight = KO_A;
layers = (
{
associatedMasterId = "49F060A0-2273-4F54-8B81-08E0B15B03EC";
layerId = "BF472FDD-441C-4058-A62C-31B72D3DD3DC";
name = "22 Nov 23 at 09:22";
shapes = (
{
closed = 1;
nodes = (
(662,-14,o),
(844,170,o),
(844,448,cs),
(844,679,o),
(694,811,o),
(433,811,cs),
(173,811,o),
(24,680,o),
(24,451,cs),
(24,171,o),
(211,-14,o),
(441,-14,cs)
);
},
{
closed = 1;
nodes = (
(641,-201,o),
(665,-177,o),
(668,-148,cs),
(674,-109,o),
(644,-80,o),
(576,-53,cs),
(540,-40,o),
(509,-32,o),
(477,-28,cs),
(412,-17,o),
(354,-28,o),
(311,-49,cs),
(289,-61,o),
(283,-74,o),
(286,-84,cs),
(292,-102,o),
(309,-102,o),
(329,-99,cs),
(350,-95,o),
(374,-87,o),
(394,-91,cs),
(430,-96,o),
(477,-112,o),
(532,-154,c),
(557,-171,o),
(584,-193,o),
(604,-196,cs)
);
},
{
closed = 1;
nodes = (
(338,94,o),
(291,156,o),
(291,275,cs),
(291,390,o),
(338,455,o),
(437,455,cs),
(530,455,o),
(577,390,o),
(577,275,cs),
(577,156,o),
(530,94,o),
(437,94,cs)
);
}
);
visible = 1;
width = 853;
},
{
associatedMasterId = "49F060A0-2273-4F54-8B81-08E0B15B03EC";
layerId = "3B4B08E0-E047-442D-A63F-538096629541";
name = "23 Nov 23 at 01:45";
shapes = (
{
closed = 1;
nodes = (
(339,96,o),
(292,158,o),
(292,277,cs),
(292,392,o),
(339,457,o),
(438,457,cs),
(531,457,o),
(578,392,o),
(578,277,cs),
(578,158,o),
(531,96,o),
(438,96,cs)
);
},
{
closed = 1;
nodes = (
(497,-11,o),
(572,0,o),
(606,0,cs),
(658,0,o),
(738,-15,o),
(759,-15,cs),
(818,-15,o),
(837,8,o),
(837,40,cs),
(837,93,o),
(781,98,o),
(732,93,cs),
(721,92,o),
(715,95,o),
(715,101,cs),
(715,106,o),
(717,108,o),
(723,114,c),
(799,194,o),
(845,310,o),
(845,450,cs),
(845,681,o),
(695,813,o),
(434,813,cs),
(174,813,o),
(25,682,o),
(25,453,cs),
(25,173,o),
(212,-12,o),
(437,-12,cs)
);
}
);
width = 870;
},
{
associatedMasterId = "49F060A0-2273-4F54-8B81-08E0B15B03EC";
layerId = "45AA5BAD-8B57-4C49-86AB-E7072AFD29CB";
name = "23 Nov 23 at 01:46";
shapes = (
{
closed = 1;
nodes = (
(809,-95,o),
(833,-56,o),
(829,-16,cs),
(824,28,o),
(792,54,o),
(730,70,cs),
(711,75,o),
(706,92,o),
(718,105,cs),
(796,186,o),
(844,305,o),
(844,448,cs),
(844,679,o),
(694,811,o),
(433,811,cs),
(173,811,o),
(24,680,o),
(24,451,cs),
(24,235,o),
(135,75,o),
(291,14,cs),
(309,8,o),
(318,-7,o),
(301,-22,cs),
(279,-40,o),
(266,-60,o),
(268,-75,cs),
(268,-80,o),
(270,-84,o),
(273,-86,c),
(277,-92,o),
(284,-94,o),
(289,-93,cs),
(297,-92,o),
(308,-85,o),
(328,-74,cs),
(350,-60,o),
(386,-36,o),
(444,-30,cs),
(494,-25,o),
(561,-32,o),
(650,-69,cs),
(687,-82,o),
(731,-103,o),
(760,-100,cs)
);
},
{
closed = 1;
nodes = (
(291,390,o),
(338,455,o),
(437,455,cs),
(530,455,o),
(577,390,o),
(577,275,cs),
(577,156,o),
(530,94,o),
(437,94,cs),
(338,94,o),
(291,156,o),
(291,275,cs)
);
}
);
visible = 1;
width = 862;
},
{
anchors = (
{
name = bottom;
pos = (410,0);
},
{
name = "new anchor";
pos = (715,0);
},
{
name = top;
pos = (436,802);
}
);
layerId = "49F060A0-2273-4F54-8B81-08E0B15B03EC";
name = Regular;
shapes = (
{
closed = 1;
nodes = (
(704,-171,o),
(728,-127,o),
(724,-87,cs),
(719,-43,o),
(686,-16,o),
(621,0,cs),
(601,5,o),
(598,18,o),
(617,27,cs),
(754,95,o),
(850,247,o),
(850,449,cs),
(850,680,o),
(700,814,o),
(439,814,cs),
(179,814,o),
(30,681,o),
(30,452,cs),
(30,235,o),
(143,74,o),
(301,13,cs),
(317,7,o),
(318,-6,o),
(301,-14,cs),
(266,-30,o),
(231,-52,o),
(201,-77,cs),
(171,-103,o),
(148,-132,o),
(162,-151,cs),
(177,-172,o),
(198,-164,o),
(223,-145,cs),
(243,-130,o),
(281,-107,o),
(339,-101,cs),
(389,-96,o),
(456,-103,o),
(545,-140,cs),
(582,-153,o),
(626,-171,o),
(655,-171,cs)
);
},
{
closed = 1;
nodes = (
(344,92,o),
(297,157,o),
(297,276,cs),
(297,391,o),
(344,456,o),
(443,456,cs),
(536,456,o),
(583,391,o),
(583,276,cs),
(583,157,o),
(536,92,o),
(443,92,cs)
);
}
);
visible = 1;
width = 880;
}
);
metricLeft = O;
metricRight = O;
unicode = 81;
}
{
color = 10;
glyphname = R;
kernLeft = KO_R;
kernRight = KO_R;
layers = (
{
associatedMasterId = "49F060A0-2273-4F54-8B81-08E0B15B03EC";
layerId = "B6832C63-FE6B-4D93-84F1-CAD089955EE3";
name = "3 Dec 23 at 00:53";
width = 855;
},
{
associatedMasterId = "49F060A0-2273-4F54-8B81-08E0B15B03EC";
layerId = "DA361D3A-1711-49DC-B7D5-E060D36968A2";
name = "3 Dec 23 at 01:08";
shapes = (
{
closed = 1;
nodes = (
(359,284,o),
(305,316,o),
(305,378,cs),
(305,448,o),
(374,475,o),
(433,475,cs),
(508,475,o),
(561,431,o),
(561,372,cs),
(561,307,o),
(498,284,o),
(434,284,cs)
);
},
{
closed = 1;
nodes = (
(26,301,o),
(134,77,o),
(269,0,cs),
(286,-9,o),
(300,-15,o),
(313,-15,cs),
(352,-15,o),
(357,26,o),
(349,56,cs),
(329,132,o),
(326,182,o),
(400,182,cs),
(457,182,o),
(493,128,o),
(499,119,cs),
(524,82,o),
(578,-15,o),
(627,-15,cs),
(661,-15,o),
(709,32,o),
(650,202,cs),
(647,212,o),
(651,220,o),
(660,223,cs),
(766,251,o),
(846,349,o),
(846,467,cs),
(846,468,ls),
(846,636,o),
(702,811,o),
(426,811,cs),
(185,811,o),
(26,677,o),
(26,471,cs)
);
}
);
width = 855;
},
{
associatedMasterId = "49F060A0-2273-4F54-8B81-08E0B15B03EC";
layerId = "BCA43443-1C7A-4EDC-AC3E-543C38DE481E";
name = "3 Dec 23 at 01:19";
shapes = (
{
closed = 1;
nodes = (
(359,282,o),
(304,315,o),
(304,377,cs),
(304,447,o),
(374,474,o),
(433,474,cs),
(508,474,o),
(562,430,o),
(562,371,cs),
(562,306,o),
(498,282,o),
(434,282,cs)
);
},
{
closed = 1;
nodes = (
(667,130,o),
(633,159,o),
(604,189,cs),
(601,192,o),
(593,198,o),
(593,207,c),
(593,215,o),
(600,220,o),
(607,221,cs),
(616,222,o),
(848,242,o),
(848,466,cs),
(848,467,ls),
(848,636,o),
(703,812,o),
(426,812,cs),
(184,812,o),
(24,677,o),
(24,470,cs),
(24,309,o),
(118,104,o),
(241,14,cs),
(261,-1,o),
(279,-14,o),
(298,-14,cs),
(325,-14,o),
(347,11,o),
(347,42,cs),
(347,62,o),
(327,114,o),
(327,147,cs),
(327,167,o),
(336,192,o),
(352,203,cs),
(362,210,o),
(377,214,o),
(392,214,cs),
(419,214,o),
(448,201,o),
(468,168,cs),
(491,130,o),
(551,41,o),
(565,25,cs),
(582,4,o),
(611,-14,o),
(641,-14,cs),
(655,-14,o),
(670,-10,o),
(684,1,cs),
(698,12,o),
(713,32,o),
(713,57,cs),
(713,75,o),
(705,96,o),
(682,117,c)
);
}
);
width = 855;
},
{
anchors = (
{
name = bottom;
pos = (430,0);
},
{
name = top;
pos = (430,815);
}
);
layerId = "49F060A0-2273-4F54-8B81-08E0B15B03EC";
name = Regular;
shapes = (
{
closed = 1;
nodes = (
(705,-14,o),
(748,60,o),
(686,117,cs),
(671,130,o),
(637,159,o),
(608,189,cs),
(605,192,o),
(597,198,o),
(597,207,cs),
(597,215,o),
(604,220,o),
(611,221,cs),
(620,222,o),
(852,242,o),
(852,467,cs),
(852,636,o),
(707,814,o),
(430,814,cs),
(188,814,o),
(28,677,o),
(28,470,cs),
(28,244,o),
(211,-14,o),
(302,-14,cs),
(343,-14,o),
(354,27,o),
(344,66,cs),
(332,112,o),
(312,180,o),
(396,180,cs),
(423,180,o),
(449,167,o),
(472,141,cs),
(512,95,o),
(566,-14,o),
(645,-14,cs)
);
},
{
closed = 1;
nodes = (
(363,285,o),
(308,320,o),
(308,380,cs),
(308,448,o),
(378,471,o),
(437,471,cs),
(512,471,o),
(566,431,o),
(566,374,cs),
(566,311,o),
(502,285,o),
(438,285,c)
);
}
);
width = 877;
}
);
metricLeft = H;
unicode = 82;
}
{
color = 10;
glyphname = S;
kernLeft = KO_S;
kernRight = KO_S;
layers = (
{
associatedMasterId = "49F060A0-2273-4F54-8B81-08E0B15B03EC";
guides = (
{
pos = (675,706);
}
);
hints = (
{
horizontal = 1;
place = (700,-20);
target = down;
type = TopGhost;
}
);
layerId = "7D607833-7CC4-451C-91FA-D20CE39492CB";
name = "4 Dec 23 at 21:34";
shapes = (
{
closed = 1;
nodes = (
(88,185,o),
(10,327,o),
(10,468,cs),
(10,708,o),
(238,800,o),
(427,800,cs),
(593,800,o),
(725,729,o),
(725,590,cs),
(725,503,o),
(673,433,o),
(581,433,cs),
(515,433,o),
(458,469,o),
(388,469,cs),
(327,469,o),
(313,442,o),
(313,410,cs),
(313,369,o),
(336,341,o),
(385,343,cs),
(555,350,o),
(656,302,o),
(656,184,cs),
(656,69,o),
(561,-14,o),
(340,-14,cs),
(246,-14,o),
(194,1,o),
(163,14,cs),
(113,35,o),
(103,58,o),
(103,82,cs),
(103,130,o),
(142,145,o),
(201,132,cs),
(228,126,o),
(296,105,o),
(359,105,cs),
(431,105,o),
(467,132,o),
(467,165,cs),
(467,185,o),
(453,199,o),
(380,199,c)
);
}
);
width = 735;
},
{
associatedMasterId = "49F060A0-2273-4F54-8B81-08E0B15B03EC";
backgroundImage = {
imagePath = "/Volumes/ADAM-DOC/DOCUMENTS/Google-project_african languages/20octobre/23 October2023/28 October2023/From-Lisa/new_correction_2023:12:19/Screenshot 2023-12-22 at 18.16.37.png";
locked = 1;
pos = (-213,-137);
scale = (15.6277,15.6277);
};
guides = (
{
pos = (625,706);
}
);
hints = (
{
horizontal = 1;
place = (700,-20);
target = down;
type = TopGhost;
}
);
layerId = "99DBC5AD-4920-4022-8BDF-87D5B62D97C4";
name = "22 Dec 23 at 18:45";
shapes = (
{
closed = 1;
nodes = (
(344,376,o),
(368,358,o),
(416,358,cs),
(515,358,o),
(614,298,o),
(614,191,cs),
(614,64,o),
(474,-14,o),
(322,-14,cs),
(237,-14,o),
(49,10,o),
(49,92,cs),
(49,121,o),
(72,144,o),
(100,144,cs),
(112,144,o),
(124,140,o),
(138,134,cs),
(169,121,o),
(233,90,o),
(320,90,cs),
(401,90,o),
(460,117,o),
(460,160,cs),
(460,177,o),
(451,203,o),
(377,203,cs),
(157,203,o),
(10,285,o),
(10,484,cs),
(10,674,o),
(143,817,o),
(398,817,cs),
(588,817,o),
(701,736,o),
(701,589,cs),
(701,494,o),
(654,445,o),
(564,445,cs),
(500,445,o),
(453,470,o),
(408,470,cs),
(363,470,o),
(344,445,o),
(344,413,cs)
);
}
);
width = 711;
},
{
associatedMasterId = "49F060A0-2273-4F54-8B81-08E0B15B03EC";
backgroundImage = {
imagePath = "/Volumes/ADAM-DOC/DOCUMENTS/Google-project_african languages/20octobre/23 October2023/28 October2023/From-Lisa/new_correction_2023:12:19/7Janvier2024/Screenshot 2024-01-08 at 02.37.46.png";
pos = (-49,-309);
scale = (14.4907,14.4907);
};
guides = (
{
pos = (625,706);
}
);
hints = (
{
horizontal = 1;
place = (700,-20);
target = down;
type = TopGhost;
},
{
place = (11,30);
type = Stem;
}
);
layerId = "96FBB2DA-F47C-49BB-B025-F6A1A3EB31A6";
name = "9 Jan 24 at 02:16";
shapes = (
{
closed = 1;
nodes = (
(157,202,o),
(10,284,o),
(10,490,cs),
(10,675,o),
(152,813,o),
(386,813,cs),
(595,813,o),
(701,737,o),
(701,588,cs),
(701,494,o),
(654,444,o),
(561,444,cs),
(497,444,o),
(443,469,o),
(370,469,cs),
(310,469,o),
(270,451,o),
(270,389,cs),
(270,341,o),
(297,307,o),
(358,307,cs),
(517,307,o),
(614,276,o),
(614,172,cs),
(614,34,o),
(448,-15,o),
(324,-15,cs),
(236,-15,o),
(49,10,o),
(49,89,cs),
(49,120,o),
(72,143,o),
(101,143,cs),
(112,143,o),
(124,140,o),
(137,133,cs),
(197,104,o),
(262,90,o),
(324,90,cs),
(399,90,o),
(460,116,o),
(460,159,cs),
(460,176,o),
(451,202,o),
(377,202,cs)
);
}
);
width = 711;
},
{
anchors = (
{
name = bottom;
pos = (381,0);
},
{
name = top;
pos = (411,800);
}
);
guides = (
{
pos = (635,706);
}
);
hints = (
{
horizontal = 1;
place = (700,-20);
target = down;
type = TopGhost;
}
);
layerId = "49F060A0-2273-4F54-8B81-08E0B15B03EC";
name = Regular;
shapes = (
{
closed = 1;
nodes = (
(549,-14,o),
(654,69,o),
(654,166,cs),
(654,293,o),
(534,356,o),
(404,356,cs),
(326,356,o),
(302,373,o),
(302,410,cs),
(302,442,o),
(321,467,o),
(366,467,cs),
(411,467,o),
(510,442,o),
(574,442,cs),
(664,442,o),
(711,491,o),
(711,585,cs),
(711,731,o),
(598,814,o),
(408,814,cs),
(153,814,o),
(20,669,o),
(20,481,cs),
(20,283,o),
(167,202,o),
(399,202,cs),
(485,202,o),
(494,176,o),
(494,159,cs),
(494,116,o),
(435,89,o),
(353,89,cs),
(264,89,o),
(200,120,o),
(169,133,cs),
(155,139,o),
(143,143,o),
(131,143,cs),
(103,143,o),
(80,120,o),
(80,91,cs),
(80,10,o),
(268,-14,o),
(362,-14,cs)
);
}
);
width = 721;
}
);
unicode = 83;
userData = {
KernOnName = S;
};
}
{
color = 10;
glyphname = T;
kernLeft = KO_T;
kernRight = KO_T;
layers = (
{
anchors = (
{
name = bottom;
pos = (411,0);
},
{
name = top;
pos = (441,800);
}
);
layerId = "49F060A0-2273-4F54-8B81-08E0B15B03EC";
shapes = (
{
closed = 1;
nodes = (
(455,-14,o),
(474,11,o),
(481,68,cs),
(487,116,o),
(488,137,o),
(504,378,cs),
(508,429,o),
(524,444,o),
(561,445,cs),
(562,445,o),
(637,443,o),
(655,443,cs),
(760,443,o),
(823,513,o),
(823,606,cs),
(823,743,o),
(686,814,o),
(419,814,cs),
(152,814,o),
(15,743,o),
(15,606,cs),
(15,513,o),
(78,443,o),
(183,443,cs),
(201,443,o),
(276,445,o),
(277,445,cs),
(314,444,o),
(330,429,o),
(334,378,cs),
(350,137,o),
(351,116,o),
(357,68,cs),
(364,11,o),
(383,-14,o),
(422,-14,cs)
);
}
);
width = 838;
}
);
unicode = 84;
userData = {
KernOnName = T;
};
}
{
color = 10;
glyphname = U;
kernLeft = KO_U;
kernRight = KO_U;
layers = (
{
anchors = (
{
name = bottom;
pos = (444,0);
},
{
name = ogonek;
pos = (791,0);
},
{
name = top;
pos = (444,800);
},
{
name = topright;
pos = (858,800);
}
);
layerId = "49F060A0-2273-4F54-8B81-08E0B15B03EC";
shapes = (
{
closed = 1;
nodes = (
(698,-14,o),
(868,204,o),
(868,463,cs),
(868,696,o),
(790,814,o),
(647,814,cs),
(592,814,o),
(501,775,o),
(501,669,cs),
(501,561,o),
(597,365,o),
(597,233,cs),
(597,137,o),
(548,90,o),
(449,90,cs),
(350,90,o),
(301,137,o),
(301,233,cs),
(301,365,o),
(397,561,o),
(397,669,cs),
(397,775,o),
(306,814,o),
(251,814,cs),
(108,814,o),
(30,696,o),
(30,463,cs),
(30,204,o),
(200,-14,o),
(449,-14,cs)
);
}
);
width = 898;
}
);
metricLeft = O;
metricRight = "=|";
unicode = 85;
userData = {
KernOnName = U;
};
}
{
color = 10;
glyphname = V;
kernLeft = KO_V;
kernRight = KO_V;
layers = (
{
anchors = (
{
name = bottom;
pos = (439,0);
},
{
name = top;
pos = (436,800);
}
);
layerId = "49F060A0-2273-4F54-8B81-08E0B15B03EC";
shapes = (
{
closed = 1;
locked = 1;
nodes = (
(602,-14,o),
(766,224,o),
(827,447,cs),
(891,685,o),
(804,814,o),
(663,814,cs),
(590,814,o),
(499,780,o),
(499,672,cs),
(499,614,o),
(524,514,o),
(524,435,cs),
(524,345,o),
(514,210,o),
(495,157,cs),
(484,125,o),
(465,89,o),
(433,89,cs),
(403,89,o),
(384,125,o),
(373,157,cs),
(354,210,o),
(344,345,o),
(344,435,cs),
(344,514,o),
(369,614,o),
(369,672,cs),
(369,780,o),
(278,814,o),
(205,814,cs),
(64,814,o),
(-23,685,o),
(41,447,cs),
(102,224,o),
(266,-14,o),
(434,-14,c)
);
}
);
width = 868;
},
{
associatedMasterId = "49F060A0-2273-4F54-8B81-08E0B15B03EC";
layerId = "7F796A00-EECF-4D6F-B602-CD86FD9445B2";
name = "3 Nov 23 at 01:24";
shapes = (
{
closed = 1;
nodes = (
(271,-17,o),
(110,216,o),
(51,435,cs),
(-12,668,o),
(73,793,o),
(211,793,cs),
(283,793,o),
(372,762,o),
(372,656,cs),
(372,599,o),
(348,501,o),
(348,423,cs),
(348,335,o),
(358,203,o),
(376,151,cs),
(387,119,o),
(406,96,o),
(435,96,cs),
(466,96,o),
(485,119,o),
(496,151,cs),
(514,203,o),
(524,335,o),
(524,423,cs),
(524,501,o),
(500,599,o),
(500,656,cs),
(500,762,o),
(589,793,o),
(661,793,cs),
(799,793,o),
(884,668,o),
(821,435,cs),
(762,216,o),
(601,-17,o),
(436,-17,cs)
);
}
);
width = 872;
}
);
metricRight = "=|";
unicode = 86;
userData = {
KernOnName = V;
};
}
{
color = 10;
glyphname = W;
kernLeft = KO_W;
kernRight = KO_W;
layers = (
{
associatedMasterId = "49F060A0-2273-4F54-8B81-08E0B15B03EC";
layerId = "8FD88CA7-B8CE-4685-AC88-026BDD5F3EC9";
name = "6 Dec 23 at 05:23";
shapes = (
{
closed = 1;
nodes = (
(379,311,o),
(375,363,o),
(378,416,cs),
(384,537,o),
(416,600,o),
(482,600,cs),
(548,600,o),
(580,537,o),
(586,416,cs),
(589,365,o),
(586,312,o),
(590,284,cs),
(592,269,o),
(598,245,o),
(623,245,cs),
(649,245,o),
(658,275,o),
(660,282,cs),
(669,314,o),
(666,366,o),
(654,423,cs),
(632,528,o),
(591,594,o),
(591,674,cs),
(591,764,o),
(644,811,o),
(734,811,cs),
(864,811,o),
(948,712,o),
(948,516,cs),
(948,245,o),
(788,-13,o),
(621,-13,cs),
(565,-13,o),
(531,10,o),
(531,67,cs),
(531,95,o),
(524,266,o),
(524,273,cs),
(524,318,o),
(514,350,o),
(483,350,cs),
(452,350,o),
(442,315,o),
(442,273,cs),
(442,255,o),
(435,95,o),
(435,67,cs),
(435,11,o),
(401,-15,o),
(347,-15,cs),
(176,-15,o),
(16,244,o),
(16,516,cs),
(16,713,o),
(100,811,o),
(230,811,cs),
(320,811,o),
(373,764,o),
(373,674,cs),
(373,594,o),
(332,528,o),
(310,423,cs),
(293,343,o),
(299,300,o),
(304,282,cs),
(306,275,o),
(315,245,o),
(341,245,cs),
(367,245,o),
(373,272,o),
(374,283,c)
);
},
{
closed = 0;
nodes = (
(868,-105,l)
);
},
{
closed = 0;
nodes = (
(960,-105,l)
);
}
);
width = 964;
},
{
anchors = (
{
name = top;
pos = (495,796);
}
);
layerId = "49F060A0-2273-4F54-8B81-08E0B15B03EC";
name = Regular;
shapes = (
{
closed = 1;
nodes = (
(411,-14,o),
(452,25,o),
(452,93,cs),
(452,137,o),
(448,191,o),
(448,237,cs),
(448,300,o),
(455,350,o),
(492,350,cs),
(529,350,o),
(536,300,o),
(536,237,cs),
(536,191,o),
(532,137,o),
(532,93,cs),
(532,25,o),
(573,-14,o),
(629,-14,cs),
(797,-14,o),
(957,245,o),
(957,516,cs),
(957,713,o),
(873,814,o),
(743,814,cs),
(652,814,o),
(599,765,o),
(599,675,cs),
(599,594,o),
(685,409,o),
(685,262,cs),
(685,216,o),
(674,179,o),
(640,179,cs),
(594,179,o),
(597,365,o),
(594,416,cs),
(588,537,o),
(556,600,o),
(492,600,cs),
(428,600,o),
(396,537,o),
(390,416,cs),
(387,365,o),
(390,179,o),
(344,179,cs),
(310,179,o),
(299,216,o),
(299,262,cs),
(299,409,o),
(385,594,o),
(385,675,cs),
(385,765,o),
(332,814,o),
(241,814,cs),
(111,814,o),
(27,713,o),
(27,516,cs),
(27,245,o),
(187,-14,o),
(355,-14,cs)
);
}
);
width = 984;
},
{
associatedMasterId = "49F060A0-2273-4F54-8B81-08E0B15B03EC";
layerId = "FD8664C1-1B1A-43A8-B74E-69A22E498830";
name = "19 Jan 24 at 02:18";
shapes = (
{
closed = 1;
nodes = (
(444,349,o),
(437,299,o),
(437,236,cs),
(437,190,o),
(441,136,o),
(441,92,cs),
(441,24,o),
(400,-15,o),
(344,-15,cs),
(176,-15,o),
(16,244,o),
(16,515,cs),
(16,712,o),
(94,811,o),
(224,811,cs),
(315,811,o),
(368,764,o),
(368,674,cs),
(368,593,o),
(282,408,o),
(282,261,cs),
(282,215,o),
(293,178,o),
(327,178,cs),
(373,178,o),
(376,364,o),
(379,415,cs),
(385,536,o),
(417,599,o),
(481,599,cs),
(545,599,o),
(577,536,o),
(583,415,cs),
(586,364,o),
(589,178,o),
(635,178,cs),
(669,178,o),
(680,215,o),
(680,261,cs),
(680,408,o),
(594,593,o),
(594,674,cs),
(594,764,o),
(647,811,o),
(738,811,cs),
(868,811,o),
(946,712,o),
(946,515,cs),
(946,244,o),
(786,-15,o),
(618,-15,cs),
(562,-15,o),
(521,24,o),
(521,92,cs),
(521,136,o),
(525,190,o),
(525,236,cs),
(525,299,o),
(518,349,o),
(481,349,cs)
);
}
);
width = 962;
}
);
metricRight = "=|";
unicode = 87;
}
{
color = 10;
glyphname = X;
kernLeft = KO_X;
kernRight = KO_X;
layers = (
{
associatedMasterId = "49F060A0-2273-4F54-8B81-08E0B15B03EC";
layerId = "73650C7A-5827-4757-8B84-509F379E88C8";
name = "6 Dec 23 at 05:51";
shapes = (
{
closed = 0;
nodes = (
(-484,810,l)
);
},
{
closed = 0;
nodes = (
(499,174,l)
);
},
{
closed = 1;
nodes = (
(490,183,o),
(495,180,o),
(499,174,cs),
(524,136,o),
(536,124,o),
(564,98,cs),
(636,34,o),
(727,0,o),
(810,-10,cs),
(857,-16,o),
(883,-10,o),
(895,10,cs),
(907,28,o),
(907,55,o),
(877,80,cs),
(842,109,o),
(774,128,o),
(711,196,cs),
(684,225,o),
(658,264,o),
(658,308,cs),
(658,357,o),
(689,407,o),
(774,426,cs),
(868,448,o),
(934,511,o),
(934,611,cs),
(934,733,o),
(837,810,o),
(739,810,cs),
(658,810,o),
(589,758,o),
(554,709,cs),
(545,697,o),
(529,673,o),
(521,650,cs),
(514,630,o),
(513,621,o),
(512,610,cs),
(511,595,o),
(499,586,o),
(485,586,cs),
(471,586,o),
(459,595,o),
(458,610,cs),
(457,621,o),
(456,630,o),
(449,650,cs),
(441,673,o),
(425,697,o),
(416,709,cs),
(381,758,o),
(312,810,o),
(231,810,cs),
(133,810,o),
(36,733,o),
(36,611,cs),
(36,511,o),
(102,448,o),
(196,426,cs),
(281,407,o),
(312,357,o),
(312,308,cs),
(312,264,o),
(286,225,o),
(259,196,cs),
(196,128,o),
(128,109,o),
(93,80,cs),
(63,55,o),
(63,28,o),
(75,10,cs),
(87,-10,o),
(113,-16,o),
(160,-10,cs),
(243,0,o),
(334,34,o),
(406,98,cs),
(434,124,o),
(446,136,o),
(471,174,cs),
(475,180,o),
(480,183,o),
(485,183,cs)
);
}
);
width = 970;
},
{
anchors = (
{
name = bottom;
pos = (418,3);
},
{
name = top;
pos = (410,801);
}
);
layerId = "49F060A0-2273-4F54-8B81-08E0B15B03EC";
name = Regular;
shapes = (
{
closed = 1;
nodes = (
(266,-14,o),
(352,57,o),
(390,128,cs),
(405,156,o),
(408,175,o),
(433,175,cs),
(458,175,o),
(461,156,o),
(476,128,cs),
(514,57,o),
(600,-14,o),
(673,-14,cs),
(725,-14,o),
(755,22,o),
(755,56,cs),
(755,77,o),
(744,102,o),
(704,114,cs),
(671,124,o),
(545,150,o),
(539,241,cs),
(531,376,o),
(810,399,o),
(843,605,cs),
(861,721,o),
(789,814,o),
(685,814,cs),
(589,814,o),
(476,734,o),
(463,542,cs),
(461,511,o),
(450,495,o),
(433,495,cs),
(416,495,o),
(405,511,o),
(403,542,cs),
(390,734,o),
(277,814,o),
(181,814,cs),
(77,814,o),
(5,721,o),
(23,605,cs),
(56,399,o),
(335,376,o),
(327,241,cs),
(321,150,o),
(195,124,o),
(162,114,cs),
(122,102,o),
(111,77,o),
(111,56,cs),
(111,22,o),
(141,-14,o),
(193,-14,cs)
);
}
);
width = 866;
},
{
associatedMasterId = "49F060A0-2273-4F54-8B81-08E0B15B03EC";
layerId = "AAD3B653-7D55-47A6-AB48-4633C88691AE";
name = "8 Jan 24 at 04:14";
shapes = (
{
closed = 1;
nodes = (
(440,495,o),
(451,511,o),
(453,542,cs),
(466,734,o),
(579,811,o),
(675,811,cs),
(779,811,o),
(851,721,o),
(833,605,cs),
(800,399,o),
(521,376,o),
(529,241,cs),
(535,150,o),
(661,124,o),
(694,114,cs),
(734,102,o),
(745,77,o),
(745,56,cs),
(745,22,o),
(715,-15,o),
(663,-15,cs),
(590,-15,o),
(504,57,o),
(466,128,cs),
(451,156,o),
(448,175,o),
(423,175,cs),
(398,175,o),
(395,156,o),
(380,128,cs),
(342,57,o),
(256,-15,o),
(183,-15,cs),
(131,-15,o),
(101,22,o),
(101,56,cs),
(101,77,o),
(112,102,o),
(152,114,cs),
(185,124,o),
(311,150,o),
(317,241,cs),
(325,376,o),
(46,399,o),
(13,605,cs),
(-5,721,o),
(67,811,o),
(171,811,cs),
(267,811,o),
(380,734,o),
(393,542,cs),
(395,511,o),
(406,495,o),
(423,495,cs)
);
}
);
width = 846;
}
);
metricRight = "=|";
unicode = 88;
}
{
color = 10;
glyphname = Y;
kernLeft = KO_Y;
kernRight = KO_Y;
layers = (
{
associatedMasterId = "49F060A0-2273-4F54-8B81-08E0B15B03EC";
guides = (
{
pos = (705,-79);
}
);
layerId = "14DB5A98-F06F-4F42-BACC-8AA4AEA725BB";
name = "4 Dec 23 at 23:44";
shapes = (
{
closed = 1;
nodes = (
(359,180,o),
(377,163,o),
(377,137,cs),
(377,111,o),
(358,90,o),
(308,90,cs),
(282,90,o),
(216,96,o),
(195,96,cs),
(158,96,o),
(136,77,o),
(136,47,cs),
(136,19,o),
(156,5,o),
(186,-2,cs),
(208,-7,o),
(267,-16,o),
(312,-16,cs),
(540,-16,o),
(635,217,o),
(674,377,cs),
(745,670,o),
(647,810,o),
(525,810,cs),
(473,810,o),
(407,785,o),
(407,704,cs),
(407,661,o),
(426,552,o),
(426,476,cs),
(426,423,o),
(417,357,o),
(404,322,cs),
(394,295,o),
(379,280,o),
(354,280,cs),
(329,280,o),
(314,296,o),
(304,322,cs),
(292,353,o),
(281,413,o),
(281,470,cs),
(281,545,o),
(300,660,o),
(300,704,cs),
(300,787,o),
(232,810,o),
(181,810,cs),
(75,810,o),
(15,712,o),
(15,559,cs),
(15,333,o),
(150,180,o),
(326,181,c)
);
}
);
width = 718;
},
{
associatedMasterId = "49F060A0-2273-4F54-8B81-08E0B15B03EC";
guides = (
{
pos = (705,-79);
}
);
layerId = "70F9C790-2BB2-4822-9E34-22986CDAB940";
name = "5 Dec 23 at 01:20";
shapes = (
{
closed = 1;
nodes = (
(359,180,o),
(377,163,o),
(377,137,cs),
(377,111,o),
(358,90,o),
(308,90,cs),
(282,90,o),
(216,96,o),
(195,96,cs),
(158,96,o),
(136,77,o),
(136,47,cs),
(136,19,o),
(156,5,o),
(186,-2,cs),
(208,-7,o),
(267,-16,o),
(312,-16,cs),
(540,-16,o),
(635,217,o),
(674,377,cs),
(745,670,o),
(647,810,o),
(525,810,cs),
(473,810,o),
(407,785,o),
(407,704,cs),
(407,661,o),
(426,552,o),
(426,476,cs),
(426,423,o),
(417,357,o),
(404,322,cs),
(394,295,o),
(379,280,o),
(354,280,cs),
(329,280,o),
(314,296,o),
(304,322,cs),
(292,353,o),
(281,413,o),
(281,470,cs),
(281,545,o),
(300,660,o),
(300,704,cs),
(300,787,o),
(232,810,o),
(181,810,cs),
(75,810,o),
(15,712,o),
(15,559,cs),
(15,333,o),
(150,180,o),
(326,181,c)
);
}
);
width = 718;
},
{
associatedMasterId = "49F060A0-2273-4F54-8B81-08E0B15B03EC";
guides = (
{
pos = (719,-79);
}
);
layerId = "046CCE24-7F4E-4CD3-98AA-EDCA33C08658";
name = "16 Jan 24 at 02:46";
shapes = (
{
closed = 1;
nodes = (
(471,122,o),
(389,90,o),
(343,88,cs),
(293,86,o),
(248,105,o),
(222,107,cs),
(180,111,o),
(152,84,o),
(152,52,cs),
(152,-20,o),
(288,-14,o),
(334,-14,cs),
(527,-14,o),
(664,147,o),
(722,378,cs),
(794,664,o),
(681,800,o),
(551,800,cs),
(508,800,o),
(421,785,o),
(421,702,cs),
(421,663,o),
(440,551,o),
(440,475,cs),
(440,423,o),
(431,357,o),
(418,322,cs),
(408,295,o),
(393,280,o),
(368,280,cs),
(343,280,o),
(328,296,o),
(318,322,cs),
(306,353,o),
(295,413,o),
(295,470,cs),
(295,545,o),
(314,660,o),
(314,705,cs),
(314,787,o),
(249,810,o),
(187,810,cs),
(60,810,o),
(15,712,o),
(15,574,cs),
(15,325,o),
(163,157,o),
(393,199,cs),
(437,207,o),
(466,196,o),
(468,165,cs)
);
}
);
width = 796;
},
{
anchors = (
{
name = bottom;
pos = (416,3);
},
{
name = top;
pos = (408,801);
}
);
layerId = "49F060A0-2273-4F54-8B81-08E0B15B03EC";
name = Regular;
shapes = (
{
closed = 1;
nodes = (
(651,-14,o),
(793,326,o),
(793,567,cs),
(793,733,o),
(732,814,o),
(614,814,cs),
(546,814,o),
(461,785,o),
(461,692,cs),
(461,640,o),
(480,547,o),
(480,473,cs),
(480,420,o),
(470,280,o),
(407,280,cs),
(344,280,o),
(335,416,o),
(335,467,cs),
(335,546,o),
(356,643,o),
(356,695,cs),
(356,766,o),
(307,814,o),
(216,814,cs),
(97,814,o),
(24,731,o),
(24,575,cs),
(24,355,o),
(170,204,o),
(343,197,cs),
(377,196,o),
(394,179,o),
(394,150,cs),
(394,113,o),
(361,99,o),
(322,99,cs),
(301,99,o),
(283,104,o),
(262,107,cs),
(221,112,o),
(192,84,o),
(192,51,cs),
(192,-20,o),
(327,-14,o),
(378,-14,cs)
);
}
);
width = 808;
},
{
associatedMasterId = "49F060A0-2273-4F54-8B81-08E0B15B03EC";
guides = (
{
pos = (751,-79);
}
);
layerId = "DB306A7B-399B-46F6-8444-CFD5D0A14B1C";
name = "19 Jan 24 at 02:16";
shapes = (
{
closed = 1;
nodes = (
(369,195,o),
(386,179,o),
(386,150,cs),
(386,113,o),
(353,99,o),
(314,99,cs),
(293,99,o),
(275,104,o),
(254,107,cs),
(213,112,o),
(184,84,o),
(184,51,cs),
(184,-19,o),
(314,-14,o),
(368,-14,cs),
(642,-16,o),
(785,325,o),
(785,567,cs),
(785,733,o),
(724,812,o),
(606,812,cs),
(540,812,o),
(458,787,o),
(453,702,cs),
(450,653,o),
(472,552,o),
(472,473,cs),
(472,420,o),
(462,280,o),
(399,280,cs),
(336,280,o),
(327,416,o),
(327,467,cs),
(327,549,o),
(350,651,o),
(348,702,cs),
(345,769,o),
(296,814,o),
(208,814,cs),
(89,814,o),
(16,731,o),
(16,575,cs),
(16,355,o),
(162,204,o),
(335,197,c)
);
}
);
width = 805;
}
);
unicode = 89;
}
{
color = 10;
glyphname = Z;
kernLeft = KO_Z;
kernRight = KO_Z;
layers = (
{
associatedMasterId = "49F060A0-2273-4F54-8B81-08E0B15B03EC";
layerId = "712DE83D-3C55-4322-8598-BF52CEA251A9";
name = "23 Nov 23 at 01:43";
shapes = (
{
closed = 1;
nodes = (
(411,93,o),
(339,89,o),
(339,109,cs),
(339,119,o),
(347,124,o),
(363,132,cs),
(491,192,o),
(571,244,o),
(642,348,cs),
(684,410,o),
(696,487,o),
(696,537,cs),
(696,688,o),
(587,810,o),
(350,810,cs),
(150,810,o),
(10,725,o),
(10,584,cs),
(10,498,o),
(64,428,o),
(153,428,cs),
(217,428,o),
(288,465,o),
(352,465,cs),
(410,465,o),
(444,436,o),
(444,390,cs),
(444,364,o),
(433,348,o),
(416,330,cs),
(390,303,o),
(368,291,o),
(332,271,cs),
(158,174,o),
(135,139,o),
(135,94,cs),
(135,-2,o),
(242,-16,o),
(374,-16,cs),
(473,-16,o),
(516,-8,o),
(532,-4,cs),
(562,4,o),
(583,18,o),
(583,46,cs),
(583,76,o),
(559,97,o),
(516,97,cs),
(500,97,o),
(444,94,o),
(427,93,cs)
);
}
);
width = 706;
},
{
associatedMasterId = "49F060A0-2273-4F54-8B81-08E0B15B03EC";
layerId = "F1B9B8A8-93F7-4F9D-9C6F-D031477FEB70";
name = "24 Nov 23 at 01:30";
shapes = (
{
closed = 1;
nodes = (
(435,88,o),
(397,88,cs),
(347,86,o),
(355,118,o),
(372,135,cs),
(441,203,o),
(570,331,o),
(611,381,cs),
(658,440,o),
(696,487,o),
(696,555,cs),
(696,688,o),
(587,810,o),
(350,810,cs),
(150,810,o),
(10,725,o),
(10,584,cs),
(10,498,o),
(64,428,o),
(153,428,cs),
(217,428,o),
(288,470,o),
(352,470,cs),
(478,470,o),
(438,401,o),
(393,353,cs),
(277,232,o),
(155,112,o),
(108,63,cs),
(71,23,o),
(82,-14,o),
(135,-15,cs),
(160,-16,o),
(232,-17,o),
(374,-16,cs),
(473,-15,o),
(516,-8,o),
(532,-4,cs),
(562,4,o),
(583,18,o),
(583,46,cs),
(583,76,o),
(559,97,o),
(516,97,cs),
(480,97,o)
);
}
);
visible = 1;
width = 706;
},
{
associatedMasterId = "49F060A0-2273-4F54-8B81-08E0B15B03EC";
layerId = "FCBEFE06-0AD3-4E02-B6BB-832145C4E470";
name = "23 Dec 23 at 07:52";
shapes = (
{
closed = 1;
nodes = (
(18,799,o),
(15,753,o),
(15,618,cs),
(15,461,o),
(104,461,o),
(188,461,cs),
(216,461,o),
(301,469,o),
(347,469,cs),
(484,469,o),
(428,399,o),
(370,337,cs),
(298,260,o),
(135,82,o),
(111,57,cs),
(74,17,o),
(84,-18,o),
(138,-21,cs),
(158,-22,o),
(246,-22,o),
(377,-22,cs),
(476,-22,o),
(519,-14,o),
(535,-10,cs),
(567,-2,o),
(586,14,o),
(586,40,cs),
(586,70,o),
(562,91,o),
(520,91,cs),
(502,91,o),
(447,87,o),
(430,87,cs),
(405,87,ls),
(355,87,o),
(358,112,o),
(375,129,cs),
(387,141,o),
(548,298,o),
(600,359,cs),
(656,425,o),
(699,515,o),
(699,611,cs),
(699,765,o),
(590,804,o),
(309,804,cs),
(245,804,o),
(291,804,o),
(219,803,cs)
);
}
);
visible = 1;
width = 706;
},
{
associatedMasterId = "49F060A0-2273-4F54-8B81-08E0B15B03EC";
layerId = "4BDDEAC6-0064-4C0F-9394-9D0641D35987";
name = "9 Jan 24 at 03:09";
shapes = (
{
closed = 1;
nodes = (
(514,-16,o),
(558,-10,o),
(580,-5,cs),
(610,2,o),
(634,22,o),
(634,52,cs),
(634,83,o),
(609,105,o),
(557,105,cs),
(513,105,o),
(467,89,o),
(364,89,cs),
(253,89,o),
(240,110,o),
(246,129,cs),
(264,185,o),
(503,220,o),
(621,325,cs),
(671,369,o),
(707,418,o),
(710,541,cs),
(715,765,o),
(601,814,o),
(394,814,cs),
(142,814,o),
(10,740,o),
(10,604,cs),
(10,519,o),
(61,454,o),
(164,454,cs),
(198,454,o),
(294,461,o),
(328,461,cs),
(379,462,o),
(397,450,o),
(397,422,cs),
(397,381,o),
(357,351,o),
(295,311,cs),
(213,258,o),
(80,162,o),
(80,70,cs),
(80,-8,o),
(180,-16,o),
(396,-16,cs)
);
}
);
visible = 1;
width = 720;
},
{
associatedMasterId = "49F060A0-2273-4F54-8B81-08E0B15B03EC";
layerId = "C3F72E23-A8E4-4324-823C-4A5EB4E5C1AC";
name = "3 Mar 24 at 10:23";
shapes = (
{
closed = 1;
nodes = (
(515,-14,o),
(559,-9,o),
(581,-4,cs),
(611,3,o),
(635,23,o),
(635,53,cs),
(635,84,o),
(610,106,o),
(558,106,cs),
(514,106,o),
(468,90,o),
(340,90,cs),
(301,90,o),
(286,105,o),
(286,121,cs),
(286,150,o),
(330,173,o),
(399,201,cs),
(472,232,o),
(556,268,o),
(621,326,cs),
(673,372,o),
(710,423,o),
(710,556,cs),
(710,768,o),
(597,814,o),
(394,814,cs),
(142,814,o),
(10,741,o),
(10,605,cs),
(10,520,o),
(61,455,o),
(164,455,cs),
(200,455,o),
(306,462,o),
(334,462,cs),
(380,462,o),
(397,450,o),
(397,423,cs),
(397,382,o),
(357,352,o),
(296,312,cs),
(216,259,o),
(83,163,o),
(83,71,cs),
(83,-7,o),
(183,-14,o),
(358,-14,cs)
);
}
);
width = 720;
},
{
anchors = (
{
name = bottom;
pos = (418,3);
},
{
name = top;
pos = (410,801);
}
);
layerId = "49F060A0-2273-4F54-8B81-08E0B15B03EC";
name = Regular;
shapes = (
{
closed = 1;
nodes = (
(221,447,o),
(397,492,o),
(397,423,cs),
(397,382,o),
(357,352,o),
(296,312,cs),
(216,259,o),
(83,163,o),
(83,71,cs),
(83,-7,o),
(183,-14,o),
(358,-14,cs),
(515,-14,o),
(559,-9,o),
(581,-4,cs),
(611,3,o),
(635,23,o),
(635,53,cs),
(635,84,o),
(610,106,o),
(558,106,cs),
(514,106,o),
(468,90,o),
(340,90,cs),
(301,90,o),
(286,105,o),
(286,121,cs),
(286,150,o),
(330,173,o),
(399,201,cs),
(472,232,o),
(556,268,o),
(621,326,cs),
(673,372,o),
(710,423,o),
(710,536,cs),
(710,604,o),
(698,713,o),
(655,755,cs),
(600,807,o),
(515,814,o),
(342,814,cs),
(283,814,o),
(117,807,o),
(68,770,cs),
(24,737,o),
(24,650,o),
(24,587,cs),
(24,499,o),
(28,447,o),
(164,447,cs)
);
}
);
width = 730;
}
);
unicode = 90;
}
{
color = 10;
glyphname = bracketleft;
kernRight = KO_bracketleft;
layers = (
{
layerId = "49F060A0-2273-4F54-8B81-08E0B15B03EC";
shapes = (
{
closed = 1;
nodes = (
(170,-99,o),
(254,-99,o),
(254,-38,cs),
(254,-3,o),
(232,4,o),
(198,11,cs),
(182,14,o),
(182,15,o),
(182,28,cs),
(182,162,o),
(229,492,o),
(239,572,cs),
(240,582,o),
(242,587,o),
(252,587,cs),
(314,589,o),
(357,618,o),
(357,689,cs),
(357,770,o),
(275,804,o),
(150,804,cs),
(102,804,o),
(78,801,o),
(66,794,cs),
(36,778,o),
(25,739,o),
(25,653,cs),
(25,255,o),
(36,-30,o),
(53,-74,cs),
(61,-97,o),
(84,-99,o),
(109,-99,cs)
);
}
);
width = 387;
}
);
unicode = 91;
userData = {
KernOnSpecialSpacing = {
L = NoKerning;
R = parenthesis;
};
};
}
{
color = 10;
glyphname = backslash;
kernLeft = KO_backslash;
kernRight = KO_backslash;
layers = (
{
associatedMasterId = "49F060A0-2273-4F54-8B81-08E0B15B03EC";
layerId = "DA5ED46C-CBB5-41FF-B6CC-B99AA3BE3811";
name = "26 Mar 24 at 13:03";
shapes = (
{
closed = 1;
nodes = (
(456,-24,o),
(456,4,cs),
(456,14,o),
(453,26,o),
(448,42,c),
(347,334,o),
(261,561,o),
(206,689,cs),
(171,764,o),
(134,792,o),
(96,792,cs),
(56,792,o),
(10,762,o),
(10,707,cs),
(10,681,o),
(18,649,o),
(37,610,cs),
(100,485,o),
(218,274,o),
(377,9,c),
(395,-18,o),
(408,-30,o),
(422,-30,cs),
(431,-30,o)
);
}
);
width = 466;
},
{
layerId = "49F060A0-2273-4F54-8B81-08E0B15B03EC";
name = Regular;
shapes = (
{
pos = (466,0);
ref = slash;
scale = (-1,1);
}
);
width = 466;
}
);
unicode = 92;
userData = {
KernOnSpecialSpacing = {
L = "spaced-off";
R = "spaced-off";
};
};
}
{
color = 10;
glyphname = bracketright;
kernLeft = KO_bracketright;
layers = (
{
associatedMasterId = "49F060A0-2273-4F54-8B81-08E0B15B03EC";
layerId = "2A08C8AD-3E02-43B0-B411-549B6E2E03DA";
name = "26 Mar 24 at 11:46";
shapes = (
{
closed = 1;
nodes = (
(305,-99,o),
(328,-97,o),
(336,-74,cs),
(353,-30,o),
(364,255,o),
(364,653,cs),
(364,739,o),
(353,778,o),
(323,794,cs),
(311,801,o),
(287,804,o),
(239,804,cs),
(114,804,o),
(32,770,o),
(32,689,cs),
(32,618,o),
(75,589,o),
(137,587,cs),
(147,587,o),
(150,582,o),
(150,572,cs),
(150,510,o),
(207,162,o),
(207,28,cs),
(207,15,o),
(207,14,o),
(191,11,cs),
(177,8,o),
(170,7,o),
(164,4,cs),
(148,-3,o),
(135,-11,o),
(135,-38,cs),
(135,-60,o),
(144,-75,o),
(162,-83,cs),
(187,-94,o),
(227,-99,o),
(280,-99,cs)
);
}
);
width = 436;
},
{
layerId = "49F060A0-2273-4F54-8B81-08E0B15B03EC";
name = Regular;
shapes = (
{
pos = (387,0);
ref = bracketleft;
scale = (-1,1);
}
);
width = 387;
}
);
unicode = 93;
userData = {
KernOnSpecialSpacing = {
L = parenthesis;
R = NoKerning;
};
};
}
{
color = 10;
glyphname = asciicircum;
kernLeft = KO_asciicircum;
kernRight = KO_asciicircum;
layers = (
{
anchors = (
{
name = _top;
pos = (234,801);
}
);
associatedMasterId = "49F060A0-2273-4F54-8B81-08E0B15B03EC";
layerId = "20C60B0C-5CAD-4556-928D-CBA750FDAAB6";
name = "12 Mar 24 at 21:34";
shapes = (
{
closed = 1;
nodes = (
(65,555,o),
(78,555,cs),
(94,555,o),
(114,569,o),
(138,586,cs),
(163,604,o),
(191,625,o),
(191,625,cs),
(214,643,o),
(224,651,o),
(234,651,cs),
(243,651,o),
(254,643,o),
(277,625,cs),
(277,625,o),
(305,604,o),
(330,586,cs),
(354,569,o),
(374,555,o),
(390,555,cs),
(403,555,o),
(414,564,o),
(414,577,cs),
(414,591,o),
(404,608,o),
(391,635,cs),
(378,660,o),
(361,692,o),
(341,727,cs),
(314,775,o),
(278,805,o),
(234,805,cs),
(190,805,o),
(154,775,o),
(127,727,cs),
(107,692,o),
(90,660,o),
(77,635,cs),
(64,608,o),
(54,591,o),
(54,577,cs),
(54,564,o)
);
}
);
width = 486;
},
{
anchors = (
{
name = top;
pos = (253,600);
}
);
layerId = "49F060A0-2273-4F54-8B81-08E0B15B03EC";
name = Regular;
shapes = (
{
pos = (0,4);
ref = circumflexcomb;
}
);
width = 400;
}
);
unicode = 94;
userData = {
KernOnSpecialSpacing = {
L = math;
R = math;
};
};
}
{
color = 10;
glyphname = underscore;
kernLeft = KO_underscore;
kernRight = KO_underscore;
layers = (
{
layerId = "49F060A0-2273-4F54-8B81-08E0B15B03EC";
shapes = (
{
closed = 1;
nodes = (
(309,-180,o),
(395,-167,o),
(431,-160,cs),
(507,-145,o),
(537,-127,o),
(537,-104,cs),
(537,-80,o),
(510,-67,o),
(425,-51,cs),
(403,-48,o),
(319,-35,o),
(212,-35,cs),
(85,-35,o),
(50,-67,o),
(50,-108,cs),
(50,-151,o),
(87,-180,o),
(216,-180,cs)
);
}
);
width = 587;
}
);
unicode = 95;
userData = {
KernOnSpecialSpacing = {
L = underscore;
R = underscore;
};
};
}
{
color = 10;
glyphname = grave;
layers = (
{
anchors = (
{
name = _top;
pos = (137,800);
}
);
associatedMasterId = "49F060A0-2273-4F54-8B81-08E0B15B03EC";
layerId = "9762A6F1-EFBE-4A64-AB2A-9D805704AB97";
name = "12 Mar 24 at 22:18";
shapes = (
{
closed = 1;
nodes = (
(259,854,o),
(282,872,o),
(282,900,cs),
(282,922,o),
(263,940,o),
(232,955,cs),
(167,988,o),
(162,1041,o),
(116,1067,cs),
(105,1073,o),
(93,1077,o),
(82,1077,cs),
(45,1077,o),
(11,1041,o),
(11,1004,cs),
(11,974,o),
(31,944,o),
(67,917,cs),
(114,882,o),
(179,854,o),
(226,854,cs)
);
}
);
width = 293;
},
{
layerId = "49F060A0-2273-4F54-8B81-08E0B15B03EC";
name = Regular;
shapes = (
{
pos = (0,208);
ref = gravecomb;
}
);
width = 311;
}
);
metricLeft = gravecomb;
metricRight = gravecomb;
unicode = 96;
}
{
color = 10;
glyphname = a;
kernLeft = KO_a;
kernRight = KO_a;
layers = (
{
anchors = (
{
name = top;
pos = (356,600);
}
);
associatedMasterId = "49F060A0-2273-4F54-8B81-08E0B15B03EC";
layerId = "EDD2137E-6933-4C18-A0F0-92D66A302A66";
name = "23 Nov 23 at 22:33";
shapes = (
{
closed = 1;
nodes = (
(369,604,o),
(315,615,o),
(265,615,cs),
(143,615,o),
(48,508,o),
(48,339,cs),
(48,181,o),
(177,-14,o),
(324,-14,cs),
(369,-14,o),
(397,-4,o),
(429,23,cs),
(446,37,o),
(449,33,o),
(454,23,cs),
(461,10,o),
(475,-11,o),
(502,-11,cs),
(539,-11,o),
(559,17,o),
(573,65,cs),
(607,183,o),
(629,327,o),
(630,447,cs),
(630,554,o),
(602,613,o),
(533,613,cs),
(491,613,o),
(464,588,o),
(447,573,cs),
(440,568,o),
(432,567,o),
(424,571,cs)
);
},
{
closed = 1;
nodes = (
(283,117,o),
(252,190,o),
(252,222,cs),
(252,266,o),
(278,295,o),
(333,295,cs),
(382,295,o),
(404,272,o),
(416,211,cs),
(428,150,o),
(397,117,o),
(352,117,cs)
);
}
);
visible = 1;
width = 699;
},
{
anchors = (
{
name = bottom;
pos = (356,0);
},
{
name = ogonek;
pos = (650,10);
},
{
name = top;
pos = (356,600);
}
);
associatedMasterId = "49F060A0-2273-4F54-8B81-08E0B15B03EC";
layerId = "93FD3D0B-7B47-4054-8C59-435DD9045AAB";
name = "23 Nov 23 at 22:48";
shapes = (
{
closed = 1;
nodes = (
(344,136,o),
(315,184,o),
(313,216,cs),
(311,253,o),
(332,272,o),
(375,272,cs),
(414,274,o),
(430,255,o),
(437,209,cs),
(444,160,o),
(421,136,o),
(383,136,cs)
);
},
{
closed = 1;
nodes = (
(426,541,o),
(422,533,o),
(411,533,cs),
(401,533,o),
(395,541,o),
(389,548,cs),
(355,590,o),
(302,614,o),
(232,614,cs),
(106,614,o),
(24,518,o),
(24,361,cs),
(24,271,o),
(62,165,o),
(123,89,cs),
(170,31,o),
(230,-9,o),
(298,-12,cs),
(351,-14,o),
(398,9,o),
(429,50,cs),
(435,58,o),
(442,65,o),
(452,65,cs),
(463,65,o),
(471,59,o),
(474,50,cs),
(487,10,o),
(507,-14,o),
(542,-14,cs),
(579,-14,o),
(599,14,o),
(613,62,cs),
(640,153,o),
(671,301,o),
(671,447,cs),
(671,554,o),
(611,614,o),
(542,614,c),
(501,614,o),
(461,594,o),
(433,552,cs)
);
}
);
width = 699;
},
{
anchors = (
{
name = bottom;
pos = (356,0);
},
{
name = ogonek;
pos = (650,10);
},
{
name = top;
pos = (356,600);
}
);
associatedMasterId = "49F060A0-2273-4F54-8B81-08E0B15B03EC";
layerId = "0E409E87-305A-4610-A8E4-5732C0DBD6D6";
name = "23 Nov 23 at 23:58";
shapes = (
{
closed = 1;
nodes = (
(298,118,o),
(263,200,o),
(263,236,cs),
(263,286,o),
(292,319,o),
(354,319,cs),
(409,319,o),
(434,293,o),
(448,224,cs),
(462,155,o),
(427,118,o),
(376,118,cs)
);
},
{
closed = 1;
nodes = (
(426,541,o),
(422,533,o),
(411,533,cs),
(401,533,o),
(395,541,o),
(389,548,cs),
(355,590,o),
(302,614,o),
(232,614,cs),
(106,614,o),
(24,518,o),
(24,361,cs),
(24,271,o),
(62,165,o),
(123,89,cs),
(170,31,o),
(230,-9,o),
(298,-12,cs),
(351,-14,o),
(398,9,o),
(429,50,cs),
(435,58,o),
(442,65,o),
(452,65,cs),
(463,65,o),
(471,59,o),
(474,50,cs),
(487,10,o),
(507,-14,o),
(542,-14,cs),
(579,-14,o),
(599,14,o),
(613,62,cs),
(637,143,o),
(671,291,o),
(671,447,cs),
(671,554,o),
(611,614,o),
(542,614,cs),
(501,614,o),
(461,594,o),
(433,552,cs)
);
}
);
width = 699;
},
{
associatedMasterId = "49F060A0-2273-4F54-8B81-08E0B15B03EC";
backgroundImage = {
imagePath = "/Volumes/ADAM-DOC/DOCUMENTS/Google-project_african languages/20octobre/23 October2023/28 October2023/7decembre/Source-Glyphs/Scan 14.png";
locked = 1;
pos = (-329,-812);
scale = (2.3783,2.3783);
};
layerId = "8128A1CE-A9D8-44E1-BBD5-1E38E1A92DE7";
name = "1 Nov 23 at 23:38";
shapes = (
{
closed = 1;
nodes = (
(542,-16,o),
(578,117,o),
(578,263,cs),
(578,491,o),
(491,612,o),
(317,612,cs),
(189,612,o),
(30,546,o),
(30,413,cs),
(30,334,o),
(86,286,o),
(157,286,cs),
(201,286,o),
(246,304,o),
(314,304,cs),
(359,304,o),
(378,296,o),
(378,278,cs),
(378,251,o),
(336,251,o),
(301,251,cs),
(170,251,o),
(91,218,o),
(91,128,cs),
(91,44,o),
(159,-13,o),
(267,-13,cs),
(351,-13,o),
(388,21,o),
(415,81,c),
(435,12,o),
(457,-16,o),
(484,-16,cs)
);
},
{
closed = 1;
nodes = (
(310,85,o),
(302,125,o),
(302,150,cs),
(302,188,o),
(321,193,o),
(393,193,c),
(396,174,o),
(400,143,o),
(404,122,c),
(395,91,o),
(361,85,o),
(347,85,cs)
);
}
);
width = 618;
},
{
anchors = (
{
name = bottom;
pos = (356,0);
},
{
name = ogonek;
pos = (650,10);
},
{
name = top;
pos = (356,600);
}
);
associatedMasterId = "49F060A0-2273-4F54-8B81-08E0B15B03EC";
layerId = "7A6FD140-5E26-43EC-912C-29353AF1DF6C";
name = "7 Dec 23 at 05:00";
shapes = (
{
closed = 1;
nodes = (
(304,119,o),
(276,185,o),
(276,214,cs),
(276,254,o),
(299,280,o),
(349,280,cs),
(393,280,o),
(413,259,o),
(424,204,cs),
(435,149,o),
(407,119,o),
(366,119,cs)
);
},
{
closed = 1;
nodes = (
(426,541,o),
(422,533,o),
(411,533,cs),
(401,533,o),
(395,541,o),
(389,548,cs),
(355,590,o),
(302,614,o),
(232,614,cs),
(106,614,o),
(24,518,o),
(24,361,cs),
(24,271,o),
(62,165,o),
(123,89,cs),
(170,31,o),
(230,-9,o),
(298,-12,cs),
(351,-14,o),
(398,9,o),
(429,50,cs),
(435,58,o),
(442,65,o),
(452,65,cs),
(463,65,o),
(471,59,o),
(474,50,cs),
(487,10,o),
(507,-14,o),
(542,-14,cs),
(579,-14,o),
(599,14,o),
(613,62,cs),
(637,143,o),
(671,291,o),
(671,447,cs),
(671,554,o),
(611,614,o),
(542,614,cs),
(501,614,o),
(461,594,o),
(433,552,cs)
);
}
);
width = 699;
},
{
anchors = (
{
name = top;
pos = (356,600);
}
);
associatedMasterId = "49F060A0-2273-4F54-8B81-08E0B15B03EC";
layerId = "6C1CB029-D193-45DD-BC90-D1901EE693A9";
name = "8 Dec 23 at 15:57";
shapes = (
{
closed = 1;
nodes = (
(369,604,o),
(315,615,o),
(265,615,cs),
(143,615,o),
(48,508,o),
(48,339,cs),
(48,181,o),
(177,-14,o),
(324,-14,cs),
(369,-14,o),
(397,-4,o),
(429,23,cs),
(446,37,o),
(449,33,o),
(454,23,cs),
(461,10,o),
(475,-11,o),
(502,-11,cs),
(539,-11,o),
(559,17,o),
(573,65,cs),
(607,183,o),
(629,327,o),
(630,447,cs),
(630,554,o),
(602,613,o),
(533,613,cs),
(491,613,o),
(464,588,o),
(447,573,cs),
(440,568,o),
(432,567,o),
(424,571,cs)
);
},
{
closed = 1;
nodes = (
(283,64,o),
(252,158,o),
(252,199,cs),
(252,255,o),
(278,293,o),
(333,293,cs),
(382,293,o),
(404,263,o),
(416,184,cs),
(428,106,o),
(397,64,o),
(352,64,cs)
);
}
);
width = 699;
},
{
anchors = (
{
name = top;
pos = (332,600);
}
);
associatedMasterId = "49F060A0-2273-4F54-8B81-08E0B15B03EC";
layerId = "AD52BE29-C128-4E06-99C3-C5F49C5BEC76";
name = "19 Jan 24 at 03:13";
shapes = (
{
closed = 1;
nodes = (
(345,604,o),
(286,615,o),
(245,615,cs),
(107,615,o),
(24,491,o),
(24,349,cs),
(24,171,o),
(153,-14,o),
(306,-14,cs),
(342,-14,o),
(373,-4,o),
(405,23,cs),
(423,38,o),
(425,32,o),
(430,23,cs),
(443,-2,o),
(458,-13,o),
(480,-13,cs),
(515,-13,o),
(533,15,o),
(549,65,cs),
(577,151,o),
(606,327,o),
(606,442,cs),
(606,553,o),
(579,613,o),
(510,613,cs),
(461,613,o),
(435,582,o),
(423,573,cs),
(416,568,o),
(408,566,o),
(399,572,cs)
);
},
{
closed = 1;
nodes = (
(259,117,o),
(228,187,o),
(228,227,cs),
(228,263,o),
(254,295,o),
(308,295,cs),
(358,295,o),
(384,267,o),
(392,211,cs),
(401,144,o),
(373,117,o),
(329,117,cs)
);
}
);
width = 626;
},
{
anchors = (
{
name = bottom;
pos = (318,0);
},
{
name = ogonek;
pos = (568,0);
},
{
name = top;
pos = (337,600);
}
);
layerId = "49F060A0-2273-4F54-8B81-08E0B15B03EC";
name = Regular;
shapes = (
{
closed = 1;
nodes = (
(526,-14,o),
(540,23,o),
(556,75,cs),
(579,152,o),
(611,327,o),
(611,442,cs),
(611,553,o),
(584,614,o),
(515,614,cs),
(475,614,o),
(446,588,o),
(423,549,cs),
(417,539,o),
(414,531,o),
(403,531,cs),
(392,531,o),
(388,538,o),
(380,550,cs),
(370,565,o),
(356,579,o),
(335,592,cs),
(311,607,o),
(282,614,o),
(250,614,cs),
(112,614,o),
(29,491,o),
(28,352,cs),
(28,152,o),
(152,-14,o),
(283,-14,cs),
(330,-14,o),
(350,8,o),
(384,48,cs),
(390,55,o),
(396,64,o),
(410,64,cs),
(417,64,o),
(425,57,o),
(429,47,cs),
(444,8,o),
(465,-14,o),
(492,-14,cs)
);
},
{
closed = 1;
nodes = (
(264,117,o),
(233,187,o),
(233,227,cs),
(233,263,o),
(259,295,o),
(313,295,cs),
(363,295,o),
(389,267,o),
(397,211,cs),
(406,144,o),
(378,117,o),
(334,117,cs)
);
}
);
width = 634;
}
);
metricLeft = o;
unicode = 97;
userData = {
KernOnName = a;
};
}
{
color = 10;
glyphname = b;
kernLeft = KO_b;
kernRight = KO_b;
layers = (
{
associatedMasterId = "49F060A0-2273-4F54-8B81-08E0B15B03EC";
hints = (
{
horizontal = 1;
place = (674,22);
type = Stem;
}
);
layerId = "12709F5B-4EA1-4AD9-9FB4-A03B351795FF";
name = "23 Nov 23 at 22:50";
shapes = (
{
closed = 1;
nodes = (
(330,737,o),
(264,808,o),
(186,808,cs),
(107,808,o),
(29,737,o),
(29,595,cs),
(29,403,o),
(64,205,o),
(92,84,cs),
(107,21,o),
(130,-16,o),
(173,-16,cs),
(207,-16,o),
(228,7,o),
(243,47,cs),
(247,57,o),
(255,63,o),
(266,63,cs),
(276,63,o),
(283,56,o),
(289,48,cs),
(320,7,o),
(367,-16,o),
(420,-14,cs),
(488,-11,o),
(548,29,o),
(595,87,cs),
(656,163,o),
(694,269,o),
(694,359,cs),
(694,516,o),
(612,612,o),
(486,612,cs),
(440,612,o),
(399,602,o),
(370,581,c),
(364,576,o),
(359,571,o),
(351,571,cs),
(340,571,o),
(330,577,o),
(330,593,cs)
);
},
{
closed = 1;
nodes = (
(297,134,o),
(274,158,o),
(281,207,cs),
(288,253,o),
(304,272,o),
(343,270,cs),
(386,270,o),
(407,251,o),
(405,214,cs),
(403,182,o),
(374,134,o),
(335,134,cs)
);
}
);
width = 710;
},
{
associatedMasterId = "49F060A0-2273-4F54-8B81-08E0B15B03EC";
hints = (
{
horizontal = 1;
place = (674,22);
type = Stem;
}
);
layerId = "3423CD08-56F4-43DE-B1C3-92ACE9432932";
name = "7 Dec 23 at 19:39";
shapes = (
{
closed = 1;
nodes = (
(322,737,o),
(256,808,o),
(178,808,cs),
(99,808,o),
(21,737,o),
(21,595,cs),
(21,403,o),
(56,205,o),
(84,84,cs),
(99,21,o),
(122,-16,o),
(165,-16,cs),
(199,-16,o),
(220,7,o),
(235,47,cs),
(239,57,o),
(247,63,o),
(258,63,cs),
(268,63,o),
(275,56,o),
(281,48,cs),
(312,7,o),
(359,-14,o),
(412,-14,cs),
(480,-14,o),
(540,29,o),
(587,87,cs),
(648,163,o),
(686,269,o),
(686,359,cs),
(686,516,o),
(604,612,o),
(478,612,cs),
(432,612,o),
(391,602,o),
(362,581,c),
(356,576,o),
(351,571,o),
(343,571,cs),
(332,571,o),
(322,577,o),
(322,593,cs)
);
},
{
closed = 1;
nodes = (
(288,117,o),
(257,150,o),
(269,211,cs),
(281,272,o),
(303,295,o),
(352,295,cs),
(407,295,o),
(433,266,o),
(433,222,cs),
(433,190,o),
(402,117,o),
(333,117,cs)
);
}
);
width = 702;
},
{
associatedMasterId = "49F060A0-2273-4F54-8B81-08E0B15B03EC";
hints = (
{
horizontal = 1;
place = (674,22);
type = Stem;
}
);
layerId = "1F7E580E-88EF-48F6-B851-50EAC2583BD7";
name = "18 Jan 24 at 15:00";
shapes = (
{
closed = 1;
nodes = (
(168,-14,o),
(189,7,o),
(204,46,cs),
(208,56,o),
(216,63,o),
(227,63,cs),
(237,63,o),
(243,54,o),
(249,47,cs),
(283,7,o),
(330,-14,o),
(377,-14,cs),
(508,-14,o),
(632,151,o),
(632,353,cs),
(632,517,o),
(551,613,o),
(430,613,cs),
(379,613,o),
(354,595,o),
(335,583,cs),
(330,579,o),
(316,571,o),
(303,571,cs),
(290,571,o),
(279,582,o),
(279,595,cs),
(279,694,o),
(252,812,o),
(145,812,cs),
(62,812,o),
(16,737,o),
(16,562,cs),
(16,403,o),
(54,172,o),
(75,84,cs),
(90,21,o),
(107,-14,o),
(141,-14,cs)
);
},
{
closed = 1;
nodes = (
(238,117,o),
(232,168,o),
(238,211,cs),
(246,267,o),
(272,295,o),
(322,295,cs),
(376,295,o),
(402,263,o),
(402,226,cs),
(402,186,o),
(371,117,o),
(300,117,cs)
);
}
);
width = 656;
},
{
anchors = (
{
name = bottom;
pos = (309,0);
},
{
name = top;
pos = (328,600);
}
);
layerId = "49F060A0-2273-4F54-8B81-08E0B15B03EC";
name = Regular;
shapes = (
{
closed = 1;
nodes = (
(170,-14,o),
(189,7,o),
(204,47,cs),
(208,57,o),
(216,63,o),
(227,63,cs),
(237,63,o),
(244,56,o),
(250,48,cs),
(281,7,o),
(328,-14,o),
(381,-14,cs),
(508,-14,o),
(632,151,o),
(632,360,cs),
(632,517,o),
(545,614,o),
(438,614,cs),
(342,614,o),
(337,571,o),
(307,571,cs),
(296,571,o),
(279,577,o),
(279,593,c),
(279,737,o),
(227,814,o),
(149,814,cs),
(70,814,o),
(16,737,o),
(16,595,cs),
(16,403,o),
(47,205,o),
(75,84,cs),
(90,21,o),
(108,-14,o),
(140,-14,cs)
);
},
{
closed = 1;
nodes = (
(242,117,o),
(229,167,o),
(238,211,cs),
(250,272,o),
(272,295,o),
(321,295,cs),
(376,295,o),
(402,266,o),
(402,222,cs),
(402,190,o),
(371,117,o),
(302,117,cs)
);
}
);
width = 659;
}
);
unicode = 98;
}
{
color = 10;
glyphname = c;
kernLeft = KO_c;
kernRight = KO_c;
layers = (
{
anchors = (
{
name = bottom;
pos = (312,0);
},
{
name = top;
pos = (331,600);
}
);
layerId = "49F060A0-2273-4F54-8B81-08E0B15B03EC";
shapes = (
{
closed = 1;
nodes = (
(383,-14,o),
(431,-7,o),
(461,7,cs),
(499,25,o),
(512,56,o),
(512,76,cs),
(512,113,o),
(469,132,o),
(434,109,cs),
(399,86,o),
(378,80,o),
(351,80,cs),
(272,80,o),
(210,130,o),
(210,194,cs),
(210,240,o),
(243,293,o),
(308,293,cs),
(369,293,o),
(381,245,o),
(447,245,cs),
(531,245,o),
(591,323,o),
(591,417,cs),
(591,542,o),
(486,614,o),
(354,614,cs),
(204,614,o),
(19,520,o),
(19,307,cs),
(19,113,o),
(171,-14,o),
(341,-14,cs)
);
}
);
width = 616;
}
);
unicode = 99;
}
{
color = 10;
glyphname = d;
kernLeft = KO_d;
kernRight = KO_d;
layers = (
{
associatedMasterId = "49F060A0-2273-4F54-8B81-08E0B15B03EC";
layerId = "060D5839-A15B-47EE-9375-A00DAE4CFDE6";
name = "23 Nov 23 at 22:51";
shapes = (
{
closed = 1;
nodes = (
(388,580,o),
(378,574,o),
(367,574,cs),
(359,574,o),
(354,579,o),
(348,584,c),
(319,605,o),
(278,615,o),
(232,615,cs),
(106,615,o),
(24,519,o),
(24,362,cs),
(24,272,o),
(62,166,o),
(123,90,cs),
(170,32,o),
(230,-8,o),
(298,-11,cs),
(351,-13,o),
(398,10,o),
(429,51,cs),
(435,59,o),
(442,66,o),
(452,66,cs),
(463,66,o),
(471,60,o),
(475,50,cs),
(490,10,o),
(511,-13,o),
(545,-13,cs),
(588,-13,o),
(611,24,o),
(626,87,cs),
(654,208,o),
(689,406,o),
(689,598,cs),
(689,740,o),
(611,811,o),
(532,811,cs),
(454,811,o),
(388,740,o),
(388,596,cs)
);
},
{
closed = 1;
nodes = (
(343,136,o),
(314,184,o),
(312,216,cs),
(310,253,o),
(331,272,o),
(374,272,cs),
(413,274,o),
(429,255,o),
(436,209,cs),
(443,160,o),
(420,136,o),
(382,136,cs)
);
}
);
width = 718;
},
{
associatedMasterId = "49F060A0-2273-4F54-8B81-08E0B15B03EC";
layerId = "5E7621BB-D3F6-48AD-933A-EFEA7E93A9BF";
name = "9 Dec 23 at 09:09";
shapes = (
{
closed = 1;
nodes = (
(388,580,o),
(378,574,o),
(367,574,cs),
(359,574,o),
(354,579,o),
(348,584,c),
(319,605,o),
(278,615,o),
(232,615,cs),
(106,615,o),
(24,519,o),
(24,362,cs),
(24,272,o),
(62,166,o),
(123,90,cs),
(170,32,o),
(230,-11,o),
(298,-11,cs),
(351,-11,o),
(398,10,o),
(429,51,cs),
(435,59,o),
(442,66,o),
(452,66,cs),
(463,66,o),
(471,60,o),
(475,50,cs),
(490,10,o),
(511,-13,o),
(545,-13,cs),
(588,-13,o),
(611,24,o),
(626,87,cs),
(654,208,o),
(689,406,o),
(689,598,cs),
(689,740,o),
(611,811,o),
(532,811,cs),
(454,811,o),
(388,740,o),
(388,596,cs)
);
},
{
closed = 1;
nodes = (
(308,119,o),
(277,191,o),
(277,223,cs),
(277,267,o),
(302,295,o),
(357,295,cs),
(405,295,o),
(427,272,o),
(439,212,cs),
(451,152,o),
(420,119,o),
(376,119,cs)
);
}
);
width = 705;
},
{
associatedMasterId = "49F060A0-2273-4F54-8B81-08E0B15B03EC";
layerId = "D161BBC1-BEEA-44E9-ACEB-01714241387D";
name = "18 Jan 24 at 15:00";
shapes = (
{
closed = 1;
nodes = (
(325,-14,o),
(372,7,o),
(406,47,cs),
(412,54,o),
(418,63,o),
(428,63,cs),
(439,63,o),
(447,56,o),
(451,46,cs),
(466,7,o),
(487,-14,o),
(514,-14,cs),
(548,-14,o),
(565,21,o),
(580,84,cs),
(601,172,o),
(639,403,o),
(639,562,cs),
(639,737,o),
(593,812,o),
(510,812,cs),
(403,812,o),
(376,694,o),
(376,595,cs),
(376,582,o),
(365,571,o),
(352,571,cs),
(339,571,o),
(325,579,o),
(320,583,cs),
(301,595,o),
(276,613,o),
(225,613,cs),
(104,613,o),
(23,517,o),
(23,353,cs),
(23,151,o),
(147,-14,o),
(278,-14,cs)
);
},
{
closed = 1;
nodes = (
(288,119,o),
(257,188,o),
(257,228,cs),
(257,264,o),
(282,295,o),
(335,295,cs),
(385,295,o),
(411,267,o),
(419,212,cs),
(428,146,o),
(400,119,o),
(357,119,cs)
);
}
);
width = 669;
},
{
anchors = (
{
name = bottom;
pos = (338,0);
},
{
name = center;
pos = (379,384);
},
{
name = top;
pos = (232,602);
},
{
name = topright;
pos = (624,800);
}
);
layerId = "49F060A0-2273-4F54-8B81-08E0B15B03EC";
name = Regular;
shapes = (
{
closed = 1;
nodes = (
(553,-14,o),
(570,23,o),
(585,86,cs),
(606,174,o),
(644,405,o),
(644,564,cs),
(644,739,o),
(598,814,o),
(515,814,cs),
(431,814,o),
(381,738,o),
(381,602,cs),
(381,579,o),
(364,573,o),
(353,573,cs),
(326,573,o),
(309,614,o),
(230,614,cs),
(109,614,o),
(28,519,o),
(28,355,cs),
(28,153,o),
(152,-14,o),
(283,-14,cs),
(330,-14,o),
(379,9,o),
(410,50,cs),
(416,58,o),
(423,65,o),
(433,65,cs),
(444,65,o),
(452,59,o),
(456,49,cs),
(471,10,o),
(490,-14,o),
(518,-14,cs)
);
},
{
closed = 1;
nodes = (
(292,121,o),
(261,190,o),
(261,230,cs),
(261,266,o),
(286,297,o),
(339,297,cs),
(389,297,o),
(415,269,o),
(423,214,cs),
(432,148,o),
(404,121,o),
(361,121,cs)
);
}
);
width = 667;
}
);
metricRight = a;
unicode = 100;
userData = {
KernOnName = d;
};
}
{
color = 10;
glyphname = e;
kernLeft = KO_e;
kernRight = KO_e;
layers = (
{
associatedMasterId = "49F060A0-2273-4F54-8B81-08E0B15B03EC";
layerId = "B7D7E82B-DF8C-4018-977C-E49B44DCF1C8";
name = "16 Nov 23 at 18:25";
shapes = (
{
closed = 0;
nodes = (
(274,113,l)
);
},
{
closed = 1;
nodes = (
(249,207,o),
(227,213,o),
(215,241,cs),
(212,249,o),
(213,256,o),
(214,263,cs),
(220,304,ls),
(223,325,o),
(239,343,o),
(278,343,cs),
(315,343,o),
(340,333,o),
(340,287,cs),
(340,255,o),
(309,207,o),
(270,207,cs)
);
},
{
closed = 1;
nodes = (
(411,-15,o),
(466,-8,o),
(497,9,cs),
(534,29,o),
(547,56,o),
(537,78,cs),
(529,97,o),
(498,117,o),
(463,95,cs),
(431,72,o),
(411,60,o),
(377,60,cs),
(333,60,o),
(296,80,o),
(274,113,cs),
(270,118,o),
(268,125,o),
(272,129,cs),
(277,134,o),
(283,133,o),
(288,131,cs),
(311,121,o),
(334,116,o),
(359,116,cs),
(499,116,o),
(600,217,o),
(600,352,cs),
(600,491,o),
(522,616,o),
(297,616,cs),
(122,616,o),
(40,515,o),
(40,358,cs),
(40,268,o),
(55,178,o),
(116,102,cs),
(163,44,o),
(246,-15,o),
(369,-15,cs)
);
}
);
width = 634;
},
{
associatedMasterId = "49F060A0-2273-4F54-8B81-08E0B15B03EC";
backgroundImage = {
imagePath = "/Volumes/ADAM-DOC/DOCUMENTS/Google-project_african languages/20octobre/23 October2023/28 October2023/maremasie2/correctionlisa23-12-1/Screenshot 2023-12-02 at 13.33.24.png";
locked = 1;
pos = (-31,-250);
scale = (4.4196,4.4196);
};
layerId = "5D673BD8-33B0-4379-8F3E-7E03007FC4FE";
name = "2 Dec 23 at 15:24";
shapes = (
{
closed = 1;
nodes = (
(258,231,o),
(239,257,o),
(239,288,cs),
(239,322,o),
(262,359,o),
(302,359,cs),
(332,359,o),
(351,338,o),
(351,309,cs),
(351,276,o),
(327,231,o),
(288,231,cs)
);
},
{
closed = 1;
nodes = (
(349,61,o),
(245,39,o),
(245,93,cs),
(245,130,o),
(295,127,o),
(334,130,cs),
(489,143,o),
(608,257,o),
(608,385,cs),
(608,495,o),
(505,613,o),
(316,613,cs),
(119,613,o),
(48,485,o),
(48,290,cs),
(48,151,o),
(84,-14,o),
(340,-14,cs),
(393,-14,o),
(434,-7,o),
(462,6,cs),
(506,26,o),
(517,58,o),
(507,79,cs),
(497,100,o),
(468,115,o),
(436,94,cs),
(404,73,o),
(387,67,o),
(355,62,cs)
);
}
);
width = 619;
},
{
associatedMasterId = "49F060A0-2273-4F54-8B81-08E0B15B03EC";
layerId = "884C538D-154D-411F-9FD0-C1C2296707DE";
name = "2 Dec 23 at 15:39";
shapes = (
{
closed = 1;
nodes = (
(256,213,o),
(237,241,o),
(237,273,cs),
(237,309,o),
(261,348,o),
(303,348,cs),
(335,348,o),
(355,326,o),
(355,295,cs),
(355,261,o),
(330,213,o),
(288,213,cs)
);
},
{
closed = 1;
nodes = (
(393,-14,o),
(444,-7,o),
(477,10,cs),
(512,28,o),
(527,57,o),
(517,78,cs),
(508,98,o),
(477,117,o),
(444,95,cs),
(408,71,o),
(391,61,o),
(359,61,cs),
(314,61,o),
(275,81,o),
(255,113,cs),
(250,121,o),
(249,125,o),
(253,129,cs),
(258,134,o),
(264,133,o),
(269,131,cs),
(285,125,o),
(302,116,o),
(343,116,cs),
(479,116,o),
(604,215,o),
(604,359,cs),
(604,489,o),
(501,617,o),
(301,617,cs),
(103,617,o),
(24,474,o),
(24,335,cs),
(24,102,o),
(198,-14,o),
(354,-14,cs)
);
}
);
width = 619;
},
{
associatedMasterId = "49F060A0-2273-4F54-8B81-08E0B15B03EC";
layerId = "B048A72E-0C15-4E22-A5A1-A5E2A7C19909";
name = "2 Dec 23 at 19:07";
shapes = (
{
closed = 1;
nodes = (
(259,231,o),
(240,258,o),
(240,288,cs),
(240,322,o),
(263,358,o),
(302,358,cs),
(333,358,o),
(351,337,o),
(351,308,cs),
(351,275,o),
(327,231,o),
(289,231,cs)
);
},
{
closed = 1;
nodes = (
(305,65,o),
(236,66,o),
(236,111,cs),
(236,126,o),
(244,143,o),
(274,143,cs),
(494,143,o),
(591,258,o),
(591,363,cs),
(591,506,o),
(490,616,o),
(301,616,cs),
(106,616,o),
(44,480,o),
(44,314,cs),
(44,105,o),
(143,-15,o),
(348,-15,cs),
(407,-15,o),
(432,-5,o),
(462,9,cs),
(506,29,o),
(516,66,o),
(506,88,cs),
(497,108,o),
(469,125,o),
(437,104,cs),
(405,83,o),
(379,75,o),
(349,71,cs)
);
}
);
width = 619;
},
{
anchors = (
{
name = bottom;
pos = (300,0);
},
{
name = ogonek;
pos = (535,0);
},
{
name = top;
pos = (300,600);
}
);
layerId = "49F060A0-2273-4F54-8B81-08E0B15B03EC";
name = Regular;
shapes = (
{
closed = 1;
nodes = (
(392,-14,o),
(417,-5,o),
(447,9,cs),
(482,25,o),
(505,67,o),
(491,96,cs),
(479,125,o),
(445,128,o),
(422,112,cs),
(390,91,o),
(364,83,o),
(334,80,cs),
(295,75,o),
(221,72,o),
(221,119,cs),
(221,134,o),
(229,142,o),
(259,142,cs),
(479,142,o),
(576,257,o),
(576,361,cs),
(576,503,o),
(475,614,o),
(286,614,cs),
(91,614,o),
(29,477,o),
(29,312,cs),
(29,104,o),
(128,-14,o),
(333,-14,c)
);
},
{
closed = 1;
nodes = (
(247,231,o),
(225,250,o),
(225,287,cs),
(225,326,o),
(235,368,o),
(288,368,cs),
(331,368,o),
(350,348,o),
(350,311,cs),
(350,279,o),
(319,231,o),
(280,231,cs)
);
}
);
width = 598;
}
);
unicode = 101;
userData = {
KernOnName = e;
};
}
{
color = 10;
glyphname = f;
kernLeft = KO_f;
kernRight = KO_f;
layers = (
{
associatedMasterId = "49F060A0-2273-4F54-8B81-08E0B15B03EC";
layerId = "D8C286A1-9F74-454D-8DF4-F2B27FEC23C4";
name = "24 Nov 23 at 02:11";
shapes = (
{
closed = 1;
nodes = (
(10,400,o),
(48,174,o),
(69,83,cs),
(85,14,o),
(101,-17,o),
(135,-17,cs),
(171,-17,o),
(190,19,o),
(203,83,cs),
(216,147,o),
(234,227,o),
(242,329,cs),
(244,354,o),
(260,372,o),
(284,368,cs),
(290,367,o),
(371,353,o),
(411,353,cs),
(462,353,o),
(487,374,o),
(487,408,cs),
(487,440,o),
(464,460,o),
(418,463,cs),
(384,465,o),
(304,459,o),
(291,459,cs),
(269,459,o),
(256,476,o),
(255,492,cs),
(252,545,o),
(248,603,o),
(272,634,cs),
(283,648,o),
(299,656,o),
(318,656,cs),
(358,656,o),
(387,620,o),
(387,579,cs),
(387,524,o),
(420,493,o),
(471,493,cs),
(529,493,o),
(561,534,o),
(561,608,cs),
(561,806,o),
(334,806,o),
(218,806,cs),
(94,806,o),
(10,747,o),
(10,591,c)
);
}
);
width = 562;
},
{
associatedMasterId = "49F060A0-2273-4F54-8B81-08E0B15B03EC";
layerId = "C2545F96-8A80-40D1-872F-E813FCAB5ED7";
name = "4 Dec 23 at 22:14";
shapes = (
{
closed = 1;
nodes = (
(228,-18,o),
(250,13,o),
(250,63,cs),
(250,65,o),
(238,219,o),
(238,328,cs),
(238,353,o),
(257,371,o),
(281,367,cs),
(287,366,o),
(353,353,o),
(393,353,cs),
(444,353,o),
(469,374,o),
(469,408,cs),
(469,440,o),
(444,461,o),
(400,463,cs),
(364,465,o),
(286,459,o),
(274,459,cs),
(250,459,o),
(238,476,o),
(237,492,cs),
(232,571,o),
(227,656,o),
(305,656,cs),
(354,656,o),
(387,622,o),
(387,579,cs),
(387,524,o),
(420,493,o),
(469,493,cs),
(525,493,o),
(561,535,o),
(561,596,cs),
(561,745,o),
(343,806,o),
(218,806,cs),
(88,806,o),
(9,741,o),
(9,567,cs),
(9,444,o),
(48,200,o),
(85,85,cs),
(107,16,o),
(132,-18,o),
(181,-18,cs)
);
}
);
width = 561;
},
{
anchors = (
{
name = bottom;
pos = (291,0);
},
{
name = top;
pos = (291,600);
}
);
layerId = "49F060A0-2273-4F54-8B81-08E0B15B03EC";
name = Regular;
shapes = (
{
closed = 1;
nodes = (
(249,-14,o),
(229,169,o),
(237,267,cs),
(239,289,o),
(243,329,o),
(271,329,cs),
(283,329,o),
(330,322,o),
(359,322,cs),
(414,322,o),
(438,347,o),
(438,383,cs),
(438,463,o),
(319,441,o),
(284,441,cs),
(217,441,o),
(242,551,o),
(348,543,cs),
(460,534,o),
(511,556,o),
(511,634,cs),
(511,767,o),
(360,814,o),
(258,814,cs),
(108,814,o),
(25,711,o),
(25,508,cs),
(25,437,o),
(35,206,o),
(70,86,cs),
(89,22,o),
(116,-14,o),
(165,-14,cs)
);
}
);
width = 526;
},
{
associatedMasterId = "49F060A0-2273-4F54-8B81-08E0B15B03EC";
layerId = "BB3B4288-F289-457B-9A85-9004B52675A2";
name = "8 Jan 24 at 04:39";
shapes = (
{
closed = 1;
nodes = (
(202,441,o),
(227,551,o),
(333,543,cs),
(445,534,o),
(496,556,o),
(496,634,cs),
(496,767,o),
(345,815,o),
(243,815,cs),
(93,815,o),
(10,711,o),
(10,508,cs),
(10,437,o),
(20,206,o),
(55,86,cs),
(74,22,o),
(101,-13,o),
(150,-13,cs),
(234,-13,o),
(214,169,o),
(222,267,cs),
(224,289,o),
(228,329,o),
(256,329,cs),
(268,329,o),
(315,322,o),
(344,322,cs),
(399,322,o),
(423,347,o),
(423,383,cs),
(423,463,o),
(304,441,o),
(269,441,cs)
);
}
);
width = 497;
}
);
unicode = 102;
userData = {
KernOnName = f;
};
}
{
color = 10;
glyphname = g;
kernLeft = KO_g;
kernRight = KO_g;
layers = (
{
associatedMasterId = "49F060A0-2273-4F54-8B81-08E0B15B03EC";
layerId = "E8DB0691-68D0-431B-B1F1-83C4658121A8";
name = "2 Nov 23 at 01:11";
shapes = (
{
closed = 1;
nodes = (
(275,171,o),
(285,180,o),
(323,183,cs),
(342,185,o),
(355,184,o),
(377,182,c),
(381,147,o),
(384,112,o),
(389,81,c),
(371,55,o),
(336,52,o),
(322,53,cs),
(279,56,o),
(271,106,o),
(273,140,cs)
);
},
{
closed = 0;
nodes = (
(399,38,l)
);
},
{
closed = 1;
nodes = (
(423,-41,o),
(350,-78,o),
(322,-78,cs),
(308,-78,o),
(282,-67,o),
(269,-67,cs),
(254,-67,o),
(241,-80,o),
(241,-104,cs),
(241,-148,o),
(284,-200,o),
(364,-200,cs),
(559,-200,o),
(617,112,o),
(617,328,cs),
(617,500,o),
(591,616,o),
(497,616,cs),
(465,616,o),
(441,602,o),
(423,578,c),
(386,602,o),
(339,616,o),
(279,616,cs),
(108,616,o),
(48,505,o),
(31,404,cs),
(19,333,o),
(21,225,o),
(69,133,cs),
(120,35,o),
(203,-2,o),
(281,-2,cs),
(325,-2,o),
(363,9,o),
(399,38,c)
);
},
{
closed = 1;
nodes = (
(275,171,o),
(285,180,o),
(323,183,cs),
(342,185,o),
(355,184,o),
(377,182,c),
(381,147,o),
(384,112,o),
(389,81,c),
(371,55,o),
(336,52,o),
(322,53,cs),
(279,56,o),
(271,106,o),
(273,140,cs)
);
},
{
closed = 0;
nodes = (
(399,38,l)
);
},
{
closed = 1;
nodes = (
(423,-41,o),
(350,-78,o),
(322,-78,cs),
(308,-78,o),
(282,-67,o),
(269,-67,cs),
(254,-67,o),
(241,-80,o),
(241,-104,cs),
(241,-148,o),
(284,-200,o),
(364,-200,cs),
(559,-200,o),
(617,112,o),
(617,328,cs),
(617,500,o),
(591,616,o),
(497,616,cs),
(465,616,o),
(441,602,o),
(423,578,c),
(386,602,o),
(339,616,o),
(279,616,cs),
(108,616,o),
(48,505,o),
(31,404,cs),
(19,333,o),
(21,225,o),
(69,133,cs),
(120,35,o),
(203,-2,o),
(281,-2,cs),
(325,-2,o),
(363,9,o),
(399,38,c)
);
}
);
width = 652;
},
{
associatedMasterId = "49F060A0-2273-4F54-8B81-08E0B15B03EC";
layerId = "BB26B213-7598-48E8-8EB9-C2D651D88BDE";
name = "24 Nov 23 at 00:13";
shapes = (
{
closed = 1;
nodes = (
(362,-183,o),
(390,-199,o),
(427,-199,cs),
(643,-200,o),
(686,117,o),
(686,333,cs),
(686,505,o),
(656,614,o),
(542,614,cs),
(501,614,o),
(461,594,o),
(433,552,cs),
(426,541,o),
(422,533,o),
(411,533,cs),
(401,533,o),
(395,541,o),
(389,548,cs),
(355,590,o),
(302,614,o),
(232,614,cs),
(106,614,o),
(24,518,o),
(24,361,cs),
(24,271,o),
(62,165,o),
(123,89,cs),
(170,31,o),
(230,-11,o),
(298,-11,cs),
(351,-11,o),
(398,9,o),
(426,50,cs),
(432,58,o),
(438,65,o),
(447,65,cs),
(457,65,o),
(467,59,o),
(468,45,cs),
(474,-3,o),
(468,-34,o),
(450,-53,cs),
(429,-75,o),
(399,-79,o),
(382,-73,cs),
(348,-60,o),
(321,-76,o),
(312,-101,cs),
(303,-128,o),
(315,-149,o),
(343,-169,cs)
);
},
{
closed = 1;
nodes = (
(344,136,o),
(315,184,o),
(313,216,cs),
(311,253,o),
(332,272,o),
(375,272,cs),
(414,274,o),
(430,255,o),
(437,209,cs),
(444,160,o),
(421,136,o),
(383,136,cs)
);
}
);
width = 711;
},
{
associatedMasterId = "49F060A0-2273-4F54-8B81-08E0B15B03EC";
layerId = "D3816EA6-E74E-46B0-9EF1-65BF981A4203";
name = "2 Dec 23 at 14:51";
shapes = (
{
closed = 1;
nodes = (
(362,-183,o),
(390,-199,o),
(427,-199,cs),
(643,-199,o),
(686,117,o),
(686,333,cs),
(686,505,o),
(656,614,o),
(542,614,cs),
(501,614,o),
(461,594,o),
(433,552,cs),
(426,541,o),
(422,533,o),
(411,533,cs),
(401,533,o),
(395,541,o),
(389,548,cs),
(355,590,o),
(302,614,o),
(232,614,cs),
(106,614,o),
(24,518,o),
(24,361,cs),
(24,271,o),
(62,165,o),
(123,89,cs),
(170,31,o),
(230,-11,o),
(298,-11,cs),
(351,-11,o),
(398,9,o),
(426,50,cs),
(432,58,o),
(438,65,o),
(447,65,cs),
(457,65,o),
(467,59,o),
(468,45,cs),
(474,-3,o),
(468,-34,o),
(450,-53,cs),
(429,-75,o),
(399,-79,o),
(382,-73,cs),
(348,-60,o),
(321,-76,o),
(312,-101,cs),
(303,-128,o),
(315,-149,o),
(343,-169,cs)
);
},
{
closed = 1;
nodes = (
(303,119,o),
(272,191,o),
(272,223,cs),
(272,267,o),
(297,295,o),
(352,295,cs),
(400,295,o),
(422,272,o),
(434,212,cs),
(446,152,o),
(415,119,o),
(371,119,cs)
);
}
);
width = 711;
},
{
anchors = (
{
name = bottom;
pos = (297,0);
},
{
name = top;
pos = (359,600);
}
);
layerId = "49F060A0-2273-4F54-8B81-08E0B15B03EC";
name = Regular;
shapes = (
{
closed = 1;
locked = 1;
nodes = (
(625,-200,o),
(690,80,o),
(690,334,cs),
(690,506,o),
(660,614,o),
(546,614,cs),
(505,614,o),
(465,595,o),
(437,553,cs),
(430,542,o),
(426,534,o),
(415,534,cs),
(405,534,o),
(399,542,o),
(393,549,cs),
(359,591,o),
(306,614,o),
(236,614,cs),
(110,614,o),
(28,519,o),
(28,362,cs),
(28,272,o),
(66,166,o),
(127,90,cs),
(174,32,o),
(231,-14,o),
(302,-14,cs),
(357,-14,o),
(402,10,o),
(430,51,cs),
(436,59,o),
(442,66,o),
(451,66,cs),
(473,66,o),
(474,33,o),
(474,14,cs),
(474,-55,o),
(430,-106,o),
(336,-106,cs),
(303,-106,o),
(285,-95,o),
(249,-71,cs),
(239,-64,o),
(228,-62,o),
(218,-62,cs),
(193,-62,o),
(172,-80,o),
(172,-105,cs),
(172,-136,o),
(187,-163,o),
(223,-179,cs),
(254,-193,o),
(300,-200,o),
(343,-200,cs)
);
},
{
closed = 1;
nodes = (
(307,120,o),
(276,192,o),
(276,224,cs),
(276,268,o),
(301,296,o),
(356,296,cs),
(421,296,o),
(441,237,o),
(441,188,cs),
(441,144,o),
(413,120,o),
(375,120,cs)
);
}
);
width = 718;
}
);
unicode = 103;
}
{
color = 10;
glyphname = h;
kernLeft = KO_h;
kernRight = KO_n;
layers = (
{
associatedMasterId = "49F060A0-2273-4F54-8B81-08E0B15B03EC";
layerId = "2D50AF10-1B91-47D6-AFB0-8698EBB8297A";
name = "24 Nov 23 at 01:11";
shapes = (
{
closed = 1;
nodes = (
(310,245,o),
(325,248,o),
(338,248,cs),
(412,248,o),
(422,157,o),
(422,83,cs),
(422,10,o),
(448,-14,o),
(473,-14,cs),
(549,-14,o),
(706,143,o),
(706,360,cs),
(706,523,o),
(585,610,o),
(498,610,cs),
(445,610,o),
(416,586,o),
(373,547,cs),
(365,540,o),
(353,531,o),
(342,531,cs),
(334,531,o),
(328,537,o),
(328,548,cs),
(328,571,o),
(328,582,o),
(328,593,cs),
(328,735,o),
(259,813,o),
(179,813,cs),
(98,813,o),
(29,735,o),
(29,593,cs),
(29,402,o),
(65,206,o),
(96,87,cs),
(112,24,o),
(136,-13,o),
(179,-13,cs),
(222,-13,o),
(245,24,o),
(261,87,cs),
(269,119,o),
(278,158,o),
(288,203,cs),
(290,212,o),
(292,222,o),
(298,230,cs)
);
}
);
width = 729;
},
{
associatedMasterId = "49F060A0-2273-4F54-8B81-08E0B15B03EC";
layerId = "DB335F40-78CE-459A-B6A6-52F1E0E3B918";
name = "7 Dec 23 at 17:14";
shapes = (
{
closed = 1;
nodes = (
(261,295,o),
(348,295,cs),
(436,295,o),
(422,157,o),
(422,83,cs),
(422,10,o),
(448,-14,o),
(473,-14,cs),
(549,-14,o),
(706,143,o),
(706,360,cs),
(706,523,o),
(585,610,o),
(498,610,cs),
(445,610,o),
(416,586,o),
(373,547,cs),
(365,540,o),
(353,531,o),
(342,531,cs),
(334,531,o),
(328,537,o),
(328,548,cs),
(328,571,o),
(328,582,o),
(328,593,cs),
(328,735,o),
(259,813,o),
(179,813,cs),
(98,813,o),
(29,735,o),
(29,593,cs),
(29,402,o),
(65,206,o),
(96,87,cs),
(112,24,o),
(136,-13,o),
(179,-13,cs),
(222,-13,o),
(251,24,o),
(261,87,cs),
(267,125,o)
);
}
);
width = 729;
},
{
associatedMasterId = "49F060A0-2273-4F54-8B81-08E0B15B03EC";
layerId = "E0997BE1-2E6B-484E-8E22-E4960C32D8B0";
name = "14 Dec 23 at 20:46";
shapes = (
{
closed = 1;
nodes = (
(267,125,o),
(261,295,o),
(348,295,cs),
(436,295,o),
(422,157,o),
(422,83,cs),
(422,10,o),
(448,-14,o),
(473,-14,cs),
(549,-14,o),
(706,143,o),
(706,360,cs),
(706,523,o),
(585,610,o),
(498,610,cs),
(445,610,o),
(416,586,o),
(373,547,cs),
(365,540,o),
(353,531,o),
(342,531,cs),
(334,531,o),
(328,537,o),
(328,548,cs),
(328,571,o),
(328,582,o),
(328,593,cs),
(328,735,o),
(259,813,o),
(179,813,cs),
(98,813,o),
(29,735,o),
(29,593,cs),
(29,402,o),
(65,206,o),
(96,87,cs),
(112,24,o),
(136,-13,o),
(179,-13,cs),
(222,-13,o),
(251,24,o),
(261,87,cs)
);
}
);
width = 729;
},
{
associatedMasterId = "49F060A0-2273-4F54-8B81-08E0B15B03EC";
layerId = "F998EEBA-B140-4874-8E2F-E5EBFC841858";
name = "14 Dec 23 at 20:51";
shapes = (
{
closed = 1;
nodes = (
(152,-13,ls),
(173,-13,o),
(192,16,o),
(203,57,cs),
(229,148,o),
(216,295,o),
(321,295,cs),
(409,295,o),
(406,157,o),
(406,83,cs),
(406,10,o),
(421,-14,o),
(446,-14,cs),
(512,-14,o),
(597,151,o),
(597,368,cs),
(597,531,o),
(517,612,o),
(430,612,cs),
(377,612,o),
(348,588,o),
(313,556,cs),
(298,543,o),
(293,534,o),
(283,534,cs),
(272,534,o),
(268,555,o),
(268,593,cs),
(268,735,o),
(231,813,o),
(151,813,cs),
(70,813,o),
(21,733,o),
(21,591,cs),
(21,400,o),
(57,204,o),
(88,85,cs),
(104,22,o),
(120,-13,o),
(151,-13,cs)
);
}
);
width = 613;
},
{
anchors = (
{
name = bottom;
pos = (293,0);
},
{
name = top;
pos = (293,600);
}
);
layerId = "49F060A0-2273-4F54-8B81-08E0B15B03EC";
name = Regular;
shapes = (
{
closed = 1;
nodes = (
(514,-14,o),
(599,159,o),
(599,352,cs),
(599,540,o),
(519,614,o),
(430,614,cs),
(387,614,o),
(357,595,o),
(317,558,cs),
(297,540,o),
(294,534,o),
(286,534,cs),
(277,534,o),
(270,543,o),
(270,593,cs),
(270,719,o),
(235,814,o),
(144,814,cs),
(59,814,o),
(16,732,o),
(16,565,cs),
(16,413,o),
(52,204,o),
(83,85,cs),
(100,20,o),
(118,-14,o),
(149,-14,cs),
(179,-14,o),
(195,18,o),
(206,60,cs),
(229,147,o),
(221,295,o),
(320,295,cs),
(408,295,o),
(408,176,o),
(408,83,cs),
(408,10,o),
(423,-14,o),
(448,-14,cs)
);
}
);
width = 626;
}
);
metricRight = n;
unicode = 104;
userData = {
KernOnName = h;
};
}
{
color = 10;
glyphname = i;
kernLeft = KO_i;
kernRight = KO_i;
layers = (
{
associatedMasterId = "49F060A0-2273-4F54-8B81-08E0B15B03EC";
layerId = "E280639C-BC94-43B7-A907-4C91C8050F2A";
name = "3 Mar 24 at 02:17";
shapes = (
{
closed = 1;
nodes = (
(193,-14,o),
(212,10,o),
(227,54,cs),
(246,109,o),
(284,265,o),
(284,369,cs),
(284,487,o),
(235,539,o),
(155,539,cs),
(75,539,o),
(26,487,o),
(26,369,cs),
(26,265,o),
(64,109,o),
(83,54,cs),
(97,13,o),
(115,-14,o),
(155,-14,cs)
);
},
{
closed = 1;
nodes = (
(236,590,o),
(286,628,o),
(286,697,cs),
(286,766,o),
(236,802,o),
(154,802,cs),
(75,802,o),
(25,766,o),
(25,697,cs),
(25,628,o),
(75,590,o),
(154,590,cs)
);
}
);
width = 311;
},
{
anchors = (
{
name = bottom;
pos = (151,0);
}
);
layerId = "49F060A0-2273-4F54-8B81-08E0B15B03EC";
name = Regular;
shapes = (
{
closed = 1;
nodes = (
(189,-14,o),
(208,10,o),
(223,54,cs),
(242,109,o),
(280,265,o),
(280,369,cs),
(280,487,o),
(231,539,o),
(151,539,cs),
(71,539,o),
(22,487,o),
(22,369,cs),
(22,265,o),
(60,109,o),
(79,54,cs),
(93,13,o),
(111,-14,o),
(151,-14,cs)
);
},
{
closed = 1;
nodes = (
(219,600,o),
(264,643,o),
(264,710,cs),
(264,776,o),
(219,817,o),
(151,817,cs),
(83,817,o),
(38,776,o),
(38,710,cs),
(38,643,o),
(83,600,o),
(151,600,cs)
);
}
);
width = 302;
}
);
metricRight = "=|";
unicode = 105;
userData = {
KernOnName = i;
};
}
{
color = 10;
glyphname = j;
kernLeft = KO_j;
kernRight = KO_j;
layers = (
{
associatedMasterId = "49F060A0-2273-4F54-8B81-08E0B15B03EC";
guides = (
{
pos = (258,715);
}
);
layerId = "EDFC533A-2515-4C3C-8878-8805A9AFF2BA";
name = "3 Mar 24 at 02:53";
shapes = (
{
closed = 1;
nodes = (
(75,-200,o),
(113,-197,o),
(145,-183,cs),
(252,-135,o),
(334,28,o),
(334,255,cs),
(334,435,o),
(261,534,o),
(162,534,cs),
(94,534,o),
(19,500,o),
(19,422,cs),
(19,373,o),
(48,291,o),
(68,224,cs),
(89,152,o),
(100,65,o),
(100,0,cs),
(100,-41,o),
(96,-73,o),
(87,-87,cs),
(74,-108,o),
(30,-114,o),
(-1,-114,cs),
(-32,-114,o),
(-46,-137,o),
(-46,-154,cs),
(-46,-198,o),
(3,-200,o),
(46,-200,cs)
);
},
{
closed = 1;
nodes = (
(209,591,o),
(259,629,o),
(259,698,cs),
(259,767,o),
(209,803,o),
(127,803,cs),
(48,803,o),
(-2,767,o),
(-2,698,cs),
(-2,629,o),
(48,591,o),
(127,591,cs)
);
}
);
width = 340;
},
{
layerId = "49F060A0-2273-4F54-8B81-08E0B15B03EC";
name = Regular;
shapes = (
{
closed = 1;
nodes = (
(81,-200,o),
(119,-197,o),
(151,-183,cs),
(258,-135,o),
(340,28,o),
(340,255,cs),
(340,435,o),
(267,534,o),
(168,534,cs),
(100,534,o),
(25,500,o),
(25,422,cs),
(25,373,o),
(54,291,o),
(74,224,cs),
(95,152,o),
(106,65,o),
(106,0,cs),
(106,-41,o),
(102,-73,o),
(93,-87,cs),
(80,-108,o),
(36,-114,o),
(5,-114,cs),
(-26,-114,o),
(-40,-137,o),
(-40,-154,cs),
(-40,-198,o),
(9,-200,o),
(52,-200,cs)
);
},
{
closed = 1;
nodes = (
(206,600,o),
(251,643,o),
(251,710,cs),
(251,776,o),
(206,817,o),
(138,817,cs),
(70,817,o),
(25,776,o),
(25,710,cs),
(25,643,o),
(70,600,o),
(138,600,cs)
);
}
);
width = 364;
}
);
unicode = 106;
userData = {
KernOnName = j;
};
}
{
color = 10;
glyphname = k;
kernLeft = KO_k;
kernRight = KO_k;
layers = (
{
associatedMasterId = "49F060A0-2273-4F54-8B81-08E0B15B03EC";
layerId = "A7002D93-2047-4F5D-AC6E-23367EBD1C11";
name = "2 Nov 23 at 06:37";
shapes = (
{
closed = 1;
nodes = (
(221,-14,o),
(258,61,o),
(280,176,c),
(299,194,o),
(324,208,o),
(349,208,cs),
(410,208,o),
(419,125,o),
(419,64,cs),
(419,0,o),
(450,-14,o),
(467,-14,cs),
(522,-14,o),
(595,133,o),
(595,259,cs),
(595,351,o),
(556,393,o),
(510,405,c),
(543,444,o),
(551,488,o),
(545,526,cs),
(541,551,o),
(531,572,o),
(517,591,c),
(502,605,o),
(486,611,o),
(469,611,cs),
(457,611,o),
(446,603,o),
(439,596,cs),
(407,565,o),
(415,491,o),
(375,442,cs),
(353,415,o),
(326,407,o),
(305,407,c),
(306,435,o),
(307,464,o),
(307,501,cs),
(307,707,o),
(275,812,o),
(179,812,cs),
(83,812,o),
(45,706,o),
(45,480,cs),
(45,218,o),
(96,-14,o),
(176,-14,cs)
);
}
);
width = 693;
},
{
associatedMasterId = "49F060A0-2273-4F54-8B81-08E0B15B03EC";
backgroundImage = {
imagePath = "/Volumes/ADAM-DOC/DOCUMENTS/Google-project_african languages/20octobre/23 October2023/28 October2023/From-Lisa/new_correction_2023:12:19/7Janvier2024/Screenshot 2024-01-08 at 01.17.23.png";
pos = (923,-94);
scale = (14.4191,14.4191);
};
layerId = "781D9D2B-A2C0-4A00-930D-1736386CE733";
name = "14 Dec 23 at 20:37";
shapes = (
{
closed = 1;
nodes = (
(648,595,o),
(625,602,o),
(601,602,cs),
(535,602,o),
(469,551,o),
(450,470,cs),
(444,444,o),
(428,336,o),
(368,336,cs),
(345,336,o),
(328,363,o),
(328,388,cs),
(328,462,o),
(430,494,o),
(430,624,cs),
(430,732,o),
(359,813,o),
(247,813,cs),
(137,813,o),
(25,734,o),
(25,517,cs),
(25,287,o),
(151,87,o),
(232,14,cs),
(250,-2,o),
(268,-14,o),
(287,-14,cs),
(294,-14,o),
(301,-13,o),
(309,-9,cs),
(329,1,o),
(338,20,o),
(338,42,cs),
(338,50,o),
(337,59,o),
(334,68,cs),
(324,99,o),
(318,130,o),
(318,147,cs),
(318,167,o),
(327,190,o),
(344,203,cs),
(353,210,o),
(364,214,o),
(376,214,cs),
(396,214,o),
(419,201,o),
(436,167,cs),
(458,124,o),
(509,51,o),
(532,24,cs),
(547,6,o),
(570,-15,o),
(597,-15,cs),
(608,-15,o),
(619,-11,o),
(631,-2,cs),
(648,11,o),
(660,31,o),
(660,54,cs),
(660,73,o),
(651,94,o),
(629,114,cs),
(619,123,o),
(597,137,o),
(584,151,cs),
(560,175,o),
(552,194,o),
(552,210,cs),
(552,238,o),
(577,255,o),
(595,265,cs),
(684,317,o),
(727,398,o),
(727,467,cs),
(727,514,o),
(708,556,o),
(670,581,cs)
);
}
);
width = 732;
},
{
associatedMasterId = "49F060A0-2273-4F54-8B81-08E0B15B03EC";
backgroundImage = {
imagePath = "/Volumes/ADAM-DOC/DOCUMENTS/Google-project_african languages/20octobre/23 October2023/28 October2023/From-Lisa/new_correction_2023:12:19/7Janvier2024/Screenshot 2024-01-08 at 01.17.23.png";
locked = 1;
pos = (-51,-91);
scale = (14.6305,14.6305);
};
layerId = "47B66539-498C-405C-A202-A96096A32A1B";
name = "8 Feb 24 at 21:06";
shapes = (
{
closed = 1;
nodes = (
(587,-15,o),
(619,6,o),
(619,48,cs),
(619,126,o),
(506,151,o),
(506,211,cs),
(506,284,o),
(677,364,o),
(677,487,cs),
(677,544,o),
(643,609,o),
(563,609,cs),
(454,609,o),
(426,468,o),
(389,389,c),
(375,352,o),
(352,334,o),
(325,334,cs),
(291,334,o),
(277,363,o),
(277,390,cs),
(277,460,o),
(378,513,o),
(378,646,cs),
(378,746,o),
(320,811,o),
(228,811,cs),
(128,811,o),
(25,734,o),
(25,520,cs),
(25,276,o),
(159,79,o),
(232,14,cs),
(249,-1,o),
(268,-14,o),
(287,-14,cs),
(312,-14,o),
(338,7,o),
(338,39,cs),
(338,73,o),
(307,141,o),
(307,177,cs),
(307,200,o),
(320,217,o),
(341,217,cs),
(358,217,o),
(368,206,o),
(375,196,cs),
(410,146,o),
(473,-15,o),
(557,-15,cs)
);
}
);
width = 682;
},
{
anchors = (
{
name = bottom;
pos = (381,5);
},
{
name = top;
pos = (383,800);
}
);
layerId = "49F060A0-2273-4F54-8B81-08E0B15B03EC";
name = Regular;
shapes = (
{
closed = 1;
nodes = (
(587,-14,o),
(619,6,o),
(619,48,cs),
(619,126,o),
(506,151,o),
(506,211,cs),
(506,284,o),
(677,363,o),
(677,488,cs),
(677,544,o),
(642,613,o),
(564,613,cs),
(454,613,o),
(426,474,o),
(389,389,cs),
(373,353,o),
(352,334,o),
(325,334,cs),
(291,334,o),
(277,364,o),
(277,390,cs),
(277,461,o),
(378,513,o),
(378,646,cs),
(378,746,o),
(320,814,o),
(228,814,cs),
(128,814,o),
(25,734,o),
(25,520,cs),
(25,276,o),
(158,79,o),
(232,14,cs),
(248,-1,o),
(268,-14,o),
(287,-14,cs),
(312,-14,o),
(338,7,o),
(338,39,cs),
(338,73,o),
(307,141,o),
(307,177,cs),
(307,200,o),
(320,217,o),
(341,217,cs),
(358,217,o),
(368,207,o),
(375,196,cs),
(410,147,o),
(473,-14,o),
(557,-14,cs)
);
}
);
width = 693;
}
);
unicode = 107;
userData = {
KernOnName = k;
};
}
{
color = 10;
glyphname = l;
kernLeft = KO_l;
kernRight = KO_l;
layers = (
{
associatedMasterId = "49F060A0-2273-4F54-8B81-08E0B15B03EC";
layerId = "E2B89F03-5028-4B27-94C3-4CB30D4A357B";
name = "29 Nov 23 at 16:20";
shapes = (
{
closed = 1;
nodes = (
(383,-10,o),
(403,9,o),
(401,33,cs),
(400,54,o),
(384,83,o),
(345,75,cs),
(303,64,o),
(246,68,o),
(254,100,cs),
(282,208,o),
(310,402,o),
(310,546,cs),
(310,694,o),
(274,814,o),
(168,814,cs),
(61,814,o),
(25,694,o),
(25,546,cs),
(25,305,o),
(61,66,o),
(211,1,cs),
(265,-23,o),
(338,-16,o),
(354,-14,cs)
);
}
);
width = 416;
},
{
associatedMasterId = "49F060A0-2273-4F54-8B81-08E0B15B03EC";
layerId = "6D2E26DA-7795-4645-95C1-1FCF8197982A";
name = "5 Dec 23 at 02:24";
shapes = (
{
closed = 1;
nodes = (
(61,66,o),
(25,305,o),
(25,546,cs),
(25,694,o),
(61,814,o),
(168,814,cs),
(274,814,o),
(310,694,o),
(310,546,cs),
(310,402,o),
(290,231,o),
(264,143,cs),
(247,84,o),
(325,70,o),
(357,70,cs),
(388,70,o),
(402,47,o),
(402,30,cs),
(402,0,o),
(381,-10,o),
(354,-14,cs),
(338,-16,o),
(265,-23,o),
(211,1,c)
);
}
);
width = 416;
},
{
anchors = (
{
name = bottom;
pos = (156,-1);
},
{
name = top;
pos = (158,800);
}
);
layerId = "49F060A0-2273-4F54-8B81-08E0B15B03EC";
name = Regular;
shapes = (
{
closed = 1;
nodes = (
(326,-14,o),
(365,-5,o),
(365,29,cs),
(365,50,o),
(351,68,o),
(320,72,cs),
(283,77,o),
(251,92,o),
(248,148,cs),
(244,220,o),
(283,497,o),
(289,548,cs),
(314,755,o),
(241,814,o),
(165,814,cs),
(58,814,o),
(26,696,o),
(26,516,cs),
(26,303,o),
(71,60,o),
(212,3,cs),
(244,-10,o),
(268,-14,o),
(290,-14,cs)
);
}
);
width = 330;
}
);
unicode = 108;
userData = {
KernOnName = l;
};
}
{
color = 10;
glyphname = m;
kernLeft = KO_m;
kernRight = KO_m;
layers = (
{
associatedMasterId = "49F060A0-2273-4F54-8B81-08E0B15B03EC";
layerId = "68C29B77-25E6-41C4-AC70-FA7C4730FCFD";
name = "24 Nov 23 at 01:07";
shapes = (
{
closed = 1;
nodes = (
(533,591,o),
(478,610,o),
(435,610,cs),
(382,610,o),
(353,586,o),
(318,554,cs),
(303,541,o),
(298,532,o),
(288,532,cs),
(277,532,o),
(273,540,o),
(266,551,cs),
(238,593,o),
(198,613,o),
(157,613,cs),
(88,613,o),
(28,553,o),
(28,446,cs),
(28,300,o),
(59,152,o),
(86,61,cs),
(100,13,o),
(120,-15,o),
(157,-15,cs),
(200,-15,o),
(223,22,o),
(239,85,cs),
(247,117,o),
(256,156,o),
(265,197,cs),
(268,210,o),
(270,220,o),
(276,228,cs),
(288,243,o),
(303,246,o),
(316,246,cs),
(390,246,o),
(400,155,o),
(400,81,cs),
(400,8,o),
(426,-16,o),
(451,-16,cs),
(505,-16,o),
(548,64,o),
(582,199,cs),
(584,208,o),
(586,218,o),
(592,226,cs),
(604,241,o),
(619,244,o),
(632,244,cs),
(706,244,o),
(716,153,o),
(716,79,cs),
(716,6,o),
(742,-18,o),
(767,-18,cs),
(843,-18,o),
(965,141,o),
(965,358,cs),
(965,521,o),
(838,608,o),
(751,608,cs),
(698,608,o),
(669,584,o),
(634,552,cs),
(619,539,o),
(614,530,o),
(604,530,cs),
(593,530,o),
(582,539,o),
(573,548,cs)
);
}
);
width = 980;
},
{
associatedMasterId = "49F060A0-2273-4F54-8B81-08E0B15B03EC";
layerId = "5C551873-25DD-4293-890B-9453E512FE71";
name = "5 Dec 23 at 20:41";
shapes = (
{
closed = 1;
nodes = (
(490,-15,o),
(513,25,o),
(529,76,cs),
(558,168,o),
(563,295,o),
(635,295,cs),
(709,295,o),
(709,157,o),
(709,81,cs),
(709,6,o),
(735,-15,o),
(760,-15,cs),
(836,-15,o),
(958,141,o),
(958,358,cs),
(958,521,o),
(831,608,o),
(744,608,cs),
(691,608,o),
(662,584,o),
(627,552,cs),
(612,539,o),
(607,530,o),
(597,530,cs),
(586,530,o),
(575,539,o),
(566,548,cs),
(526,591,o),
(471,610,o),
(428,610,cs),
(375,610,o),
(346,586,o),
(311,554,cs),
(296,541,o),
(291,532,o),
(281,532,cs),
(270,532,o),
(266,540,o),
(259,551,cs),
(231,593,o),
(191,613,o),
(150,613,cs),
(81,613,o),
(21,553,o),
(21,446,cs),
(21,300,o),
(52,152,o),
(79,61,cs),
(93,13,o),
(113,-15,o),
(150,-15,cs),
(193,-15,o),
(213,15,o),
(224,56,cs),
(249,148,o),
(229,295,o),
(319,295,cs),
(407,295,o),
(393,157,o),
(393,82,cs),
(393,8,o),
(419,-15,o),
(444,-15,cs)
);
}
);
width = 973;
},
{
anchors = (
{
name = bottom;
pos = (446,-14);
},
{
name = top;
pos = (476,613);
}
);
layerId = "49F060A0-2273-4F54-8B81-08E0B15B03EC";
name = Regular;
shapes = (
{
closed = 1;
nodes = (
(508,-14,o),
(551,94,o),
(571,186,cs),
(582,237,o),
(589,295,o),
(647,295,cs),
(733,295,o),
(733,171,o),
(733,83,cs),
(733,10,o),
(748,-14,o),
(772,-14,cs),
(839,-14,o),
(917,165,o),
(917,342,cs),
(917,531,o),
(829,614,o),
(731,614,cs),
(684,614,o),
(654,589,o),
(615,553,cs),
(598,537,o),
(592,529,o),
(582,529,cs),
(571,529,o),
(567,539,o),
(561,548,cs),
(538,583,o),
(489,614,o),
(435,614,cs),
(391,614,o),
(360,592,o),
(323,558,cs),
(306,542,o),
(300,534,o),
(290,534,cs),
(280,534,o),
(276,542,o),
(269,553,cs),
(243,593,o),
(203,614,o),
(158,614,cs),
(83,614,o),
(31,555,o),
(31,426,cs),
(31,325,o),
(63,141,o),
(89,63,cs),
(103,21,o),
(123,-14,o),
(151,-14,cs),
(160,-14,o),
(194,-17,o),
(212,60,cs),
(235,157,o),
(213,295,o),
(309,295,cs),
(397,295,o),
(397,177,o),
(397,83,cs),
(397,34,o),
(404,-14,o),
(446,-14,cs)
);
}
);
width = 944;
}
);
metricLeft = n;
metricRight = n;
unicode = 109;
}
{
color = 10;
glyphname = n;
kernLeft = KO_n;
kernRight = KO_n;
layers = (
{
associatedMasterId = "49F060A0-2273-4F54-8B81-08E0B15B03EC";
layerId = "13FD320A-00C9-4C15-9BE2-1CD4266C4200";
name = "24 Nov 23 at 01:07";
shapes = (
{
closed = 1;
nodes = (
(520,-16,o),
(642,143,o),
(642,360,cs),
(642,523,o),
(515,610,o),
(428,610,cs),
(375,610,o),
(346,586,o),
(311,554,cs),
(296,541,o),
(291,532,o),
(281,532,cs),
(270,532,o),
(266,540,o),
(259,551,cs),
(231,593,o),
(191,613,o),
(150,613,cs),
(81,613,o),
(21,553,o),
(21,446,cs),
(21,300,o),
(52,152,o),
(79,61,cs),
(93,13,o),
(113,-15,o),
(150,-15,cs),
(193,-15,o),
(216,22,o),
(232,85,cs),
(240,117,o),
(249,156,o),
(259,201,cs),
(261,210,o),
(263,220,o),
(269,228,cs),
(281,243,o),
(296,246,o),
(309,246,cs),
(383,246,o),
(393,155,o),
(393,81,cs),
(393,8,o),
(419,-16,o),
(444,-16,c)
);
}
);
width = 657;
},
{
associatedMasterId = "49F060A0-2273-4F54-8B81-08E0B15B03EC";
layerId = "9B5F5E32-C0A0-4695-B9D9-B89FB33B4045";
name = "5 Dec 23 at 20:42";
shapes = (
{
closed = 1;
nodes = (
(393,8,o),
(419,-16,o),
(444,-16,c),
(520,-16,o),
(642,143,o),
(642,360,cs),
(642,523,o),
(515,610,o),
(428,610,cs),
(375,610,o),
(346,586,o),
(311,554,cs),
(296,541,o),
(291,532,o),
(281,532,cs),
(270,532,o),
(266,540,o),
(259,551,cs),
(231,593,o),
(191,613,o),
(150,613,cs),
(81,613,o),
(21,553,o),
(21,446,cs),
(21,300,o),
(52,152,o),
(79,61,cs),
(93,13,o),
(113,-15,o),
(150,-15,cs),
(192,-15,o),
(212,14,o),
(223,55,cs),
(249,146,o),
(231,293,o),
(319,293,cs),
(407,293,o),
(393,155,o),
(393,81,cs)
);
}
);
width = 657;
},
{
anchors = (
{
name = bottom;
pos = (313,0);
},
{
name = top;
pos = (298,600);
}
);
layerId = "49F060A0-2273-4F54-8B81-08E0B15B03EC";
name = Regular;
shapes = (
{
closed = 1;
nodes = (
(520,-14,o),
(598,153,o),
(598,370,cs),
(598,533,o),
(525,614,o),
(438,614,cs),
(385,614,o),
(352,593,o),
(321,558,cs),
(308,543,o),
(301,532,o),
(291,532,cs),
(280,532,o),
(276,540,o),
(269,551,cs),
(241,593,o),
(201,614,o),
(160,614,cs),
(91,614,o),
(31,553,o),
(31,446,cs),
(31,300,o),
(62,152,o),
(89,61,cs),
(103,13,o),
(123,-14,o),
(153,-14,cs),
(181,-14,o),
(200,14,o),
(211,55,cs),
(237,146,o),
(224,293,o),
(329,293,cs),
(417,293,o),
(414,155,o),
(414,81,cs),
(414,8,o),
(429,-14,o),
(454,-14,cs)
);
}
);
width = 625;
}
);
unicode = 110;
userData = {
KernOnName = n;
};
}
{
color = 10;
glyphname = o;
kernLeft = KO_o;
kernRight = KO_o;
layers = (
{
associatedMasterId = "49F060A0-2273-4F54-8B81-08E0B15B03EC";
layerId = "7868EE27-9D9A-4F02-B80F-A7A7A298D505";
name = "23 Nov 23 at 22:56";
shapes = (
{
closed = 1;
nodes = (
(113,616,o),
(24,519,o),
(24,341,cs),
(24,127,o),
(156,-14,o),
(318,-14,cs),
(474,-14,o),
(602,126,o),
(602,339,cs),
(602,518,o),
(513,616,o),
(312,616,cs)
);
},
{
closed = 1;
nodes = (
(273,129,o),
(253,155,o),
(253,201,cs),
(253,247,o),
(273,273,o),
(314,273,cs),
(353,273,o),
(373,247,o),
(373,201,cs),
(373,155,o),
(353,129,o),
(314,129,cs)
);
}
);
width = 626;
},
{
associatedMasterId = "49F060A0-2273-4F54-8B81-08E0B15B03EC";
layerId = "DFA69A14-923D-4241-B65E-9FDE670A7BA5";
name = "6 Dec 23 at 01:52";
shapes = (
{
closed = 1;
nodes = (
(113,616,o),
(24,519,o),
(24,341,cs),
(24,127,o),
(156,-14,o),
(318,-14,cs),
(474,-14,o),
(602,126,o),
(602,339,cs),
(602,518,o),
(513,616,o),
(312,616,cs)
);
},
{
closed = 1;
nodes = (
(273,117,o),
(253,149,o),
(253,207,cs),
(253,263,o),
(273,295,o),
(314,295,cs),
(353,295,o),
(373,263,o),
(373,207,cs),
(373,149,o),
(353,117,o),
(314,117,cs)
);
}
);
width = 626;
},
{
anchors = (
{
name = bottom;
pos = (317,0);
},
{
name = center;
pos = (317,300);
},
{
name = ogonek;
pos = (567,10);
},
{
name = top;
pos = (317,600);
}
);
layerId = "49F060A0-2273-4F54-8B81-08E0B15B03EC";
name = Regular;
shapes = (
{
closed = 1;
nodes = (
(478,-14,o),
(606,126,o),
(606,339,cs),
(606,518,o),
(517,614,o),
(316,614,cs),
(117,614,o),
(28,519,o),
(28,341,cs),
(28,127,o),
(160,-14,o),
(322,-14,cs)
);
},
{
closed = 1;
nodes = (
(264,71,o),
(238,112,o),
(238,187,cs),
(238,259,o),
(264,300,o),
(318,300,cs),
(370,300,o),
(397,259,o),
(397,187,cs),
(397,112,o),
(370,71,o),
(318,71,cs)
);
}
);
width = 634;
},
{
associatedMasterId = "49F060A0-2273-4F54-8B81-08E0B15B03EC";
layerId = "B7F0300C-B64B-4D5F-899D-085FCB3AA399";
name = "14 Dec 23 at 20:52";
shapes = (
{
closed = 1;
nodes = (
(113,616,o),
(24,519,o),
(24,341,cs),
(24,127,o),
(156,-14,o),
(318,-14,cs),
(474,-14,o),
(602,126,o),
(602,339,cs),
(602,518,o),
(513,616,o),
(312,616,cs)
);
},
{
closed = 1;
nodes = (
(260,66,o),
(229,107,o),
(229,182,cs),
(229,254,o),
(260,295,o),
(314,295,cs),
(366,295,o),
(401,254,o),
(401,182,cs),
(401,107,o),
(366,66,o),
(314,66,cs)
);
}
);
width = 626;
}
);
unicode = 111;
userData = {
KernOnName = o;
};
}
{
color = 10;
glyphname = p;
kernLeft = KO_p;
kernRight = KO_p;
layers = (
{
associatedMasterId = "49F060A0-2273-4F54-8B81-08E0B15B03EC";
layerId = "CD7B1924-3379-4DE4-A424-F02DEB28CDA3";
name = "14 Dec 23 at 20:38";
shapes = (
{
closed = 1;
nodes = (
(304,117,o),
(286,148,o),
(286,209,cs),
(286,268,o),
(319,291,o),
(367,291,cs),
(421,291,o),
(446,263,o),
(446,219,cs),
(446,188,o),
(415,117,o),
(349,117,cs)
);
},
{
closed = 1;
nodes = (
(682,359,l),
(682,491,o),
(627,614,o),
(487,616,cs),
(452,616,o),
(417,604,o),
(390,588,cs),
(369,576,o),
(352,557,o),
(345,546,cs),
(337,533,o),
(331,527,o),
(323,527,cs),
(312,527,o),
(309,533,o),
(302,545,cs),
(274,595,o),
(224,618,o),
(173,618,cs),
(83,618,o),
(29,541,o),
(29,401,cs),
(29,213,o),
(61,18,o),
(94,-99,cs),
(113,-162,o),
(143,-196,o),
(176,-198,cs),
(248,-202,o),
(276,-22,o),
(289,30,cs),
(292,42,o),
(301,49,o),
(313,49,cs),
(323,49,o),
(330,42,o),
(336,34,cs),
(367,-7,o),
(393,-14,o),
(427,-14,cs),
(554,-14,o),
(682,151,o),
(682,360,c)
);
}
);
width = 698;
},
{
associatedMasterId = "49F060A0-2273-4F54-8B81-08E0B15B03EC";
layerId = "B4BD9E7C-19CD-488D-B54F-24866643E55D";
name = "23 Nov 23 at 22:55";
shapes = (
{
closed = 1;
nodes = (
(452,616,o),
(417,604,o),
(390,588,cs),
(369,576,o),
(352,557,o),
(345,546,cs),
(337,533,o),
(331,527,o),
(323,527,cs),
(312,527,o),
(309,533,o),
(302,545,cs),
(274,595,o),
(224,618,o),
(173,618,cs),
(83,618,o),
(29,541,o),
(29,401,cs),
(29,213,o),
(61,18,o),
(94,-99,cs),
(113,-162,o),
(129,-198,o),
(176,-198,cs),
(224,-198,o),
(245,-160,o),
(263,-97,cs),
(272,-68,o),
(280,-34,o),
(289,3,cs),
(292,15,o),
(301,22,o),
(313,22,cs),
(322,22,o),
(332,14,o),
(347,2,cs),
(368,-15,o),
(393,-24,o),
(419,-24,cs),
(495,-24,o),
(553,31,o),
(600,89,cs),
(661,165,o),
(699,271,o),
(699,361,cs),
(699,518,o),
(617,614,o),
(487,616,cs)
);
},
{
closed = 1;
nodes = (
(325,122,o),
(302,146,o),
(309,195,cs),
(316,241,o),
(332,260,o),
(371,258,cs),
(414,258,o),
(435,239,o),
(433,202,cs),
(431,170,o),
(402,122,o),
(363,122,cs)
);
}
);
width = 715;
},
{
associatedMasterId = "49F060A0-2273-4F54-8B81-08E0B15B03EC";
layerId = "4FF14BD1-D4B1-4ECD-85CC-70606515DAA9";
name = "7 Dec 23 at 19:43";
shapes = (
{
closed = 1;
nodes = (
(452,616,o),
(417,604,o),
(390,588,cs),
(369,576,o),
(352,557,o),
(345,546,cs),
(337,533,o),
(331,527,o),
(323,527,cs),
(312,527,o),
(309,533,o),
(302,545,cs),
(274,595,o),
(224,618,o),
(173,618,cs),
(83,618,o),
(29,541,o),
(29,401,cs),
(29,213,o),
(61,18,o),
(94,-99,cs),
(113,-162,o),
(129,-198,o),
(176,-198,cs),
(224,-198,o),
(245,-160,o),
(263,-97,cs),
(272,-68,o),
(280,-34,o),
(289,3,cs),
(292,15,o),
(301,22,o),
(313,22,cs),
(322,22,o),
(332,14,o),
(347,2,cs),
(368,-15,o),
(393,-24,o),
(419,-24,cs),
(495,-24,o),
(553,31,o),
(600,89,cs),
(661,165,o),
(699,271,o),
(699,361,cs),
(699,518,o),
(617,614,o),
(487,616,cs)
);
},
{
closed = 1;
nodes = (
(304,117,o),
(286,148,o),
(286,209,cs),
(286,268,o),
(319,291,o),
(367,291,cs),
(421,291,o),
(446,263,o),
(446,219,cs),
(446,188,o),
(415,117,o),
(349,117,cs)
);
}
);
width = 715;
},
{
associatedMasterId = "49F060A0-2273-4F54-8B81-08E0B15B03EC";
layerId = "7C4625FD-11D5-4E69-8E99-47D04A7A6364";
name = "18 Jan 24 at 19:35";
shapes = (
{
closed = 1;
nodes = (
(452,614,o),
(418,603,o),
(390,586,cs),
(367,572,o),
(353,556,o),
(345,544,cs),
(339,535,o),
(334,525,o),
(322,525,cs),
(311,525,o),
(308,533,o),
(302,543,cs),
(274,590,o),
(228,614,o),
(172,614,cs),
(73,614,o),
(29,538,o),
(29,366,cs),
(29,211,o),
(65,4,o),
(94,-100,cs),
(111,-162,o),
(129,-200,o),
(177,-200,cs),
(224,-200,o),
(245,-162,o),
(263,-99,cs),
(275,-58,o),
(279,-31,o),
(289,10,cs),
(292,22,o),
(302,29,o),
(312,29,cs),
(324,29,o),
(334,19,o),
(347,9,cs),
(368,-7,o),
(388,-16,o),
(421,-16,cs),
(575,-16,o),
(682,193,o),
(682,363,cs),
(682,489,o),
(623,614,o),
(491,614,cs)
);
},
{
closed = 1;
nodes = (
(306,115,o),
(286,146,o),
(286,200,cs),
(286,266,o),
(316,289,o),
(365,289,cs),
(419,289,o),
(446,261,o),
(446,223,cs),
(446,182,o),
(414,115,o),
(350,115,cs)
);
}
);
width = 698;
},
{
anchors = (
{
name = bottom;
pos = (310,3);
},
{
name = top;
pos = (322,606);
}
);
layerId = "49F060A0-2273-4F54-8B81-08E0B15B03EC";
name = Regular;
shapes = (
{
closed = 1;
nodes = (
(221,-200,o),
(241,-164,o),
(260,-99,cs),
(272,-58,o),
(276,-31,o),
(286,10,cs),
(289,22,o),
(299,29,o),
(309,29,cs),
(321,29,o),
(331,19,o),
(344,9,cs),
(365,-7,o),
(386,-14,o),
(415,-14,cs),
(573,-14,o),
(679,193,o),
(679,363,cs),
(679,488,o),
(621,614,o),
(486,614,cs),
(429,614,o),
(376,591,o),
(344,548,cs),
(336,537,o),
(332,530,o),
(321,530,cs),
(311,530,o),
(308,536,o),
(301,547,cs),
(272,592,o),
(233,614,o),
(177,614,cs),
(77,614,o),
(26,543,o),
(26,364,cs),
(26,213,o),
(62,4,o),
(91,-100,cs),
(108,-162,o),
(126,-200,o),
(174,-200,cs)
);
},
{
closed = 1;
nodes = (
(303,115,o),
(283,146,o),
(283,200,cs),
(283,266,o),
(313,289,o),
(362,289,cs),
(416,289,o),
(443,261,o),
(443,223,cs),
(443,182,o),
(411,115,o),
(347,115,cs)
);
}
);
width = 707;
}
);
metricRight = o;
unicode = 112;
userData = {
KernOnName = p;
};
}
{
color = 10;
glyphname = q;
kernLeft = KO_q;
kernRight = KO_q;
layers = (
{
associatedMasterId = "49F060A0-2273-4F54-8B81-08E0B15B03EC";
layerId = "2EEB6F95-F38F-4D15-B563-AA8F2ED23B0D";
name = "23 Nov 23 at 22:58";
shapes = (
{
closed = 1;
nodes = (
(98,614,o),
(16,518,o),
(16,361,cs),
(16,271,o),
(54,165,o),
(115,89,cs),
(162,31,o),
(220,-24,o),
(296,-24,cs),
(322,-24,o),
(347,-15,o),
(368,2,cs),
(384,15,o),
(394,23,o),
(404,22,cs),
(415,21,o),
(423,14,o),
(426,3,cs),
(435,-34,o),
(443,-68,o),
(452,-97,cs),
(470,-160,o),
(491,-198,o),
(539,-198,cs),
(586,-198,o),
(602,-162,o),
(621,-99,cs),
(654,18,o),
(686,213,o),
(686,401,cs),
(686,541,o),
(632,618,o),
(542,618,cs),
(491,618,o),
(441,595,o),
(413,545,cs),
(406,533,o),
(403,527,o),
(392,527,cs),
(384,527,o),
(378,533,o),
(370,546,cs),
(363,557,o),
(346,576,o),
(325,588,cs),
(298,604,o),
(263,616,o),
(228,616,cs)
);
},
{
closed = 1;
nodes = (
(300,139,o),
(271,187,o),
(269,219,cs),
(267,256,o),
(288,275,o),
(331,275,cs),
(370,277,o),
(386,258,o),
(393,212,cs),
(400,163,o),
(377,139,o),
(339,139,cs)
);
}
);
width = 715;
},
{
associatedMasterId = "49F060A0-2273-4F54-8B81-08E0B15B03EC";
layerId = "6B413650-8A3A-47E1-85EF-60D6337BA9B9";
name = "7 Dec 23 at 19:44";
shapes = (
{
closed = 1;
nodes = (
(98,616,o),
(16,518,o),
(16,361,cs),
(16,271,o),
(54,165,o),
(115,89,cs),
(162,31,o),
(220,-24,o),
(296,-24,cs),
(322,-24,o),
(347,-15,o),
(368,2,cs),
(383,14,o),
(393,22,o),
(402,22,cs),
(414,22,o),
(423,15,o),
(426,3,cs),
(435,-34,o),
(443,-68,o),
(452,-97,cs),
(470,-160,o),
(491,-198,o),
(539,-198,cs),
(586,-198,o),
(602,-162,o),
(621,-99,cs),
(654,18,o),
(686,213,o),
(686,401,cs),
(686,541,o),
(632,618,o),
(542,618,cs),
(491,618,o),
(441,595,o),
(413,545,cs),
(406,533,o),
(403,527,o),
(392,527,cs),
(384,527,o),
(378,533,o),
(370,546,cs),
(363,557,o),
(346,576,o),
(325,588,cs),
(298,604,o),
(263,616,o),
(228,616,cs)
);
},
{
closed = 1;
nodes = (
(281,119,o),
(250,191,o),
(250,223,cs),
(250,267,o),
(275,295,o),
(330,295,cs),
(378,295,o),
(400,272,o),
(412,212,cs),
(424,152,o),
(393,119,o),
(349,119,cs)
);
}
);
width = 715;
},
{
associatedMasterId = "49F060A0-2273-4F54-8B81-08E0B15B03EC";
layerId = "9D718E3E-C90F-4C37-AAE1-57F2119F4E46";
name = "16 Dec 23 at 16:19";
shapes = (
{
closed = 1;
nodes = (
(281,119,o),
(250,188,o),
(250,228,cs),
(250,264,o),
(275,295,o),
(328,295,cs),
(378,295,o),
(404,267,o),
(412,212,cs),
(421,146,o),
(393,119,o),
(350,119,cs)
);
},
{
closed = 1;
nodes = (
(480,-176,o),
(500,-200,o),
(528,-200,cs),
(563,-200,o),
(578,-163,o),
(595,-100,cs),
(626,17,o),
(660,230,o),
(660,367,cs),
(660,539,o),
(607,613,o),
(523,613,cs),
(486,613,o),
(454,599,o),
(413,545,cs),
(403,532,o),
(402,527,o),
(393,527,cs),
(381,527,o),
(376,537,o),
(370,546,cs),
(360,561,o),
(346,575,o),
(325,588,cs),
(297,605,o),
(264,615,o),
(222,615,cs),
(103,615,o),
(16,526,o),
(16,374,cs),
(16,276,o),
(52,178,o),
(115,97,cs),
(156,44,o),
(220,-16,o),
(294,-16,cs),
(329,-16,o),
(351,-3,o),
(368,10,cs),
(384,22,o),
(391,30,o),
(403,30,cs),
(416,30,o),
(423,21,o),
(426,11,cs),
(430,-3,o),
(440,-63,o),
(459,-117,cs)
);
}
);
width = 715;
},
{
associatedMasterId = "49F060A0-2273-4F54-8B81-08E0B15B03EC";
layerId = "04A44B6E-BA51-42F4-AADE-1E66E4F711DF";
name = "18 Jan 24 at 13:23";
shapes = (
{
closed = 1;
nodes = (
(284,116,o),
(252,183,o),
(252,224,cs),
(252,262,o),
(279,290,o),
(333,290,cs),
(382,290,o),
(412,267,o),
(412,201,cs),
(412,147,o),
(392,116,o),
(348,116,cs)
);
},
{
closed = 1;
nodes = (
(75,614,o),
(16,490,o),
(16,364,cs),
(16,194,o),
(123,-16,o),
(277,-16,cs),
(310,-16,o),
(330,-6,o),
(351,10,cs),
(364,20,o),
(374,30,o),
(386,30,cs),
(396,30,o),
(406,23,o),
(409,11,cs),
(419,-30,o),
(423,-57,o),
(435,-98,cs),
(453,-161,o),
(468,-199,o),
(516,-199,cs),
(558,-199,o),
(581,-161,o),
(598,-99,cs),
(628,9,o),
(663,215,o),
(663,367,cs),
(663,540,o),
(612,614,o),
(520,614,cs),
(466,614,o),
(425,594,o),
(396,548,cs),
(390,539,o),
(387,531,o),
(376,531,cs),
(365,531,o),
(361,538,o),
(353,549,cs),
(343,563,o),
(329,577,o),
(308,589,cs),
(284,602,o),
(256,614,o),
(225,614,cs)
);
}
);
width = 698;
},
{
anchors = (
{
name = bottom;
pos = (318,3);
},
{
name = top;
pos = (330,606);
}
);
layerId = "49F060A0-2273-4F54-8B81-08E0B15B03EC";
name = Regular;
shapes = (
{
closed = 1;
nodes = (
(570,-200,o),
(593,-161,o),
(610,-99,cs),
(640,9,o),
(675,215,o),
(675,367,cs),
(675,540,o),
(624,614,o),
(532,614,cs),
(478,614,o),
(437,593,o),
(408,544,cs),
(402,534,o),
(399,526,o),
(388,526,cs),
(377,526,o),
(373,533,o),
(365,545,cs),
(355,560,o),
(341,574,o),
(320,587,cs),
(292,604,o),
(258,614,o),
(219,614,cs),
(87,614,o),
(28,490,o),
(28,364,cs),
(28,194,o),
(135,-14,o),
(289,-14,cs),
(317,-14,o),
(342,-6,o),
(363,10,cs),
(376,20,o),
(386,30,o),
(398,30,cs),
(408,30,o),
(418,23,o),
(421,11,cs),
(431,-30,o),
(435,-57,o),
(447,-98,cs),
(465,-161,o),
(480,-200,o),
(528,-200,cs)
);
},
{
closed = 1;
nodes = (
(296,116,o),
(264,183,o),
(264,224,cs),
(264,262,o),
(291,290,o),
(345,290,cs),
(394,290,o),
(424,267,o),
(424,201,cs),
(424,147,o),
(404,116,o),
(360,116,cs)
);
}
);
width = 695;
}
);
metricLeft = o;
unicode = 113;
}
